<svg width="554" height="425" viewBox="0 0 554 425" fill="none" xmlns="http://www.w3.org/2000/svg">
<path d="M298.9 324.385C298.9 326.128 298.029 327 296.285 327H29.2295C27.2178 327 26.2119 326.296 26.2119 324.888C26.2119 323.949 29.9336 319.758 37.377 312.314C44.8203 304.871 49.3467 300.881 50.9561 300.345H271.843V295.617C271.843 291.527 270.233 288.911 267.015 287.771C265.271 287.168 261.549 286.866 255.85 286.866H60.1094C58.0977 286.866 57.0918 286.129 57.0918 284.653C57.0918 284.251 58.7012 282.407 61.9199 279.121L97.8291 242.608C100.78 239.591 102.691 238.082 103.562 238.082C105.172 238.082 105.943 238.92 105.876 240.597C103.462 245.425 99.9414 251.963 95.3145 260.211H271.642C278.549 260.211 284.885 263.262 290.652 269.364C296.151 275.198 298.9 282.34 298.9 290.789V324.385ZM293.67 321.77V290.89C293.67 283.446 291.323 277.344 286.629 272.583C281.935 267.822 276.939 265.441 271.642 265.441H90.8887C88.944 265.441 87.9717 264.737 87.9717 263.329C87.9717 262.793 89.1787 260.446 91.5928 256.288L66.3457 281.636H255.85C263.695 281.636 268.993 282.373 271.742 283.849C275.296 285.726 277.073 289.649 277.073 295.617V300.445C277.073 303.865 275.967 305.575 273.754 305.575H51.9619L35.5664 321.77H293.67ZM526.023 302.759C526.023 303.832 525.487 304.67 524.414 305.273C518.982 308.358 504.833 315.6 481.967 327H427.852C387.483 327 367.299 337.863 367.299 359.59C367.299 370.52 371.255 379.64 379.168 386.949C386.88 394.057 396.234 397.611 407.231 397.611C417.692 397.611 426.846 394.091 434.691 387.05C442.872 379.808 446.963 370.99 446.963 360.596C446.963 355.298 446.393 350.604 445.253 346.514C444.113 342.49 443.543 339.607 443.543 337.863C443.543 336.388 444.348 335.65 445.957 335.65C447.164 335.65 449.042 337.159 451.59 340.177C454.339 343.463 456.686 347.922 458.631 353.555C460.643 359.188 461.648 364.183 461.648 368.542C461.648 382.155 456.049 394.896 444.851 406.765C433.652 418.634 421.246 424.568 407.634 424.568C388.388 424.568 372.764 417.628 360.761 403.747C349.428 390.604 343.762 374.41 343.762 355.164C343.762 341.618 349.294 330.185 360.358 320.864C370.819 312.08 382.89 307.688 396.569 307.688C390.802 306.548 382.554 303.463 371.825 298.434C360.224 292.935 354.089 288.777 353.418 285.961C353.418 285.156 356.603 281.535 362.974 275.098C369.344 268.593 373.032 265.274 374.038 265.14C378.665 269.901 382.118 273.052 384.398 274.595C387.349 276.606 392.613 279.222 400.19 282.44C431.305 295.584 463.124 302.155 495.646 302.155C509.192 302.155 518.446 301.552 523.408 300.345C525.152 299.942 526.023 300.747 526.023 302.759ZM419.201 359.992C419.201 363.546 417.826 366.698 415.077 369.447C412.328 372.264 409.176 373.672 405.622 373.672C401.867 373.672 398.648 372.331 395.966 369.648C393.351 367.033 392.043 363.848 392.043 360.093C392.043 356.203 393.317 352.951 395.865 350.336C398.48 347.788 401.733 346.514 405.622 346.514C409.578 346.514 412.831 347.754 415.379 350.235C417.927 352.784 419.201 356.036 419.201 359.992ZM509.729 306.983C498.195 307.319 491.355 307.486 489.209 307.486C457.692 307.486 427.147 300.781 397.575 287.369C391.339 284.553 387.014 282.44 384.6 281.032C379.771 278.283 376.05 275.332 373.435 272.181L360.358 285.257C367.869 290.353 376.586 294.779 386.511 298.534C391.339 300.345 400.66 303.295 414.474 307.386C419.302 308.794 421.716 309.867 421.716 310.604C421.716 312.348 420.844 313.22 419.101 313.22C417.089 313.22 414.038 313.052 409.947 312.717C405.924 312.382 402.873 312.214 400.794 312.214C385.84 312.214 373.602 316.338 364.08 324.586C354.021 333.303 348.992 345.105 348.992 359.992C348.992 376.086 354.659 390 365.991 401.735C377.391 413.47 391.071 419.338 407.03 419.338C419.436 419.338 430.769 414.074 441.028 403.546C451.288 393.018 456.418 381.585 456.418 369.246C456.418 361.736 454.708 354.728 451.288 348.224C451.892 352.247 452.193 356.505 452.193 360.998C452.193 372.666 447.566 382.624 438.312 390.872C429.394 398.852 419.034 402.842 407.231 402.842C394.692 402.842 384.03 398.751 375.245 390.57C366.461 382.389 362.068 372.062 362.068 359.59C362.068 334.376 383.996 321.77 427.852 321.77H481.363L509.729 306.983ZM413.971 360.193C413.971 354.561 411.188 351.744 405.622 351.744C400.056 351.744 397.273 354.527 397.273 360.093C397.273 365.659 400.056 368.441 405.622 368.441C411.188 368.441 413.971 365.692 413.971 360.193Z" fill="#AD9F93"/>
<path d="M310.873 189H99.1968C96.7287 189 95.6398 188.201 95.9302 186.604C96.0754 185.733 96.5109 184.935 97.2368 184.209L121.301 160.145H280.602V140.219L306.082 115.393C306.953 114.521 307.751 114.086 308.477 114.086C310.074 114.086 310.873 115.175 310.873 117.353V189ZM220.932 221.122C220.932 225.332 219.553 228.816 216.794 231.575C214.109 234.333 210.66 235.712 206.45 235.712C202.24 235.712 198.756 234.333 195.997 231.575C193.311 228.889 191.968 225.441 191.968 221.23C191.968 217.238 193.347 213.826 196.106 210.995C198.937 208.237 202.349 206.857 206.341 206.857C210.334 206.857 213.746 208.237 216.577 210.995C219.48 213.754 220.932 217.129 220.932 221.122ZM305.21 183.338V123.995L286.264 142.614V162.976C286.264 164.863 285.248 165.807 283.215 165.807H123.587L105.948 183.338H305.21ZM215.27 221.448C215.27 218.98 214.435 216.875 212.766 215.133C211.096 213.391 209.027 212.52 206.559 212.52C200.607 212.52 197.63 215.423 197.63 221.23C197.63 223.626 198.465 225.695 200.135 227.437C201.877 229.179 203.946 230.05 206.341 230.05C208.737 230.05 210.806 229.215 212.548 227.546C214.363 225.876 215.27 223.844 215.27 221.448ZM424.659 43.0918C424.659 44.834 423.607 45.7051 421.501 45.7051H378.491C377.257 45.7051 375.842 46.2132 374.245 47.2295C372.648 48.2458 371.414 48.7539 370.542 48.7539C369.163 48.7539 368.474 47.5199 368.474 45.0518C368.474 42.3659 369.853 39.7163 372.611 37.103C375.225 34.7075 377.947 33.2557 380.778 32.7476C380.342 30.715 380.125 29.118 380.125 27.9565C380.125 23.5285 381.976 19.6812 385.678 16.4146C389.452 13.1479 393.59 11.5146 398.091 11.5146C402.882 11.5146 407.237 12.9665 411.157 15.8701C415.44 18.9915 417.582 22.8752 417.582 27.521C417.582 29.6987 416.638 30.7876 414.75 30.7876C412.936 30.7876 411.992 30.0254 411.919 28.501C411.847 24.2181 407.891 22.0767 400.051 22.0767C396.203 22.0767 394.28 24.2544 394.28 28.6099C394.28 31.2231 395.55 32.5298 398.091 32.5298H415.513C416.239 32.5298 417.944 34.0905 420.63 37.2119C423.316 40.3333 424.659 42.2933 424.659 43.0918ZM449.268 158.838C449.268 160.29 448.832 162.359 447.961 165.045C444.186 176.224 439.105 186.024 432.717 194.444C424.441 205.551 415.803 211.104 406.802 211.104C398.163 211.104 391.304 206.567 386.222 197.493C382.012 190.016 379.907 181.668 379.907 172.449V76.9556C382.302 74.0519 386.839 69.2246 393.518 62.4736C400.922 55.1419 405.096 51.4761 406.04 51.4761C407.637 51.4761 408.435 52.5286 408.435 54.6338V167.332C408.435 170.671 408.943 173.937 409.959 177.131C411.339 181.632 413.335 183.882 415.948 183.882C420.667 183.882 425.821 181.196 431.41 175.825C436.346 171.034 439.831 166.061 441.863 160.907C443.533 156.697 445.057 154.592 446.437 154.592C448.324 154.592 449.268 156.007 449.268 158.838ZM415.839 40.1519C415.476 39.5711 415.005 38.9178 414.424 38.1919H397.655C391.63 38.1919 388.618 34.7801 388.618 27.9565C388.618 22.5122 391.775 18.9189 398.091 17.1768C394.969 17.1768 392.138 18.2293 389.598 20.3345C387.057 22.367 385.787 24.9077 385.787 27.9565C385.787 30.7876 386.367 33.7275 387.529 36.7764C385.206 37.3571 382.883 37.9015 380.56 38.4097C379.834 38.6274 378.854 39.2082 377.62 40.1519H415.839ZM437.726 175.716C432.281 181.596 428.688 185.08 426.946 186.169C423.679 188.274 419.033 189.327 413.008 189.327C409.742 189.327 407.201 186.35 405.386 180.398C404.007 175.97 403.317 171.614 403.317 167.332V61.0581L384.807 79.5688V172.558C384.807 180.18 386.585 187.33 390.142 194.009C394.425 201.921 399.906 205.877 406.584 205.877C416.674 205.877 427.055 195.824 437.726 175.716Z" fill="#AD9F93"/>
</svg>
