<svg width="326" height="81" viewBox="0 0 326 81" fill="none" xmlns="http://www.w3.org/2000/svg">
<path d="M1.08625 74.8483C0.814243 74.8006 0.555127 74.9825 0.507495 75.2545C0.459862 75.5265 0.64175 75.7856 0.913754 75.8333L1.08625 74.8483ZM325.598 7.17058L321.042 3.62428L320.249 9.34304L325.598 7.17058ZM0.913754 75.8333C3.00122 76.1988 5.05605 76.5368 7.07922 76.848L7.23123 75.8596C5.21504 75.5495 3.16705 75.2126 1.08625 74.8483L0.913754 75.8333ZM19.1704 78.434C23.3669 78.8851 27.4184 79.2125 31.3357 79.4241L31.3897 78.4256C27.4908 78.2149 23.4569 77.889 19.2773 77.4397L19.1704 78.434ZM43.555 79.7152C47.7885 79.682 51.8559 79.504 55.774 79.1939L55.6951 78.197C51.8013 78.5052 47.7576 78.6822 43.5472 78.7153L43.555 79.7152ZM67.908 77.7526C72.055 77.0884 76.029 76.2686 79.8554 75.3124L79.6129 74.3423C75.8143 75.2915 71.8684 76.1056 67.7499 76.7652L67.908 77.7526ZM91.5972 71.8207C95.5288 70.461 99.3108 68.9588 102.978 67.3406L102.574 66.4257C98.9304 68.0336 95.1741 69.5256 91.2704 70.8756L91.5972 71.8207ZM113.97 62.0069C117.594 60.0961 121.131 58.0886 124.621 56.0152L124.11 55.1555C120.631 57.2222 117.109 59.221 113.503 61.1224L113.97 62.0069ZM135.014 49.6114C138.432 47.4475 141.844 45.2467 145.287 43.0417L144.747 42.1996C141.302 44.4068 137.894 46.6045 134.479 48.7665L135.014 49.6114ZM155.6 36.5314C159.006 34.4284 162.478 32.347 166.051 30.3132L165.556 29.4442C161.971 31.4853 158.489 33.5729 155.075 35.6804L155.6 36.5314ZM176.779 24.543C180.323 22.7554 183.984 21.0311 187.789 19.3912L187.393 18.4729C183.568 20.1213 179.889 21.8543 176.329 23.6502L176.779 24.543ZM199.086 14.952C202.8 13.632 206.655 12.3974 210.672 11.264L210.4 10.3016C206.362 11.4411 202.486 12.6825 198.751 14.0097L199.086 14.952ZM222.487 8.33976C226.332 7.5172 230.319 6.78558 234.463 6.15587L234.312 5.16722C230.149 5.79991 226.142 6.53511 222.278 7.36189L222.487 8.33976ZM246.533 4.66359C250.438 4.28713 254.473 3.99698 258.65 3.80058L258.603 2.80168C254.41 2.99884 250.358 3.29013 246.437 3.6682L246.533 4.66359ZM270.789 3.50145C274.722 3.48911 278.772 3.55542 282.946 3.70549L282.982 2.70613C278.795 2.55561 274.732 2.48908 270.786 2.50145L270.789 3.50145ZM295.141 4.36122C299.11 4.64278 303.184 4.99595 307.369 5.42443L307.471 4.42963C303.276 4.00012 299.191 3.64605 295.212 3.36372L295.141 4.36122ZM319.34 6.81885C319.916 6.89385 320.494 6.97021 321.075 7.04793L321.208 6.05678C320.626 5.9789 320.046 5.90238 319.469 5.82721L319.34 6.81885ZM1.17249 74.3558C0.628486 74.2605 0.110254 74.6243 0.0149893 75.1683C-0.0802759 75.7123 0.283501 76.2305 0.827507 76.3258L1.17249 74.3558ZM325.598 7.17058L316.473 0.0947287L314.908 11.5351L325.598 7.17058ZM0.827507 76.3258C2.91831 76.6919 4.97655 77.0305 7.00322 77.3422L7.30723 75.3654C5.29454 75.0558 3.24996 74.7196 1.17249 74.3558L0.827507 76.3258ZM19.117 78.9311C23.3219 79.3832 27.3823 79.7113 31.3088 79.9234L31.4167 77.9263C27.5269 77.7162 23.5019 77.391 19.3308 76.9426L19.117 78.9311ZM43.5589 80.2152C47.8039 80.1819 51.8832 80.0034 55.8135 79.6923L55.6557 77.6986C51.774 78.0058 47.7422 78.1823 43.5432 78.2153L43.5589 80.2152ZM67.9871 78.2463C72.1484 77.5799 76.1364 76.7572 79.9766 75.7975L79.4917 73.8572C75.7069 74.803 71.7751 75.6142 67.6708 76.2715L67.9871 78.2463ZM91.7607 72.2932C95.7062 70.9287 99.501 69.4214 103.18 67.7981L102.372 65.9683C98.7402 67.571 94.9967 69.0579 91.107 70.403L91.7607 72.2932ZM114.203 62.4492C117.836 60.5336 121.381 58.5218 124.876 56.4451L123.855 54.7256C120.382 56.789 116.867 58.7835 113.27 60.6801L114.203 62.4492ZM135.282 50.0338C138.7 47.869 142.116 45.6666 145.556 43.4627L144.478 41.7786C141.03 43.9869 137.625 46.183 134.212 48.3441L135.282 50.0338ZM155.863 36.9568C159.265 34.8561 162.732 32.7779 166.298 30.7477L165.308 29.0097C161.717 31.0544 158.23 33.1452 154.812 35.255L155.863 36.9568ZM177.005 24.9894C180.54 23.2059 184.191 21.486 187.987 19.8504L187.195 18.0137C183.36 19.6665 179.672 21.4037 176.104 23.2038L177.005 24.9894ZM199.253 15.4231C202.957 14.1067 206.802 12.8756 210.807 11.7452L210.264 9.82037C206.215 10.963 202.328 12.2077 198.584 13.5386L199.253 15.4231ZM222.592 8.82869C226.426 8.00824 230.404 7.27842 234.538 6.6502L234.237 4.6729C230.064 5.30707 226.047 6.04406 222.173 6.87295L222.592 8.82869ZM246.581 5.16128C250.477 4.78562 254.505 4.49605 258.674 4.30003L258.58 2.30223C254.379 2.49976 250.319 2.79164 246.389 3.17051L246.581 5.16128ZM270.79 4.00145C274.716 3.98913 278.76 4.05532 282.928 4.20517L283 2.20646C278.807 2.05571 274.737 1.98906 270.784 2.00146L270.79 4.00145ZM295.106 4.85996C299.069 5.14115 303.139 5.49386 307.318 5.92183L307.522 3.93223C303.322 3.50221 299.232 3.14768 295.247 2.86498L295.106 4.85996Z" fill="#AD9F93"/>
</svg>
