<svg width="85" height="81" viewBox="0 0 85 81" fill="none" xmlns="http://www.w3.org/2000/svg">
<path d="M39.1474 0.925099C39.2554 2.56959 39.2314 4.22609 39.0753 5.85858C39.0513 6.06264 39.0393 6.2667 39.0033 6.45876C38.9913 6.55478 38.9793 6.65082 38.9673 6.74685C38.9553 6.89089 39.0033 6.51878 38.9673 6.73484C38.9553 6.79486 38.9553 6.86688 38.9433 6.9269C38.8833 7.33502 38.8113 7.74314 38.7392 8.15126C38.5832 8.96751 38.3791 9.78376 38.1391 10.576C38.019 10.9481 37.899 11.3202 37.7669 11.6923C37.6949 11.8724 37.6349 12.0524 37.5508 12.2325C37.5388 12.2685 37.4908 12.3285 37.4908 12.3765C37.4908 12.2565 37.5629 12.2205 37.5149 12.3045C37.4668 12.4005 37.4308 12.4966 37.3828 12.5926C37.0947 13.2288 36.7466 13.841 36.3625 14.4171C36.2785 14.5492 36.1825 14.6812 36.0864 14.8133C36.0384 14.8853 35.9784 14.9573 35.9304 15.0293C35.9063 15.0533 35.8823 15.0893 35.8703 15.1133C35.9904 14.8973 35.9184 15.0533 35.8824 15.1013C35.6663 15.3774 35.4262 15.6535 35.1862 15.9176C34.9461 16.1697 34.706 16.4097 34.4419 16.6498C34.3219 16.7578 34.1899 16.8659 34.0578 16.9739C33.9978 17.0219 33.9378 17.0699 33.8778 17.118C33.7818 17.19 34.0578 16.9739 33.9138 17.0939C33.8658 17.13 33.8297 17.154 33.7817 17.19C33.4696 17.418 33.1455 17.6341 32.8094 17.8262C32.4733 18.0182 32.1253 18.1623 31.7772 18.3423C31.7892 18.3303 31.9812 18.2583 31.8491 18.3063C31.8011 18.3303 31.7531 18.3423 31.7051 18.3663C31.6091 18.4023 31.5131 18.4383 31.405 18.4744C31.225 18.5344 31.0449 18.5944 30.8529 18.6424C30.4807 18.7504 30.0966 18.8225 29.7125 18.8705C29.5085 18.8945 29.2684 19.1106 29.1724 19.2786C29.0763 19.4587 29.0403 19.6507 29.0643 19.8548C29.1244 20.2869 29.4965 20.635 29.9526 20.635C30.8288 20.623 31.7051 20.623 32.5814 20.683C32.7854 20.695 32.9775 20.719 33.1815 20.743C33.1935 20.743 33.4096 20.779 33.2656 20.755C33.1095 20.731 33.3256 20.7671 33.3496 20.7671C33.4576 20.7791 33.5657 20.8031 33.6737 20.8271C34.1058 20.9111 34.526 21.0191 34.9341 21.1512C35.0061 21.1752 35.0901 21.2112 35.1621 21.2352C35.1981 21.2472 35.2462 21.2712 35.2822 21.2832C35.3542 21.3072 35.4262 21.3792 35.2342 21.2592C35.3782 21.3552 35.5583 21.4032 35.7143 21.4873C36.0144 21.6433 36.3025 21.8114 36.5666 22.0034C36.6386 22.0514 36.7106 22.0995 36.7826 22.1595C36.8066 22.1835 36.8427 22.2075 36.8667 22.2195C36.9867 22.3035 36.8187 22.1835 36.8067 22.1715C36.9267 22.2915 37.0827 22.3995 37.2148 22.5076C37.4788 22.7477 37.7309 22.9877 37.971 23.2518C38.079 23.3718 38.187 23.4919 38.2831 23.6119C38.3311 23.6719 38.3791 23.7319 38.4392 23.804C38.5112 23.9 38.3071 23.6239 38.4151 23.768C38.4511 23.816 38.4751 23.852 38.5111 23.9C38.7152 24.1761 38.8953 24.4642 39.0753 24.7522C39.2554 25.0523 39.4235 25.3644 39.5795 25.6765C39.6515 25.8326 39.7235 25.9886 39.7955 26.1447C39.8075 26.1807 39.8195 26.2167 39.8435 26.2407C39.7475 26.0126 39.8075 26.1447 39.8315 26.2047C39.8675 26.3007 39.9036 26.3847 39.9396 26.4808C40.2157 27.201 40.4197 27.9332 40.5758 28.6774C40.6238 28.8935 40.6598 29.0975 40.6958 29.3136C40.7078 29.3976 40.7198 29.4937 40.7438 29.5777C40.7558 29.6497 40.7678 29.7097 40.7678 29.7818C40.7678 29.7457 40.7558 29.7097 40.7558 29.6737C40.7558 29.7217 40.7678 29.7577 40.7678 29.8058C40.8159 30.2379 40.8639 30.658 40.8879 31.0902C41.0199 33.0707 40.8999 35.0633 40.7678 37.0319C40.7438 37.4761 41.1279 37.8602 41.5481 37.9202C41.9922 37.9802 42.4003 37.7041 42.5323 37.272C43.4806 34.2591 43.6007 31.0781 44.3089 28.0172C44.465 27.333 44.645 26.6488 44.8851 25.9766C44.9331 25.8326 44.9931 25.6885 45.0411 25.5565C45.0651 25.4845 45.1131 25.4124 45.1371 25.3284C45.1371 25.3404 45.0531 25.5325 45.1131 25.4004C45.1251 25.3644 45.1492 25.3164 45.1612 25.2804C45.2932 24.9923 45.4252 24.7162 45.5693 24.4402C45.8574 23.888 46.1934 23.3598 46.5656 22.8677C46.5896 22.8437 46.6136 22.8077 46.6256 22.7837C46.5055 22.9637 46.5416 22.8917 46.5776 22.8437C46.6256 22.7837 46.6736 22.7236 46.7216 22.6636C46.8177 22.5436 46.9257 22.4235 47.0337 22.3035C47.2377 22.0754 47.4538 21.8594 47.6699 21.6673C47.802 21.5473 47.922 21.4393 48.066 21.3312C48.09 21.3072 48.114 21.2952 48.1501 21.2712C47.934 21.4393 48.09 21.3192 48.126 21.2832C48.198 21.2352 48.2581 21.1872 48.3301 21.1392C48.5942 20.9591 48.8703 20.7911 49.1583 20.647C49.2304 20.611 49.3144 20.575 49.3864 20.539C49.4224 20.527 49.4465 20.515 49.4825 20.503C49.6505 20.4309 49.3024 20.575 49.4584 20.515C49.6145 20.455 49.7705 20.3949 49.9386 20.3469C50.1066 20.2989 50.2627 20.2509 50.4307 20.2149C50.5028 20.2029 50.5868 20.1789 50.6588 20.1669C50.7308 20.1549 51.0669 20.1068 50.7548 20.1429C50.9949 20.1068 51.223 20.0708 51.391 19.8788C51.5231 19.7347 51.6071 19.5667 51.6431 19.3626C51.7031 18.9545 51.439 18.4624 50.9949 18.3783C50.6468 18.3063 50.2987 18.2223 49.9506 18.1142C49.7945 18.0662 49.6505 18.0062 49.4944 17.9582C49.4104 17.9222 49.3264 17.8862 49.2424 17.8622C49.5185 17.9702 49.2063 17.8382 49.1343 17.8142C48.4981 17.5141 47.886 17.154 47.3218 16.7338C47.2978 16.7098 47.2618 16.6858 47.2378 16.6738C47.1177 16.5778 47.2858 16.7098 47.2978 16.7218C47.2378 16.6618 47.1538 16.6138 47.0817 16.5538C46.9377 16.4337 46.8056 16.3257 46.6736 16.2057C46.4095 15.9656 46.1454 15.7135 45.9054 15.4375C45.6653 15.1734 45.4372 14.9093 45.2092 14.6332C45.1852 14.5972 45.1611 14.5612 45.1251 14.5252C45.1371 14.5372 45.2572 14.6932 45.1612 14.5732C45.1012 14.5012 45.0531 14.4292 44.9931 14.3571C44.885 14.2131 44.7771 14.057 44.681 13.913C44.2849 13.3248 43.9368 12.7006 43.6247 12.0644C43.5527 11.9084 43.4807 11.7643 43.4086 11.6083C43.3846 11.5723 43.3726 11.5243 43.3606 11.4883C43.3006 11.3562 43.3846 11.5363 43.3846 11.5483C43.3486 11.4403 43.3006 11.3442 43.2646 11.2482C43.1325 10.9241 43.0125 10.588 42.8924 10.2519C42.3883 8.77545 42.0162 7.251 41.7161 5.71454C41.5481 4.86228 41.392 3.99802 41.26 3.13376C41.2 2.72564 41.14 2.32953 41.0799 1.9214C41.0559 1.71734 41.0199 1.52529 40.9959 1.32122C40.9839 1.2492 40.9359 0.913098 40.9839 1.21319C40.9719 1.10516 40.9599 1.00913 40.9479 0.901098C40.9119 0.649022 40.8638 0.444955 40.6838 0.264901C40.5277 0.108854 40.2757 -0.0111759 40.0476 0.000827713C39.8196 0.0128313 39.5674 0.084847 39.4114 0.264901C39.2554 0.456959 39.1113 0.697031 39.1474 0.925099C39.5675 4.08205 40.0476 7.275 41.0199 10.3119C41.9562 13.2048 43.4807 15.9656 45.8694 17.8982C47.2258 18.9905 48.7863 19.8308 50.5028 20.1549C50.5868 19.5667 50.6588 18.9785 50.7428 18.3903C49.9986 18.4864 49.3144 18.6784 48.6182 18.9785C48.006 19.2426 47.4418 19.6027 46.9136 20.0228C45.8813 20.8271 45.0291 21.8714 44.3569 22.9877C43.6487 24.1521 43.1325 25.4364 42.7844 26.7568C42.3643 28.3173 42.1242 29.9258 41.8842 31.5223C41.6201 33.3228 41.344 35.1234 40.7918 36.8639C41.38 36.9479 41.9682 37.0199 42.5564 37.104C42.7844 33.5509 42.9885 29.8298 41.7881 26.4087C40.7918 23.5519 38.8352 20.8751 35.9904 19.6747C34.0818 18.8705 31.9932 18.8465 29.9526 18.8705C30.0366 19.4587 30.1086 20.0468 30.1927 20.635C33.2176 20.2149 35.7983 18.2583 37.5629 15.8576C39.5194 13.1928 40.3717 9.84378 40.7799 6.60281C41.0199 4.71824 41.0679 2.82166 40.9359 0.9371C40.8999 0.468959 40.5398 0.0128225 40.0356 0.0368297C39.5795 0.0488333 39.1113 0.420948 39.1474 0.925099Z" fill="white"/>
<path d="M5.81312 25.3284C6.01719 26.2287 6.19724 27.141 6.35329 28.0532C6.43731 28.4974 6.50937 28.9415 6.56939 29.3856C6.6054 29.6137 6.64138 29.8298 6.66539 30.0578C6.67739 30.1539 6.68938 30.2619 6.70138 30.3579C6.72539 30.526 6.70138 30.3699 6.70138 30.3459C6.71338 30.418 6.72541 30.49 6.72541 30.574C6.96548 32.3865 7.1095 34.1991 7.18152 36.0236C7.21753 36.8039 7.21758 37.5721 7.16957 38.3523C7.15756 38.5324 7.14551 38.7125 7.1215 38.8925C7.1095 38.9885 7.09752 39.0845 7.08552 39.1806C7.07351 39.2766 7.10952 39.3486 7.08552 39.1566C7.09752 39.2166 7.06149 39.2886 7.06149 39.3486C7.00147 39.7207 6.92945 40.0808 6.82141 40.441C6.7734 40.621 6.71339 40.7891 6.65338 40.9691C6.62937 41.0411 6.58139 41.1252 6.56939 41.1972C6.6174 41.0171 6.61737 41.1012 6.59336 41.1492C6.56935 41.2092 6.54533 41.2572 6.52132 41.3172C6.35327 41.6653 6.16123 41.9894 5.93316 42.3015C5.87314 42.3735 5.82514 42.4576 5.76512 42.5296C5.77713 42.5056 5.88518 42.3735 5.78915 42.4936C5.76514 42.5296 5.74111 42.5656 5.7051 42.5896C5.58507 42.7456 5.453 42.9017 5.32096 43.0577C5.06889 43.3458 4.79284 43.6339 4.51676 43.91C4.21667 44.2101 3.90454 44.4862 3.58044 44.7623C3.41239 44.9063 3.24437 45.0503 3.06431 45.1824C3.0283 45.2184 2.98029 45.2544 2.94428 45.2784C2.92027 45.2904 2.77623 45.4105 2.88426 45.3264C3.00429 45.2424 2.83624 45.3624 2.82424 45.3744C2.77623 45.4105 2.71623 45.4465 2.66822 45.4945C1.948 46.0226 1.20378 46.5148 0.44755 46.9829C0.123453 47.187 -0.0926584 47.6191 0.0393812 48.0032C0.159417 48.3633 0.507545 48.6874 0.903664 48.6634C1.65989 48.6154 2.41612 48.5794 3.18435 48.6154C3.6885 48.6394 4.19265 48.6874 4.6848 48.7475C4.96088 48.7715 5.22494 48.7955 5.50102 48.8195C5.58504 48.8195 5.66908 48.8315 5.75311 48.8435C5.77711 48.8435 5.78912 48.8435 5.81312 48.8555C5.90915 48.8675 5.88513 48.8675 5.74109 48.8435C5.7651 48.8555 5.82516 48.8555 5.84917 48.8555C6.04123 48.8915 6.23326 48.9275 6.42532 48.9875C6.59337 49.0355 6.76143 49.0956 6.91748 49.1556C6.96549 49.1676 7.00152 49.1916 7.04953 49.2036C7.16957 49.2516 6.83343 49.1076 7.01348 49.1916C7.10951 49.2396 7.19357 49.2756 7.2896 49.3236C7.6257 49.4917 7.93778 49.6837 8.23787 49.8998C8.27389 49.9238 8.30988 49.9598 8.3459 49.9838C8.47793 50.0798 8.3099 49.9598 8.29789 49.9478C8.3339 50.0078 8.46592 50.0799 8.51393 50.1279C8.66998 50.2599 8.81405 50.3919 8.95809 50.524C9.23417 50.7881 9.51027 51.0761 9.75034 51.3642C9.87038 51.5083 9.9904 51.6523 10.0984 51.7964C9.9784 51.6283 10.2305 51.9644 10.0984 51.7964C10.1224 51.8324 10.1465 51.8564 10.1705 51.8924C10.2425 51.9884 10.3145 52.0845 10.3745 52.1805C10.6026 52.5046 10.8186 52.8287 11.0227 53.1648C11.4668 53.897 11.875 54.6652 12.2471 55.4335C12.4511 55.8536 12.6552 56.2857 12.8472 56.7058C12.8953 56.8019 12.9313 56.8979 12.9793 56.9939C13.0033 57.0419 13.0273 57.102 13.0513 57.15C13.1113 57.306 13.0513 57.162 13.0393 57.126C13.1473 57.366 13.2314 57.6061 13.3274 57.8462C14.1076 59.8148 14.7078 61.8434 15.1279 63.92C15.212 64.3641 15.7041 64.6162 16.1122 64.5682C16.5924 64.5082 16.8445 64.1361 16.8925 63.6799C17.3126 60.0669 16.4003 56.4778 16.6164 52.8527C16.6284 52.5646 16.6644 52.2765 16.6884 52.0004C16.7004 51.9284 16.7124 51.8564 16.7124 51.7844C16.7244 51.6643 16.6764 52.0364 16.7004 51.8564C16.7004 51.8204 16.7124 51.7964 16.7124 51.7604C16.7364 51.6043 16.7604 51.4483 16.7844 51.2922C16.8924 50.68 17.0365 50.0678 17.2045 49.4797C17.3006 49.1676 17.3966 48.8555 17.5046 48.5434C17.5526 48.3993 17.6007 48.2673 17.6607 48.1353C17.6847 48.0633 17.7207 47.9912 17.7447 47.9192C17.8047 47.7872 17.7207 47.9792 17.7087 47.9912C17.7327 47.9432 17.7447 47.8952 17.7687 47.8472C18.0208 47.283 18.3089 46.7309 18.657 46.2147C18.741 46.0827 18.8371 45.9506 18.9331 45.8186C18.9451 45.7946 19.0531 45.6625 18.945 45.7946C18.849 45.9266 18.9571 45.7826 18.9811 45.7586C19.0291 45.6985 19.0771 45.6385 19.1371 45.5785C19.3412 45.3384 19.5693 45.1104 19.8093 44.9063C19.8694 44.8463 19.9414 44.7983 20.0014 44.7503C20.0854 44.6782 19.8333 44.8703 19.9294 44.8103C19.9654 44.7863 20.0014 44.7623 20.0374 44.7262C20.1694 44.6422 20.2895 44.5582 20.4335 44.4742C20.5656 44.4022 20.6976 44.3301 20.8296 44.2701C20.8536 44.2581 20.9977 44.1981 20.8417 44.2581C20.6976 44.3181 20.8177 44.2701 20.8537 44.2581C20.9377 44.2221 21.0217 44.1981 21.1057 44.1741C21.4658 44.0541 21.7899 43.7059 21.7659 43.3098C21.7419 42.9017 21.5018 42.5776 21.1057 42.4456C19.5692 41.9294 17.9608 41.7133 16.4123 41.2212C16.2323 41.1612 16.0522 41.1012 15.8722 41.0291C15.8362 41.0171 15.8001 41.0051 15.7641 40.9931C15.7401 40.9811 15.5841 40.8971 15.7161 40.9691C15.8481 41.0411 15.6921 40.9571 15.6681 40.9451C15.6201 40.9211 15.5601 40.8971 15.5121 40.8731C15.164 40.7171 14.8398 40.525 14.5277 40.3089C14.4797 40.2729 14.4317 40.2369 14.3837 40.2129C14.2757 40.1409 14.4077 40.2489 14.4317 40.2489C14.3957 40.2609 14.2396 40.0929 14.2036 40.0568C14.0476 39.9128 13.8916 39.7688 13.7475 39.6127C13.6275 39.4807 13.5074 39.3366 13.3874 39.1926C13.3274 39.1206 13.2674 39.0485 13.2074 38.9765C13.3634 39.1566 13.2674 39.0485 13.2314 39.0005C13.1954 38.9525 13.1594 38.8925 13.1113 38.8445C12.6792 38.2563 12.3191 37.6321 11.995 36.9839C11.911 36.8159 11.8389 36.6598 11.7669 36.4918C11.7309 36.4198 11.6949 36.3477 11.6709 36.2637C11.6469 36.2277 11.6349 36.1797 11.6109 36.1437C11.5389 35.9756 11.6829 36.3117 11.6109 36.1557C11.4669 35.8076 11.3348 35.4475 11.2027 35.0994C10.6626 33.6109 10.2425 32.0745 9.77431 30.562C9.12612 28.5214 8.3699 26.5168 7.38561 24.6202C7.16954 24.2001 6.54538 24.044 6.14926 24.2961C5.71713 24.5722 5.59707 25.0764 5.82514 25.5325C6.06521 25.9886 6.2933 26.4568 6.50937 26.9249C6.6054 27.141 6.71342 27.357 6.79744 27.5731C6.78544 27.5491 6.72541 27.3931 6.78543 27.5491C6.80943 27.5971 6.83345 27.6571 6.85746 27.7051C6.90548 27.8252 6.95345 27.9452 7.00147 28.0532C7.33757 28.8935 7.63767 29.7458 7.91375 30.61C8.4179 32.1585 8.85006 33.7309 9.37822 35.2674C9.88237 36.7318 10.4946 38.1843 11.3708 39.4687C11.839 40.1529 12.3671 40.8491 13.0153 41.3772C13.7115 41.9654 14.4798 42.3855 15.332 42.7096C17.0365 43.3698 18.8851 43.5619 20.6136 44.1381C20.6136 43.5619 20.6136 42.9857 20.6136 42.3975C17.9968 43.2378 16.4963 45.8426 15.6681 48.2913C15.236 49.5517 14.9719 50.8721 14.8399 52.1925C14.6718 53.897 14.7918 55.6255 14.9359 57.33C15.1039 59.4307 15.308 61.5313 15.0679 63.6319C15.6561 63.5479 16.2443 63.4759 16.8325 63.3918C16.4483 61.5073 15.9082 59.6467 15.2359 57.8462C14.5517 56.0336 13.7475 54.2451 12.7752 52.5646C11.947 51.1482 10.9507 49.7678 9.67831 48.7234C8.9821 48.1593 8.26185 47.7031 7.42159 47.379C6.67737 47.079 5.89716 46.9949 5.10492 46.9229C4.52875 46.8749 3.9646 46.8029 3.38843 46.7669C2.53618 46.7188 1.6959 46.7548 0.843646 46.8029C0.999692 47.367 1.14371 47.9192 1.29976 48.4834C2.71618 47.6071 4.09661 46.6468 5.33298 45.5065C6.55735 44.3661 7.69772 43.0577 8.30991 41.4853C8.89808 39.9728 8.9941 38.2803 8.95809 36.6598C8.92208 34.8233 8.778 32.9867 8.56194 31.1742C8.30986 29.0375 7.94975 26.9009 7.48161 24.8003C7.37358 24.3441 6.82145 24.032 6.37732 24.1761C5.95719 24.3801 5.69309 24.8363 5.81312 25.3284Z" fill="white"/>
<path d="M53.0354 49.5037C53.2034 50.1639 53.3355 50.8241 53.4315 51.5083C53.4195 51.4243 53.4075 51.3522 53.3955 51.2682C53.5755 52.6006 53.5996 53.969 53.4195 55.3014C53.4315 55.2174 53.4435 55.1454 53.4555 55.0614C53.3115 56.1417 53.0354 57.198 52.6153 58.1943C52.6513 58.1223 52.6753 58.0503 52.7113 57.9782C52.5073 58.4584 52.2792 58.9265 52.0031 59.3706C51.8711 59.5987 51.715 59.8268 51.559 60.0428C51.4869 60.1389 51.4149 60.2349 51.3429 60.3309C51.535 60.0789 51.3789 60.2829 51.3309 60.3429C51.2829 60.403 51.2349 60.463 51.1868 60.511C50.8507 60.9191 50.4666 61.2912 50.0705 61.6393C49.9745 61.7234 49.8665 61.8074 49.7704 61.8914C49.7104 61.9394 49.5063 62.0955 49.7584 61.9034C49.6984 61.9394 49.6504 61.9874 49.5904 62.0354C49.3623 62.2035 49.1223 62.3595 48.8822 62.5156C48.426 62.7917 47.9699 63.0317 47.4777 63.2358C47.5498 63.1998 47.6218 63.1758 47.6938 63.1398C47.3457 63.2838 46.9976 63.4279 46.6495 63.5839C46.4094 63.6919 46.1814 63.788 46.0013 63.968C45.5932 64.3521 45.6652 65.0123 46.0853 65.3364C46.3014 65.5045 46.5895 65.5525 46.8416 65.6245C47.2737 65.7566 47.7058 65.9126 48.1259 66.0927C48.0539 66.0566 47.9819 66.0326 47.9099 65.9966C49.0502 66.4888 50.1545 67.101 51.1388 67.8452C51.1628 67.8692 51.1869 67.8812 51.2109 67.9052C51.0068 67.7492 51.0908 67.8212 51.1388 67.8452C51.1989 67.8932 51.2469 67.9292 51.3069 67.9772C51.4149 68.0612 51.523 68.1573 51.619 68.2413C51.799 68.4094 51.9791 68.5774 52.1471 68.7695C52.2312 68.8535 52.3032 68.9495 52.3872 69.0455C52.4232 69.0936 52.4592 69.1416 52.4952 69.1896C52.5312 69.2376 52.5913 69.3216 52.4232 69.1056C52.4473 69.1416 52.4712 69.1656 52.4952 69.2016C52.6393 69.3937 52.7834 69.5977 52.9034 69.8138C53.2155 70.3059 53.4675 70.8341 53.7076 71.3742C53.6716 71.3022 53.6476 71.2302 53.6116 71.1582C54.4758 73.2228 54.8719 75.4435 55.256 77.6401C55.3521 78.2283 55.4601 78.8165 55.5682 79.4047C55.6042 79.6087 55.8082 79.8488 55.9763 79.9448C56.1563 80.0408 56.3484 80.0768 56.5525 80.0528C56.9966 79.9928 57.3207 79.6207 57.3327 79.1646C57.3687 78.1683 57.4047 77.172 57.4407 76.1637C57.4767 75.2034 57.4767 74.2311 57.6088 73.2708C57.5968 73.3548 57.5848 73.4268 57.5728 73.5109C57.6928 72.6826 57.8728 71.8544 58.0889 71.0501C58.1969 70.654 58.317 70.2579 58.437 69.8618C58.545 69.5377 58.6411 69.2016 58.7731 68.8775C58.7371 68.9495 58.7131 69.0215 58.6771 69.0936C58.8451 68.7094 59.0612 68.3493 59.3133 68.0132C59.3493 67.9652 59.3853 67.9172 59.4213 67.8572C59.5053 67.7492 59.2653 68.0492 59.3973 67.8812C59.4813 67.7732 59.5654 67.6771 59.6494 67.5691C59.8054 67.377 59.9735 67.197 60.1415 67.0169C60.5016 66.6448 60.8858 66.2847 61.2819 65.9366C61.3779 65.8526 61.4739 65.7806 61.57 65.6965C61.618 65.6605 61.666 65.6245 61.714 65.5765C61.738 65.5525 61.762 65.5285 61.798 65.5165C61.762 65.5405 61.618 65.6605 61.726 65.5645C61.9181 65.4205 62.1221 65.2764 62.3142 65.1324C62.7103 64.8683 63.1184 64.6162 63.5626 64.4362C63.4905 64.4722 63.4185 64.4962 63.3465 64.5322C63.3825 64.5202 63.4185 64.5082 63.4545 64.4842C63.6706 64.4002 63.8747 64.2801 63.9947 64.076C64.0907 63.896 64.1267 63.7039 64.1027 63.4999C64.0427 63.0558 63.6706 62.7197 63.2145 62.7197C63.0104 62.7197 62.8063 62.7076 62.6143 62.6836C62.6983 62.6956 62.7703 62.7076 62.8544 62.7197C62.4582 62.6596 62.0621 62.5516 61.69 62.3955C61.762 62.4316 61.8341 62.4556 61.9061 62.4916C61.678 62.3956 61.4619 62.2875 61.2578 62.1555C61.1498 62.0955 61.0538 62.0234 60.9458 61.9634C60.8978 61.9274 60.8377 61.8914 60.7897 61.8554C60.7657 61.8434 60.7417 61.8194 60.7177 61.8074C60.7057 61.7954 60.6937 61.7834 60.6817 61.7834C60.5977 61.7113 60.8017 61.8794 60.7897 61.8674C60.3816 61.5313 59.9975 61.1712 59.6374 60.7751C59.5533 60.667 59.4573 60.571 59.3733 60.463C59.3373 60.415 59.2893 60.3549 59.2533 60.3069C59.1573 60.1869 59.3493 60.427 59.3133 60.379C59.2893 60.3429 59.2653 60.3189 59.2413 60.2829C59.0612 60.0548 58.9051 59.8148 58.7371 59.5747C58.401 59.0705 58.1009 58.5424 57.8249 58.0022C57.5008 57.378 57.2007 56.7299 56.9246 56.0817C56.9606 56.1537 56.9846 56.2257 57.0206 56.2977C56.2164 54.3892 55.5921 52.3966 55.076 50.3799C54.956 49.9118 54.8479 49.4557 54.7399 48.9875C54.6319 48.5314 54.0797 48.2193 53.6356 48.3633C53.1794 48.5554 52.9153 49.0115 53.0354 49.5037C53.2875 50.596 53.5636 51.6883 53.8876 52.7687C54.2598 54.029 54.6919 55.2894 55.1841 56.5138C55.7122 57.7982 56.3004 59.0705 57.0446 60.2469C57.7048 61.3032 58.497 62.3355 59.4693 63.1158C59.9375 63.4879 60.4296 63.836 60.9818 64.076C61.594 64.3401 62.1942 64.5082 62.8664 64.5682C62.9984 64.5802 63.1304 64.5802 63.2505 64.5802C63.1664 63.992 63.0944 63.4038 63.0104 62.8157C62.0261 63.1998 61.1738 63.8 60.3576 64.4602C59.5413 65.1204 58.7731 65.8646 58.125 66.6928C57.8009 67.101 57.5007 67.5091 57.2607 67.9772C56.9846 68.5294 56.8046 69.1296 56.6245 69.7177C56.1924 71.1462 55.8442 72.5986 55.7362 74.0871C55.6762 74.9273 55.6642 75.7796 55.6402 76.6198C55.6162 77.4841 55.5801 78.3363 55.5561 79.2006C56.1443 79.1166 56.7325 79.0445 57.3207 78.9605C56.8886 76.5718 56.5644 74.1471 55.7962 71.8424C55.4001 70.678 54.908 69.5137 54.1877 68.5054C53.8276 67.9892 53.4195 67.5091 52.9634 67.077C52.4352 66.5968 51.847 66.1647 51.2469 65.7806C50.5867 65.3484 49.8905 64.9643 49.1703 64.6402C48.7621 64.4482 48.342 64.2801 47.9099 64.1241C47.5618 64.004 47.2136 63.908 46.8655 63.8C46.9376 63.836 47.0096 63.86 47.0816 63.896C47.1897 64.004 47.2857 64.1001 47.3937 64.2081C47.4297 64.2801 47.4537 64.3521 47.4898 64.4242C47.5018 64.5082 47.5137 64.5802 47.5257 64.6642C47.5137 64.7483 47.5018 64.8203 47.4898 64.9043C47.4537 64.9763 47.4297 65.0483 47.3937 65.1204C47.3217 65.2284 47.2257 65.3604 47.1176 65.4084C47.1416 65.3964 47.1536 65.3844 47.1776 65.3724C47.2377 65.3364 47.2977 65.3124 47.3577 65.2764C47.5258 65.1924 47.7058 65.1204 47.8858 65.0483C47.8138 65.0843 47.7418 65.1084 47.6698 65.1444C48.162 64.9403 48.6661 64.7362 49.1462 64.4842C49.6984 64.1961 50.2145 63.86 50.7067 63.4879C51.751 62.6836 52.6513 61.7354 53.3595 60.631C54.7279 58.5304 55.3281 55.9856 55.3401 53.5009C55.3401 52.0124 55.136 50.512 54.7759 49.0716C54.6559 48.6154 54.1277 48.2913 53.6716 48.4474C53.1915 48.5554 52.9033 49.0115 53.0354 49.5037Z" fill="white"/>
<path d="M65.1955 17.6581C65.2915 18.1022 65.3755 18.5464 65.4476 18.9905C65.4836 19.2066 65.5196 19.4346 65.5556 19.6627C65.5676 19.7347 65.6276 20.0708 65.5795 19.8068C65.6036 19.9388 65.6156 20.0708 65.6276 20.1909C65.7356 21.1031 65.8197 22.0274 65.8677 22.9517C65.9637 24.8122 65.9517 26.6848 65.8196 28.5334C65.7836 28.9895 65.7476 29.4456 65.7116 29.9138C65.6876 30.1178 65.6756 30.3339 65.6516 30.538C65.6396 30.634 65.6276 30.73 65.6156 30.8381C65.6156 30.8861 65.6036 30.9341 65.6036 30.9701C65.5916 31.0421 65.6036 31.0061 65.6156 30.8621C65.6156 30.8981 65.6036 30.9341 65.6036 30.9701C65.4955 31.7383 65.3275 32.4945 65.1234 33.2388C65.0154 33.6109 64.8954 33.983 64.7633 34.3431C64.6913 34.5232 64.6313 34.7032 64.5592 34.8833C64.5472 34.9313 64.5232 34.9673 64.5112 35.0153C64.5833 34.7872 64.5473 34.9193 64.5233 34.9793C64.4752 35.0753 64.4392 35.1834 64.3912 35.2794C64.0671 35.9876 63.695 36.6598 63.2509 37.308C63.1308 37.488 62.9988 37.6681 62.8668 37.8362C62.8308 37.8842 62.7587 37.9442 62.9028 37.7881C62.8668 37.8362 62.8187 37.8842 62.7827 37.9322C62.7107 38.0162 62.6507 38.1002 62.5786 38.1843C62.3026 38.5084 62.0145 38.8084 61.7024 39.1085C61.5464 39.2526 61.3903 39.3966 61.2223 39.5407C61.1382 39.6127 61.0422 39.6727 60.9702 39.7447C61.1262 39.5887 61.0662 39.6727 61.0062 39.7207C60.9582 39.7567 60.9102 39.7927 60.8501 39.8288C60.502 40.0808 60.13 40.3209 59.7458 40.525C59.4097 40.705 59.2176 41.1732 59.3377 41.5453C59.3857 41.6893 59.4578 41.8333 59.5658 41.9414C59.6978 42.0854 59.9979 42.2295 60.202 42.2055C61.0062 42.1094 61.8105 42.0614 62.6147 42.0854C63.0108 42.0974 63.3949 42.1214 63.791 42.1575C63.8871 42.1695 63.9951 42.1815 64.0911 42.1935C64.1631 42.2055 64.5232 42.2535 64.2112 42.2055C64.4152 42.2415 64.6193 42.2655 64.8233 42.3015C65.6036 42.4335 66.3838 42.6256 67.14 42.8657C67.5241 42.9857 67.9082 43.1177 68.2804 43.2738C68.3644 43.3098 68.4364 43.3338 68.5204 43.3698C68.5684 43.3938 68.6165 43.4058 68.6645 43.4298C68.4124 43.3338 68.5805 43.3938 68.6405 43.4178C68.8325 43.5019 69.0126 43.5859 69.2047 43.6699C69.9369 44.018 70.6451 44.4021 71.3173 44.8343C71.6534 45.0503 71.9775 45.2664 72.2896 45.5065C72.3736 45.5665 72.4576 45.6265 72.5416 45.6865C72.5776 45.7225 72.6257 45.7465 72.6617 45.7825C72.4696 45.6385 72.5536 45.6985 72.6017 45.7345C72.7817 45.8786 72.9498 46.0106 73.1178 46.1547C73.718 46.6588 74.2942 47.211 74.8223 47.7871C75.0984 48.0872 75.3625 48.3993 75.6266 48.7234C75.6746 48.7954 75.7346 48.8555 75.7826 48.9275C75.5906 48.6994 75.8186 48.9755 75.8546 49.0355C75.9747 49.2036 76.0947 49.3716 76.2148 49.5397C76.7189 50.2719 77.1751 51.0401 77.5592 51.8323C77.6552 52.0364 77.7512 52.2405 77.8352 52.4325C77.9073 52.6006 77.7512 52.2285 77.8232 52.4085C77.8472 52.4685 77.8712 52.5406 77.8953 52.6006C77.9313 52.6966 77.9673 52.7926 78.0033 52.8887C78.1713 53.3208 78.3154 53.7649 78.4354 54.2091C78.5675 54.6652 79.0836 54.9893 79.5398 54.8332C79.7558 54.7612 79.9719 54.6292 80.0799 54.4251C80.2 54.1971 80.212 53.981 80.1759 53.7289C80.1759 53.7169 80.1399 53.4888 80.1639 53.6329C80.1879 53.7769 80.152 53.5609 80.152 53.5489C80.14 53.4648 80.1279 53.3808 80.1159 53.2968C80.0919 53.1047 80.0679 52.9127 80.0559 52.7206C80.0319 52.4205 80.0079 52.1204 79.9959 51.8204C79.9839 51.3522 79.9959 50.8721 79.9839 50.4039C79.9839 49.8157 79.9479 49.2396 79.8879 48.6514C79.8399 48.2073 79.7798 47.7631 79.7198 47.319C79.6838 47.0549 79.6478 46.7908 79.6118 46.5148C79.5998 46.4667 79.5998 46.4187 79.5878 46.3707C79.5518 46.1426 79.6118 46.5148 79.5878 46.3707C79.5758 46.2387 79.5518 46.1186 79.5398 45.9866C79.4317 45.1343 79.3357 44.2701 79.3117 43.4058C79.2997 42.9617 79.2997 42.5296 79.3357 42.0854C79.3477 41.8814 79.3597 41.6653 79.3957 41.4612C79.3477 41.7133 79.4197 41.3412 79.4197 41.2932C79.4437 41.1732 79.4557 41.0651 79.4798 40.9451C79.5518 40.573 79.6598 40.2129 79.7798 39.8648C79.8279 39.7087 79.8879 39.5527 79.9479 39.3966C79.9719 39.3246 79.9959 39.2526 80.0319 39.1926C80.0439 39.1446 80.0679 39.1085 80.0799 39.0605C80.164 38.8685 80.0439 39.1566 80.0799 39.0725C80.368 38.4363 80.6921 37.8242 81.0762 37.248C81.1842 37.0919 81.3403 36.9239 81.4363 36.7558C81.4243 36.7678 81.3043 36.9239 81.4003 36.8038C81.4363 36.7558 81.4723 36.7198 81.5084 36.6718C81.5684 36.5998 81.6284 36.5278 81.6884 36.4557C81.9405 36.1677 82.2046 35.8916 82.4927 35.6275C82.6367 35.4954 82.7927 35.3634 82.9488 35.2314C83.0688 35.1354 82.9128 35.2674 82.9008 35.2674C82.9488 35.2434 82.9848 35.1954 83.0328 35.1714C83.1169 35.1113 83.2009 35.0513 83.2729 34.9913C83.597 34.7632 83.9331 34.5712 84.2932 34.3911C84.6293 34.2231 84.8214 33.7309 84.7013 33.3708C84.5693 32.9747 84.2452 32.7346 83.837 32.7106C83.4169 32.6866 82.9968 32.6506 82.5767 32.6026C82.4806 32.5906 82.3846 32.5786 82.2886 32.5666C82.2406 32.5666 82.1925 32.5426 82.1445 32.5426C82.3846 32.5306 82.2286 32.5546 82.1565 32.5426C81.9405 32.5066 81.7244 32.4825 81.5204 32.4465C80.7041 32.3025 79.8999 32.1224 79.1196 31.8944C78.7235 31.7743 78.3394 31.6543 77.9553 31.5103C77.7752 31.4382 77.5952 31.3782 77.4031 31.3062C77.3791 31.2942 77.127 31.1982 77.127 31.1982C77.163 31.2102 77.199 31.2342 77.2351 31.2462C77.199 31.2342 77.163 31.2102 77.127 31.1982C77.079 31.1742 77.019 31.1501 76.971 31.1261C76.2148 30.79 75.4946 30.4059 74.7984 29.9618C74.4502 29.7337 74.1021 29.5057 73.778 29.2536C73.742 29.2296 73.718 29.2056 73.682 29.1816C73.718 29.2176 73.886 29.3256 73.682 29.1816C73.61 29.1215 73.5259 29.0615 73.4539 29.0015C73.2859 28.8695 73.1298 28.7254 72.9738 28.5814C72.6737 28.3053 72.3736 28.0172 72.0975 27.7171C71.8095 27.405 71.5573 27.0689 71.2813 26.7568C71.4493 26.9489 71.2453 26.7088 71.2093 26.6488C71.1493 26.5648 71.0892 26.4928 71.0292 26.4087C70.8972 26.2287 70.7771 26.0486 70.6571 25.8686C70.417 25.5085 70.201 25.1363 69.9849 24.7642C69.5648 24.02 69.1927 23.2518 68.8446 22.4595C68.8325 22.4235 68.8086 22.3875 68.7965 22.3515C68.7845 22.3155 68.7606 22.2795 68.7485 22.2435C68.7966 22.3635 68.8085 22.3755 68.7725 22.2915C68.7245 22.1835 68.6765 22.0634 68.6285 21.9554C68.5445 21.7393 68.4604 21.5233 68.3764 21.3072C68.2084 20.8631 68.0403 20.4069 67.8843 19.9628C67.5602 19.0385 67.2601 18.1142 66.96 17.19C66.8159 16.7458 66.3238 16.4097 65.8557 16.5658C65.3755 16.6978 65.0394 17.178 65.1955 17.6581C66.2758 21.0311 67.4041 24.5122 69.5048 27.405C70.5731 28.8815 71.8575 30.1538 73.3699 31.1982C74.7984 32.1825 76.3948 32.9267 78.0393 33.4668C79.9119 34.079 81.8684 34.4151 83.837 34.5232C83.681 33.959 83.537 33.4068 83.3809 32.8427C80.6561 34.1991 78.7596 36.8999 77.9313 39.7927C77.4272 41.5573 77.4511 43.3938 77.6552 45.1944C77.7152 45.6985 77.7752 46.1907 77.8473 46.6948C77.8593 46.8149 77.8833 46.9229 77.8953 47.0429C77.9073 47.0909 77.9073 47.139 77.9193 47.187C77.9553 47.415 77.8953 47.0429 77.9193 47.199C77.9553 47.427 77.9793 47.6671 78.0153 47.8952C78.0993 48.6034 78.1833 49.3116 78.1953 50.0198C78.2073 50.56 78.1954 51.1001 78.2074 51.6403C78.2314 52.4925 78.3274 53.3448 78.4474 54.1971C79.0236 54.041 79.5998 53.873 80.188 53.7169C79.2637 50.4519 77.3431 47.4991 74.8223 45.2544C72.3016 42.9977 69.1807 41.3532 65.8677 40.669C64.0191 40.2849 62.0986 40.1649 60.226 40.4049C60.382 40.9691 60.5261 41.5213 60.6821 42.0854C63.635 40.4649 65.6276 37.5481 66.6719 34.4031C67.2121 32.7706 67.4521 31.0781 67.5842 29.3616C67.7402 27.465 67.7882 25.5685 67.7162 23.6719C67.6322 21.4993 67.4041 19.3266 66.96 17.202C66.8639 16.7458 66.2998 16.4337 65.8557 16.5778C65.3395 16.7098 65.0994 17.166 65.1955 17.6581Z" fill="white"/>
</svg>
