<svg width="48" height="44" viewBox="0 0 48 44" fill="none" xmlns="http://www.w3.org/2000/svg">
<g id="Group 1000004154">
<path id="Vector" d="M15.6772 40.5139H40.8684C41.982 40.5139 43.0499 40.0719 43.8373 39.2851C44.6246 38.4982 45.067 37.431 45.067 36.3183V32.1227H19.8757V36.3183C19.8757 37.431 19.4334 38.4982 18.646 39.2851C17.8586 40.0719 16.7907 40.5139 15.6772 40.5139ZM15.6772 40.5139C14.5637 40.5139 13.4957 40.0719 12.7084 39.2851C11.921 38.4982 11.4786 37.431 11.4786 36.3183V6.94887C11.4786 5.83612 11.0363 4.76894 10.2489 3.98211C9.46153 3.19527 8.39361 2.75323 7.28009 2.75323C6.16656 2.75323 5.09865 3.19527 4.31127 3.98211C3.52389 4.76894 3.08154 5.83612 3.08154 6.94887V13.2423H11.4786" stroke="white" stroke-width="5" stroke-linecap="round" stroke-linejoin="round"/>
<path id="Vector_2" d="M38.7689 32.1226V6.94881C38.7689 5.83606 38.3265 4.76888 37.5392 3.98205C36.7518 3.19521 35.6839 2.75317 34.5703 2.75317H7.27979" stroke="white" stroke-width="5" stroke-linecap="round" stroke-linejoin="round"/>
<path id="Vector_3" d="M30.3719 13.2423H19.8755" stroke="white" stroke-width="5" stroke-linecap="round" stroke-linejoin="round"/>
<path id="Vector_4" d="M30.3719 21.6335H19.8755" stroke="white" stroke-width="5" stroke-linecap="round" stroke-linejoin="round"/>
</g>
</svg>
