<svg width="216" height="219" viewBox="0 0 216 219" fill="none" xmlns="http://www.w3.org/2000/svg">
<g opacity="0.4">
<path d="M104.686 47.2822L104.584 47.1154L104.452 46.9715C103.673 46.125 103.008 45.4631 102.372 44.8303L102.364 44.8222L102.356 44.8143L102.348 44.8065C101.249 43.7378 100.148 42.6582 99.0444 41.5749C96.268 38.8504 93.4679 36.1027 90.6026 33.4462C89.9875 32.8758 89.6351 32.3608 89.424 31.8464C89.2107 31.3266 89.0946 30.6929 89.1091 29.8213C89.1574 26.9313 89.1781 24.066 89.1988 21.1988C89.2289 17.0363 89.259 12.8697 89.3734 8.61788C93.448 8.44981 97.3615 8.41481 101.277 8.48003C102.134 8.49432 103.459 8.41455 104.417 7.47815C105.124 6.78619 105.346 5.93458 105.357 5.14599C105.608 4.89606 105.846 4.65468 106.076 4.42166C106.986 3.4977 107.766 2.70546 108.723 2.03492C108.729 2.03336 108.736 2.03168 108.744 2.02992C108.83 2.01141 108.96 1.9972 109.113 2.00047C109.266 2.00372 109.4 2.02344 109.495 2.04761C109.517 2.05331 109.534 2.0584 109.547 2.06237C110.565 2.79653 111.41 3.72873 112.505 4.93546C112.685 5.13386 112.871 5.33968 113.067 5.55326C113.225 6.46927 113.648 7.34861 114.559 7.91748C115.456 8.47826 116.504 8.46867 116.97 8.46439C116.993 8.46419 117.014 8.464 117.033 8.46388C120.353 8.44408 123.641 8.45218 126.923 8.58944C126.918 17.0518 126.904 25.3396 126.889 33.623C121.646 38.9234 116.395 44.2325 110.944 49.758C110.305 49.8816 109.682 50.0014 109.139 50.0705C109.104 50.075 109.071 50.079 109.039 50.0828C108.186 49.0211 107.085 48.5373 106.329 48.2266C105.22 47.7708 104.965 47.6651 104.788 47.4367L104.787 47.4351C104.782 47.4291 104.776 47.4199 104.768 47.4082C104.746 47.3765 104.716 47.3318 104.686 47.2822ZM108.686 2.04561C108.686 2.04557 108.687 2.04494 108.691 2.04384C108.687 2.0451 108.686 2.04565 108.686 2.04561ZM104.792 47.443C104.793 47.4431 104.793 47.4431 104.792 47.4428L104.792 47.443Z" stroke="#C5B58D" stroke-width="4"/>
<path d="M61.5622 68.4291L61.3739 68.3766L61.179 68.3615C60.0325 68.2731 59.0943 68.243 58.1974 68.2141L58.186 68.2138L58.1748 68.2134L58.1636 68.2132C56.6309 68.1811 55.09 68.1418 53.5438 68.1024C49.6553 68.0034 45.7334 67.9035 41.8262 67.9147C40.9873 67.9172 40.3784 67.7808 39.8732 67.5486C39.3626 67.3139 38.8455 66.9296 38.2617 66.2822C36.3261 64.1357 34.3871 62.0261 32.4468 59.915C29.63 56.8502 26.8104 53.7824 23.9944 50.5948C26.8597 47.693 29.6979 44.9985 32.6058 42.376C33.2428 41.8015 34.1575 40.8395 34.2191 39.5017C34.2646 38.5131 33.8457 37.7393 33.3165 37.1545C33.3296 36.8006 33.3389 36.4619 33.3478 36.135C33.3833 34.8385 33.4137 33.727 33.6558 32.5843C33.6595 32.5788 33.6636 32.5726 33.6684 32.5657C33.7187 32.4935 33.8036 32.3949 33.918 32.2927C34.0319 32.1909 34.1436 32.1137 34.2295 32.0667C34.2497 32.0556 34.2656 32.0477 34.2772 32.0424C35.5225 31.8849 36.7766 31.9901 38.4 32.1262C38.667 32.1486 38.9439 32.1718 39.2323 32.1948C39.9731 32.7566 40.8819 33.1114 41.9359 32.9064C42.9749 32.7042 43.7344 31.9829 44.0727 31.6616C44.0889 31.6462 44.1041 31.6317 44.1184 31.6183C46.5326 29.3399 48.943 27.1033 51.4367 24.9655C57.2043 31.1579 62.8464 37.2288 68.4852 43.2966C68.2653 50.7491 68.0455 58.2134 67.8277 65.9715C67.4441 66.4982 67.0707 67.0102 66.7209 67.431C66.6984 67.4581 66.6767 67.4839 66.6558 67.5084C65.3077 67.3139 64.1728 67.7108 63.408 67.9992C62.2858 68.4223 62.0273 68.5188 61.7422 68.4724L61.7402 68.472C61.733 68.4706 61.722 68.4683 61.7081 68.4652C61.6704 68.457 61.6181 68.4446 61.5622 68.4291ZM33.6362 32.6172C33.6362 32.6172 33.6369 32.6156 33.6385 32.6126C33.6371 32.6157 33.6363 32.6172 33.6362 32.6172ZM61.7497 68.4739C61.75 68.474 61.7499 68.4739 61.7496 68.4739L61.7497 68.4739Z" stroke="#C5B58D" stroke-width="4"/>
<path d="M47.5818 109.766L47.4132 109.865L47.267 109.994C46.4071 110.758 45.7336 111.411 45.0898 112.037L45.0816 112.045L45.0736 112.052L45.0656 112.06C43.9779 113.141 42.8793 114.222 41.7768 115.307C39.0044 118.035 36.2082 120.787 33.502 123.605C32.9211 124.21 32.4 124.554 31.882 124.756C31.3586 124.96 30.7229 125.065 29.8516 125.035C26.963 124.936 24.0985 124.866 21.232 124.795C17.0707 124.692 12.9053 124.589 8.65611 124.401C8.55917 120.324 8.59248 116.41 8.72602 112.497C8.75527 111.64 8.69864 110.313 7.77909 109.34C7.09958 108.62 6.25196 108.384 5.46371 108.359C5.21819 108.103 4.98099 107.861 4.75202 107.628C3.84408 106.702 3.06559 105.908 2.41184 104.94C2.41039 104.933 2.40883 104.926 2.40722 104.918C2.39021 104.832 2.37827 104.702 2.38421 104.549C2.39013 104.396 2.41218 104.262 2.43801 104.168C2.4441 104.145 2.44949 104.128 2.45366 104.116C3.20548 103.111 4.1523 102.282 5.37794 101.209C5.57945 101.032 5.7885 100.849 6.00546 100.658C6.92409 100.515 7.81068 100.108 8.39536 99.2074C8.97171 98.3195 8.9804 97.2721 8.98427 96.8056C8.98446 96.7833 8.98463 96.7623 8.98486 96.7427C9.02299 93.4234 9.08848 90.1358 9.283 86.8568C17.744 87.0096 26.0303 87.1682 34.3122 87.327C39.5203 92.6622 44.7369 98.0055 50.1664 103.551C50.2788 104.193 50.3877 104.817 50.4474 105.361C50.4512 105.396 50.4547 105.43 50.4579 105.462C49.3815 106.297 48.8786 107.389 48.5547 108.139C48.0796 109.24 47.9695 109.493 47.738 109.666L47.7364 109.667C47.7303 109.672 47.7211 109.678 47.7092 109.686C47.6771 109.707 47.6319 109.736 47.5818 109.766ZM2.42189 104.977C2.42184 104.977 2.42124 104.975 2.4202 104.972C2.42141 104.975 2.42193 104.977 2.42189 104.977ZM47.7444 109.662C47.7446 109.662 47.7445 109.662 47.7442 109.662L47.7444 109.662Z" stroke="#C5B58D" stroke-width="4"/>
<path d="M67.8331 154.047L67.7774 154.234L67.7589 154.429C67.6505 155.573 67.604 156.511 67.5595 157.407L67.5589 157.419L67.5584 157.43L67.5579 157.441C67.4991 158.973 67.433 160.513 67.3666 162.058C67.1997 165.944 67.0313 169.864 66.9744 173.771C66.9622 174.609 66.8152 175.216 66.5743 175.717C66.3307 176.223 65.9374 176.734 65.28 177.306C63.1 179.204 60.9568 181.106 58.8122 183.009C55.6987 185.772 52.5822 188.537 49.3459 191.297C46.4946 188.382 43.85 185.497 41.2787 182.544C40.7154 181.897 39.7695 180.966 38.433 180.881C37.4454 180.818 36.6643 181.223 36.0704 181.742C35.7168 181.723 35.3783 181.708 35.0515 181.693C33.7559 181.635 32.645 181.585 31.5067 181.323C31.5013 181.319 31.4952 181.315 31.4884 181.31C31.4171 181.259 31.32 181.172 31.2198 181.056C31.12 180.94 31.0448 180.827 30.9993 180.741C30.9885 180.72 30.9809 180.704 30.9758 180.692C30.8401 179.445 30.9671 178.192 31.1316 176.572C31.1586 176.305 31.1866 176.029 31.2147 175.741C31.7893 175.01 32.16 174.107 31.9733 173.05C31.7893 172.008 31.0814 171.236 30.766 170.892C30.7509 170.875 30.7367 170.86 30.7235 170.845C28.4876 168.392 26.2934 165.943 24.1994 163.412C30.4916 157.753 36.66 152.218 42.8253 146.686C50.2728 147.036 57.7321 147.386 65.4853 147.739C66.0052 148.132 66.5106 148.514 66.9252 148.871C66.9519 148.894 66.9773 148.916 67.0015 148.938C66.7835 150.282 67.1605 151.424 67.4355 152.194C67.839 153.323 67.931 153.583 67.8796 153.867L67.8792 153.869C67.8776 153.877 67.8751 153.887 67.8718 153.901C67.8629 153.939 67.8497 153.991 67.8331 154.047ZM31.5393 181.343C31.5393 181.343 31.5378 181.343 31.5348 181.341C31.5378 181.342 31.5393 181.343 31.5393 181.343ZM67.8812 153.86C67.8813 153.86 67.8813 153.86 67.8812 153.86L67.8812 153.86Z" stroke="#C5B58D" stroke-width="4"/>
<path d="M110.763 169.924L110.87 170.088L111.008 170.227C111.815 171.046 112.503 171.684 113.161 172.294L113.17 172.302L113.178 172.31L113.186 172.317C114.322 173.347 115.459 174.387 116.6 175.431C119.47 178.057 122.364 180.706 125.32 183.261C125.955 183.809 126.325 184.312 126.554 184.818C126.785 185.33 126.923 185.96 126.939 186.831C126.992 189.721 127.071 192.585 127.151 195.452C127.266 199.613 127.381 203.778 127.415 208.031C123.349 208.341 119.439 208.513 115.524 208.584C114.666 208.6 113.345 208.726 112.421 209.695C111.738 210.411 111.546 211.27 111.562 212.058C111.32 212.317 111.091 212.567 110.87 212.807C109.992 213.763 109.24 214.582 108.308 215.285C108.301 215.287 108.294 215.289 108.286 215.291C108.201 215.312 108.072 215.331 107.919 215.333C107.766 215.335 107.631 215.32 107.535 215.299C107.513 215.294 107.495 215.29 107.483 215.286C106.44 214.588 105.563 213.686 104.427 212.518C104.24 212.326 104.046 212.127 103.843 211.921C103.653 211.011 103.2 210.147 102.27 209.61C101.353 209.081 100.307 209.127 99.8406 209.147C99.8183 209.148 99.7973 209.149 99.7777 209.15C96.461 209.286 93.1744 209.392 89.8898 209.37C89.5996 200.912 89.3243 192.629 89.0495 184.35C94.1047 178.87 99.1677 173.381 104.422 167.669C105.057 167.523 105.675 167.381 106.215 167.293C106.249 167.288 106.283 167.282 106.315 167.278C107.204 168.309 108.321 168.754 109.088 169.038C110.212 169.455 110.471 169.552 110.655 169.774L110.657 169.775C110.661 169.781 110.668 169.79 110.676 169.801C110.699 169.832 110.731 169.876 110.763 169.924ZM108.344 215.273C108.344 215.273 108.343 215.274 108.339 215.275C108.342 215.274 108.344 215.273 108.344 215.273ZM110.651 169.768C110.65 169.767 110.651 169.767 110.651 169.768L110.651 169.768Z" stroke="#C5B58D" stroke-width="4"/>
<path d="M154.438 69.4117L154.627 69.3592L154.822 69.3442C155.968 69.2558 156.906 69.2256 157.803 69.1968L157.814 69.1964L157.826 69.1961L157.837 69.1958C159.37 69.1637 160.91 69.1245 162.457 69.0851C166.345 68.986 170.267 68.8861 174.174 68.8974C175.013 68.8998 175.622 68.7635 176.127 68.5313C176.638 68.2966 177.155 67.9123 177.739 67.2649C179.674 65.1184 181.613 63.0087 183.554 60.8976C186.371 57.8328 189.19 54.7651 192.006 51.5775C189.141 48.6757 186.303 45.9811 183.395 43.3587C182.758 42.7842 181.843 41.8221 181.781 40.4844C181.736 39.4958 182.155 38.722 182.684 38.1372C182.671 37.7833 182.662 37.4446 182.653 37.1176C182.617 35.8212 182.587 34.7096 182.345 33.5669C182.341 33.5614 182.337 33.5552 182.332 33.5484C182.282 33.4762 182.197 33.3775 182.083 33.2754C181.969 33.1735 181.857 33.0964 181.771 33.0493C181.751 33.0382 181.735 33.0304 181.723 33.0251C180.478 32.8676 179.224 32.9728 177.6 33.1089C177.334 33.1312 177.057 33.1545 176.768 33.1775C176.027 33.7392 175.119 34.0941 174.065 33.889C173.026 33.6869 172.266 32.9655 171.928 32.6443C171.912 32.6289 171.896 32.6144 171.882 32.601C169.468 30.3226 167.058 28.0859 164.564 25.9481C158.796 32.1406 153.154 38.2114 147.515 44.2793C147.735 51.7317 147.955 59.196 148.173 66.9542C148.556 67.4808 148.93 67.9929 149.28 68.4136C149.302 68.4407 149.324 68.4665 149.345 68.4911C150.693 68.2966 151.828 68.6934 152.593 68.9818C153.715 69.405 153.973 69.5015 154.258 69.4551L154.26 69.4547C154.268 69.4532 154.278 69.451 154.292 69.4479C154.33 69.4397 154.382 69.4273 154.438 69.4117ZM182.364 33.5998C182.364 33.5998 182.364 33.5983 182.362 33.5953C182.363 33.5983 182.364 33.5998 182.364 33.5998ZM154.251 69.4566C154.251 69.4566 154.251 69.4566 154.251 69.4566L154.251 69.4566Z" stroke="#C5B58D" stroke-width="4"/>
<path d="M168.418 110.748L168.587 110.847L168.733 110.977C169.593 111.74 170.266 112.394 170.91 113.02L170.918 113.028L170.926 113.035L170.934 113.043C172.022 114.123 173.121 115.205 174.223 116.289C176.995 119.018 179.792 121.77 182.498 124.588C183.079 125.193 183.6 125.536 184.118 125.739C184.641 125.943 185.277 126.048 186.148 126.018C189.037 125.919 191.901 125.849 194.768 125.778C198.929 125.675 203.094 125.572 207.344 125.384C207.441 121.307 207.407 117.393 207.274 113.48C207.244 112.623 207.301 111.296 208.221 110.323C208.9 109.603 209.748 109.367 210.536 109.342C210.782 109.086 211.019 108.844 211.248 108.611C212.156 107.685 212.934 106.891 213.588 105.923C213.589 105.916 213.591 105.909 213.593 105.901C213.61 105.814 213.621 105.685 213.616 105.532C213.61 105.379 213.588 105.245 213.562 105.151C213.556 105.128 213.55 105.111 213.546 105.099C212.794 104.094 211.847 103.265 210.622 102.192C210.42 102.015 210.211 101.832 209.994 101.641C209.076 101.498 208.189 101.091 207.604 100.19C207.028 99.3024 207.019 98.255 207.015 97.7885C207.015 97.7662 207.015 97.7452 207.015 97.7256C206.977 94.4063 206.911 91.1187 206.717 87.8397C198.256 87.9925 189.969 88.1511 181.688 88.31C176.479 93.6451 171.263 98.9884 165.833 104.534C165.721 105.176 165.612 105.8 165.552 106.344C165.549 106.379 165.545 106.413 165.542 106.445C166.618 107.28 167.121 108.372 167.445 109.122C167.92 110.223 168.03 110.476 168.262 110.649L168.263 110.65C168.269 110.654 168.279 110.661 168.291 110.669C168.323 110.69 168.368 110.719 168.418 110.748ZM213.578 105.96C213.578 105.96 213.579 105.958 213.58 105.955C213.578 105.958 213.578 105.96 213.578 105.96ZM168.255 110.645C168.255 110.645 168.255 110.645 168.256 110.645L168.255 110.645Z" stroke="#C5B58D" stroke-width="4"/>
<path d="M148.166 155.03L148.222 155.217L148.24 155.412C148.349 156.556 148.395 157.494 148.44 158.39L148.44 158.402L148.441 158.413L148.441 158.424C148.5 159.956 148.566 161.496 148.632 163.041C148.799 166.927 148.968 170.847 149.025 174.754C149.037 175.593 149.184 176.199 149.425 176.7C149.668 177.206 150.062 177.717 150.719 178.289C152.899 180.187 155.042 182.089 157.187 183.992C160.3 186.755 163.417 189.521 166.653 192.281C169.504 189.365 172.149 186.48 174.72 183.527C175.284 182.88 176.23 181.949 177.566 181.864C178.554 181.801 179.335 182.206 179.929 182.725C180.282 182.706 180.621 182.691 180.947 182.676C182.243 182.618 183.354 182.568 184.492 182.306C184.498 182.303 184.504 182.298 184.511 182.293C184.582 182.242 184.679 182.155 184.779 182.039C184.879 181.923 184.954 181.81 185 181.724C185.011 181.703 185.018 181.687 185.023 181.676C185.159 180.428 185.032 179.176 184.867 177.555C184.84 177.288 184.812 177.012 184.784 176.724C184.21 175.993 183.839 175.091 184.026 174.033C184.21 172.991 184.918 172.219 185.233 171.875C185.248 171.858 185.262 171.843 185.276 171.828C187.511 169.375 189.706 166.926 191.8 164.395C185.507 158.736 179.339 153.201 173.174 147.669C165.726 148.019 158.267 148.369 150.514 148.722C149.994 149.115 149.488 149.497 149.074 149.854C149.047 149.877 149.022 149.9 148.998 149.921C149.215 151.265 148.839 152.407 148.564 153.177C148.16 154.306 148.068 154.566 148.119 154.851L148.12 154.852C148.121 154.86 148.124 154.871 148.127 154.885C148.136 154.922 148.149 154.974 148.166 155.03ZM184.46 182.326C184.46 182.327 184.461 182.326 184.464 182.324C184.461 182.326 184.46 182.326 184.46 182.326ZM148.118 154.843C148.118 154.843 148.118 154.843 148.118 154.843L148.118 154.843Z" stroke="#C5B58D" stroke-width="4"/>
<path d="M115.055 87.9649L115.546 88.3947L116.197 88.4517L125.433 89.2609L126.219 98.8896L126.269 99.5086L126.661 99.9901L132.699 107.401L126.661 114.812L126.269 115.294L126.219 115.913L125.433 125.542L116.197 126.351L115.546 126.408L115.055 126.838L107.999 133.008L100.942 126.838L100.451 126.408L99.8004 126.351L90.5643 125.542L89.7784 115.913L89.7278 115.294L89.3356 114.812L83.2977 107.401L89.3356 99.9901L89.7278 99.5086L89.7784 98.8896L90.5643 89.2609L99.8004 88.4517L100.451 88.3947L100.942 87.9649L107.999 81.7945L115.055 87.9649Z" stroke="#C5B58D" stroke-width="4"/>
<path d="M124.195 149.762L124.281 150.958L123.391 150.154L124.195 149.762Z" stroke="#C5B58D" stroke-width="4"/>
<path d="M149.411 91.4839L150.609 91.4187L149.789 92.294L149.411 91.4839Z" stroke="#C5B58D" stroke-width="4"/>
<path d="M123.443 66.3334L124.4 65.6097L124.21 66.7938L123.443 66.3334Z" stroke="#C5B58D" stroke-width="4"/>
<path d="M149.743 125.56L150.563 126.436L149.366 126.37L149.743 125.56Z" stroke="#C5B58D" stroke-width="4"/>
<path d="M90.5093 67.0508L90.4231 65.8547L91.3127 66.659L90.5093 67.0508Z" stroke="#C5B58D" stroke-width="4"/>
<path d="M65.2931 125.328L64.0957 125.394L64.9153 124.518L65.2931 125.328Z" stroke="#C5B58D" stroke-width="4"/>
<path d="M91.2612 150.479L90.3049 151.203L90.495 150.019L91.2612 150.479Z" stroke="#C5B58D" stroke-width="4"/>
<path d="M64.9606 91.2517L64.141 90.3764L65.3384 90.4416L64.9606 91.2517Z" stroke="#C5B58D" stroke-width="4"/>
</g>
</svg>
