<svg width="220" height="255" viewBox="0 0 220 255" fill="none" xmlns="http://www.w3.org/2000/svg">
<path d="M198.858 66.119L198.841 66.0924L198.808 66.0564C198.697 65.9357 198.602 65.8412 198.515 65.754L198.513 65.7521L198.513 65.7521L198.509 65.7482C198.358 65.602 198.207 65.4537 198.055 65.3045C197.671 64.9271 197.28 64.5438 196.882 64.1743C196.816 64.1132 196.788 64.0679 196.774 64.0323C196.758 63.9954 196.745 63.9395 196.747 63.841C196.753 63.437 196.756 63.0391 196.759 62.6423C196.763 62.1377 196.766 61.6347 196.778 61.1223C197.262 61.106 197.731 61.1033 198.201 61.1112C198.326 61.1133 198.593 61.1067 198.795 60.909C198.916 60.7909 198.968 60.6539 198.985 60.527C199.006 60.5063 199.025 60.4864 199.044 60.4673C199.133 60.3763 199.206 60.3026 199.287 60.2367C199.378 60.3134 199.463 60.4075 199.581 60.5365C199.596 60.5537 199.612 60.5715 199.629 60.5899C199.668 60.7399 199.752 60.8935 199.922 60.9995C200.105 61.1135 200.311 61.1101 200.374 61.1091C200.378 61.109 200.381 61.109 200.384 61.109C200.769 61.1067 201.149 61.1071 201.526 61.1185C201.525 62.1821 201.523 63.2268 201.522 64.2707C200.834 64.9658 200.144 65.6629 199.431 66.3863C199.406 66.3909 199.383 66.3953 199.36 66.3992C199.225 66.2734 199.078 66.2111 198.988 66.1744C198.91 66.1423 198.873 66.1255 198.858 66.119ZM199.294 60.0617L199.294 60.0617L199.294 60.0617Z" stroke="#C5B58D" stroke-opacity="0.47"/>
<path d="M192.759 68.9532L192.729 68.9448L192.68 68.9411C192.517 68.9284 192.383 68.9241 192.259 68.9202L192.256 68.9201L192.256 68.92L192.251 68.9199C192.041 68.9155 191.83 68.9102 191.617 68.9047C191.078 68.891 190.531 68.8771 189.987 68.8786C189.897 68.8789 189.847 68.8645 189.812 68.8485C189.775 68.8318 189.727 68.8 189.661 68.7268C189.391 68.4267 189.122 68.1338 188.853 67.8416C188.512 67.4702 188.171 67.0998 187.83 66.7171C188.173 66.3752 188.515 66.0531 188.863 65.7384C188.956 65.6548 189.147 65.4678 189.16 65.1854C189.168 65.0167 189.112 64.8812 189.038 64.7765C189.039 64.7474 189.04 64.7196 189.041 64.6928C189.044 64.5652 189.047 64.4618 189.061 64.3583C189.18 64.3524 189.307 64.363 189.48 64.3774C189.503 64.3793 189.527 64.3813 189.552 64.3834C189.683 64.4666 189.85 64.5212 190.046 64.483C190.257 64.4419 190.406 64.2989 190.451 64.2551C190.454 64.2524 190.456 64.25 190.458 64.2481C190.738 63.9838 191.016 63.7253 191.3 63.4764C192.025 64.2547 192.736 65.02 193.447 65.7847C193.418 66.762 193.389 67.742 193.36 68.7579C193.346 68.7778 193.331 68.797 193.318 68.8154C193.133 68.8158 192.983 68.8706 192.892 68.9047C192.813 68.9345 192.775 68.9475 192.759 68.9532ZM188.947 64.2259L188.947 64.2259L188.947 64.2259Z" stroke="#C5B58D" stroke-opacity="0.47"/>
<path d="M190.655 74.703L190.628 74.7188L190.592 74.7512C190.469 74.8601 190.373 74.9534 190.284 75.0395L190.282 75.0414L190.282 75.0414L190.278 75.0453C190.13 75.1931 189.979 75.3416 189.827 75.491C189.443 75.869 189.053 76.2528 188.676 76.6448C188.614 76.7097 188.568 76.7364 188.533 76.7504C188.495 76.7649 188.439 76.7772 188.341 76.7738C187.937 76.76 187.539 76.7502 187.142 76.7405C186.638 76.728 186.135 76.7156 185.623 76.6951C185.615 76.2109 185.621 75.7416 185.637 75.272C185.641 75.1472 185.639 74.88 185.445 74.6745C185.329 74.5517 185.193 74.4975 185.066 74.4779C185.046 74.4571 185.026 74.4372 185.008 74.4181C184.918 74.3271 184.846 74.2533 184.781 74.1709C184.86 74.0815 184.955 73.9976 185.086 73.8828C185.104 73.8675 185.122 73.8516 185.141 73.8352C185.291 73.799 185.446 73.7171 185.555 73.5493C185.672 73.3688 185.673 73.1626 185.673 73.0996C185.673 73.0956 185.673 73.0922 185.673 73.0894C185.677 72.7044 185.684 72.3249 185.702 71.948C186.765 71.9673 187.81 71.9873 188.854 72.0073C189.537 72.7069 190.222 73.4084 190.933 74.1346C190.937 74.1591 190.941 74.1826 190.944 74.2053C190.816 74.3387 190.751 74.4848 190.713 74.5734C190.679 74.6509 190.662 74.6878 190.655 74.703ZM184.607 74.1613L184.607 74.1613L184.607 74.1613Z" stroke="#C5B58D" stroke-opacity="0.47"/>
<path d="M193.363 80.9602L193.354 80.9901L193.35 81.0387C193.334 81.202 193.328 81.3357 193.322 81.4593L193.321 81.462L193.321 81.462L193.321 81.4676C193.313 81.6771 193.304 81.8886 193.295 82.1015C193.272 82.6398 193.248 83.1865 193.24 83.7299C193.239 83.8199 193.224 83.8706 193.207 83.9053C193.19 83.9412 193.157 83.9885 193.083 84.0532C192.778 84.3185 192.481 84.5826 192.184 84.846C191.806 85.1809 191.43 85.5148 191.042 85.8491C190.706 85.5003 190.39 85.1533 190.081 84.7989C189.999 84.7047 189.815 84.5107 189.533 84.4927C189.365 84.482 189.228 84.5352 189.122 84.6072C189.093 84.6058 189.065 84.6046 189.039 84.6035C188.911 84.5979 188.808 84.5933 188.705 84.5771C188.701 84.4583 188.714 84.3317 188.731 84.1584C188.733 84.1353 188.736 84.1114 188.738 84.0866C188.824 83.9573 188.881 83.7918 188.846 83.5947C188.809 83.3828 188.669 83.2319 188.626 83.1857C188.623 83.1828 188.621 83.1803 188.619 83.1782C188.359 82.8936 188.106 82.6113 187.862 82.3234C188.653 81.6122 189.43 80.9144 190.207 80.2173C191.184 80.2632 192.163 80.3091 193.179 80.3554C193.198 80.3704 193.217 80.385 193.235 80.3991C193.232 80.5841 193.285 80.7352 193.317 80.8261C193.346 80.9056 193.358 80.9444 193.363 80.9602ZM188.57 84.6893L188.57 84.6893L188.57 84.6893Z" stroke="#C5B58D" stroke-opacity="0.47"/>
<path d="M199.339 83.3393L199.356 83.3654L199.391 83.4002C199.506 83.5169 199.604 83.608 199.695 83.6921L199.697 83.6939L199.697 83.694L199.701 83.6977C199.856 83.8386 200.012 83.9815 200.169 84.1253C200.567 84.4891 200.971 84.8585 201.382 85.2138C201.45 85.2727 201.479 85.317 201.495 85.352C201.511 85.3884 201.527 85.4438 201.528 85.5422C201.536 85.9463 201.547 86.344 201.558 86.7407C201.572 87.2451 201.586 87.7479 201.592 88.2604C201.109 88.2935 200.64 88.3126 200.17 88.3212C200.045 88.3234 199.778 88.3394 199.583 88.544C199.467 88.6662 199.42 88.8049 199.407 88.9324C199.387 88.9538 199.368 88.9743 199.35 88.994C199.264 89.0881 199.194 89.1644 199.115 89.233C199.022 89.1596 198.933 89.0684 198.812 88.9436C198.795 88.927 198.779 88.9098 198.761 88.892C198.717 88.7434 198.627 88.5929 198.454 88.4928C198.268 88.3853 198.062 88.3958 197.999 88.3991C197.995 88.3993 197.991 88.3994 197.989 88.3996C197.604 88.4153 197.225 88.4281 196.847 88.4299C196.811 87.3669 196.776 86.3227 196.741 85.2795C197.404 84.5608 198.069 83.8401 198.757 83.0921C198.781 83.0867 198.805 83.0815 198.827 83.0768C198.967 83.1978 199.116 83.255 199.207 83.2885C199.286 83.3179 199.324 83.3334 199.339 83.3393ZM199.115 89.4081L199.115 89.4081L199.115 89.4081Z" stroke="#C5B58D" stroke-opacity="0.47"/>
<path d="M209.34 59.3268L207.306 57.2697C207.13 57.1374 206.915 57.0659 206.694 57.0659H203.248C202.437 57.0659 201.664 57.4119 201.124 58.017C201.665 58.6018 202.426 58.9342 203.223 58.9342H203.366C204.329 58.9342 205.115 59.7034 205.136 60.666L205.166 61.9914L206.4 60.9139C206.91 60.4688 207.678 60.4948 208.156 60.9734C208.59 61.4077 209.18 61.6517 209.794 61.6517H210.295C210.295 60.7812 209.952 59.9458 209.34 59.3268Z" stroke="#C5B58D" stroke-opacity="0.47"/>
<path d="M217.097 70.6064L217.214 67.716C217.191 67.4967 217.097 67.2911 216.946 67.1298L214.596 64.6091C214.043 64.0158 213.263 63.6866 212.451 63.7042C212.393 64.499 212.669 65.2821 213.212 65.8649L213.31 65.9695C213.967 66.6736 213.94 67.7734 213.251 68.4456L212.302 69.371L213.931 69.5388C214.605 69.6082 215.109 70.1872 215.086 70.8637C215.064 71.4776 215.287 72.0748 215.706 72.524L216.048 72.8907C216.685 72.297 217.062 71.4762 217.097 70.6064Z" stroke="#C5B58D" stroke-opacity="0.47"/>
<path d="M214.88 85.0949L216.973 83.0972C217.108 82.9232 217.183 82.7099 217.187 82.4894L217.247 79.0434C217.261 78.2323 216.929 77.4536 216.333 76.9028C215.739 77.434 215.394 78.1888 215.38 78.9856L215.377 79.1286C215.36 80.0913 214.578 80.8642 213.615 80.8688L212.289 80.8751L213.345 82.128C213.781 82.6455 213.742 83.4125 213.255 83.8827C212.813 84.3094 212.559 84.8942 212.548 85.5083L212.539 86.0096C213.41 86.0248 214.251 85.6961 214.88 85.0949Z" stroke="#C5B58D" stroke-opacity="0.47"/>
<path d="M203.746 92.64L206.638 92.6058C206.856 92.5708 207.056 92.4662 207.21 92.3076L209.604 89.8283C210.167 89.2447 210.455 88.4485 210.395 87.6395C209.598 87.6228 208.831 87.9391 208.277 88.5124L208.178 88.6153C207.509 89.3079 206.409 89.3393 205.702 88.686L204.728 87.7865L204.646 89.4228C204.612 90.0988 204.06 90.6329 203.383 90.6447C202.769 90.6554 202.184 90.9097 201.758 91.3515L201.41 91.7121C202.036 92.3169 202.875 92.6503 203.746 92.64Z" stroke="#C5B58D" stroke-opacity="0.47"/>
<path d="M189.375 59.2589L191.408 57.2019C191.585 57.0696 191.799 56.998 192.02 56.998H195.466C196.278 56.998 197.05 57.344 197.591 57.9492C197.049 58.5339 196.289 58.8663 195.492 58.8663H195.349C194.386 58.8663 193.599 59.6355 193.578 60.5981L193.548 61.9235L192.314 60.846C191.804 60.4009 191.037 60.4269 190.558 60.9055C190.124 61.3398 189.535 61.5838 188.921 61.5838H188.419C188.419 60.7133 188.762 59.8779 189.375 59.2589Z" stroke="#C5B58D" stroke-opacity="0.47"/>
<path d="M181.618 70.5385L181.5 67.6481C181.524 67.4289 181.618 67.2232 181.768 67.0619L184.119 64.5412C184.672 63.9479 185.452 63.6188 186.263 63.6363C186.322 64.4311 186.046 65.2142 185.502 65.797L185.405 65.9016C184.748 66.6058 184.774 67.7056 185.464 68.3777L186.413 69.3032L184.783 69.471C184.11 69.5403 183.605 70.1194 183.629 70.7958C183.65 71.4097 183.427 72.0069 183.008 72.4562L182.666 72.8228C182.03 72.2291 181.653 71.4083 181.618 70.5385Z" stroke="#C5B58D" stroke-opacity="0.47"/>
<path d="M183.834 85.0271L181.742 83.0294C181.607 82.8553 181.531 82.642 181.527 82.4216L181.467 78.9755C181.453 78.1644 181.786 77.3857 182.381 76.8349C182.975 77.3661 183.321 78.121 183.335 78.9178L183.337 79.0607C183.354 80.0234 184.137 80.7963 185.1 80.8009L186.426 80.8073L185.37 82.0601C184.934 82.5777 184.973 83.3447 185.46 83.8148C185.902 84.2415 186.156 84.8263 186.167 85.4405L186.175 85.9417C185.305 85.9569 184.464 85.6282 183.834 85.0271Z" stroke="#C5B58D" stroke-opacity="0.47"/>
<path d="M194.969 92.5721L192.076 92.538C191.858 92.503 191.658 92.3983 191.505 92.2397L189.111 89.7604C188.547 89.1769 188.259 88.3807 188.319 87.5716C189.116 87.5549 189.884 87.8713 190.437 88.4445L190.536 88.5474C191.205 89.24 192.305 89.2714 193.012 88.6181L193.986 87.7186L194.068 89.3549C194.102 90.0309 194.654 90.565 195.331 90.5768C195.945 90.5875 196.53 90.8418 196.957 91.2837L197.305 91.6443C196.679 92.249 195.839 92.5824 194.969 92.5721Z" stroke="#C5B58D" stroke-opacity="0.47"/>
<path d="M205.51 69.0892L205.54 69.0808L205.588 69.077C205.752 69.0644 205.886 69.0601 206.009 69.0562L206.012 69.0561L206.012 69.056L206.018 69.0559C206.227 69.0515 206.439 69.0461 206.652 69.0407C207.191 69.027 207.738 69.0131 208.281 69.0146C208.371 69.0149 208.422 69.0005 208.457 68.9844C208.493 68.9678 208.541 68.9359 208.607 68.8628C208.878 68.5627 209.147 68.2698 209.415 67.9776C209.757 67.6061 210.097 67.2358 210.438 66.8531C210.095 66.5112 209.754 66.1891 209.405 65.8744C209.312 65.7908 209.121 65.6038 209.109 65.3214C209.101 65.1526 209.156 65.0172 209.23 64.9125C209.229 64.8834 209.229 64.8555 209.228 64.8288C209.224 64.7012 209.222 64.5978 209.207 64.4942C209.089 64.4884 208.962 64.499 208.788 64.5134C208.765 64.5153 208.741 64.5173 208.716 64.5193C208.586 64.6026 208.419 64.6572 208.223 64.619C208.011 64.5779 207.863 64.4349 207.817 64.3911C207.815 64.3884 207.812 64.386 207.81 64.3841C207.53 64.1198 207.252 63.8613 206.969 63.6123C206.244 64.3907 205.533 65.156 204.822 65.9207C204.851 66.898 204.88 67.878 204.908 68.8938C204.923 68.9138 204.937 68.933 204.951 68.9513C205.136 68.9518 205.286 69.0066 205.376 69.0407C205.455 69.0704 205.494 69.0835 205.51 69.0892ZM209.322 64.3618L209.322 64.3618L209.322 64.3618Z" stroke="#C5B58D" stroke-opacity="0.47"/>
<path d="M207.613 74.8387L207.64 74.8545L207.677 74.887C207.799 74.9958 207.895 75.0891 207.984 75.1753L207.986 75.1772L207.986 75.1771L207.99 75.1811C208.139 75.3288 208.29 75.4773 208.442 75.6268C208.826 76.0047 209.216 76.3886 209.592 76.7805C209.654 76.8455 209.7 76.8721 209.736 76.8861C209.773 76.9006 209.829 76.9129 209.928 76.9096C210.332 76.8958 210.729 76.886 211.126 76.8762C211.63 76.8638 212.133 76.8514 212.646 76.8308C212.653 76.3467 212.648 75.8773 212.632 75.4077C212.628 75.2829 212.629 75.0157 212.824 74.8102C212.94 74.6874 213.076 74.6332 213.202 74.6137C213.223 74.5928 213.242 74.573 213.261 74.5539C213.35 74.4628 213.423 74.389 213.487 74.3067C213.409 74.2172 213.313 74.1334 213.182 74.0185C213.165 74.0032 213.147 73.9874 213.128 73.9709C212.977 73.9347 212.822 73.8529 212.713 73.685C212.596 73.5045 212.596 73.2984 212.596 73.2353C212.596 73.2314 212.596 73.228 212.596 73.2252C212.591 72.8401 212.584 72.4607 212.566 72.0837C211.503 72.103 210.458 72.123 209.415 72.143C208.732 72.8427 208.047 73.5442 207.336 74.2704C207.332 74.2948 207.328 74.3184 207.324 74.3411C207.453 74.4745 207.517 74.6205 207.556 74.7092C207.589 74.7867 207.607 74.8235 207.613 74.8387ZM213.662 74.2971L213.662 74.2971L213.662 74.2971Z" stroke="#C5B58D" stroke-opacity="0.47"/>
<path d="M204.905 81.0959L204.914 81.1258L204.919 81.1745C204.934 81.3377 204.941 81.4715 204.947 81.595L204.947 81.5977L204.947 81.5977L204.947 81.6033C204.955 81.8128 204.964 82.0244 204.973 82.2372C204.997 82.7756 205.02 83.3223 205.028 83.8656C205.029 83.9556 205.044 84.0063 205.061 84.041C205.078 84.077 205.111 84.1243 205.185 84.1889C205.49 84.4543 205.788 84.7183 206.085 84.9818C206.462 85.3167 206.838 85.6506 207.227 85.9849C207.563 85.636 207.879 85.2891 208.187 84.9347C208.269 84.8405 208.453 84.6464 208.735 84.6285C208.904 84.6178 209.04 84.6709 209.146 84.743C209.175 84.7416 209.203 84.7404 209.23 84.7392C209.357 84.7336 209.46 84.7291 209.564 84.7128C209.568 84.594 209.555 84.4674 209.537 84.2941C209.535 84.2711 209.533 84.2471 209.53 84.2223C209.445 84.0931 209.387 83.9275 209.422 83.7304C209.459 83.5185 209.6 83.3676 209.643 83.3214C209.645 83.3185 209.648 83.316 209.649 83.314C209.909 83.0294 210.162 82.747 210.406 82.4591C209.616 81.748 208.838 81.0502 208.061 80.353C207.084 80.3989 206.105 80.4449 205.09 80.4912C205.07 80.5062 205.051 80.5207 205.033 80.5349C205.036 80.7199 204.984 80.8709 204.951 80.9619C204.923 81.0413 204.91 81.0802 204.905 81.0959ZM209.698 84.825L209.698 84.825L209.698 84.825Z" stroke="#C5B58D" stroke-opacity="0.47"/>
<path d="M199.962 72.0419L200.085 72.1494L200.248 72.1636L201.336 72.259L201.43 73.4017L201.442 73.5565L201.54 73.6769L202.26 74.56L201.54 75.4431L201.442 75.5635L201.43 75.7182L201.336 76.861L200.248 76.9564L200.085 76.9706L199.962 77.0781L199.134 77.8022L198.306 77.0781L198.183 76.9706L198.02 76.9564L196.932 76.861L196.839 75.7182L196.826 75.5635L196.728 75.4431L196.008 74.56L196.728 73.6769L196.826 73.5565L196.839 73.4017L196.932 72.259L198.02 72.1636L198.183 72.1494L198.306 72.0419L199.134 71.3178L199.962 72.0419Z" stroke="#C5B58D" stroke-opacity="0.47"/>
<mask id="path-18-inside-1_273_3614" fill="white">
<path d="M201.71 81.2466L200.773 80.3996L201.619 79.9869L201.71 81.2466Z"/>
</mask>
<path d="M201.71 81.2466L201.039 81.9883L202.886 83.6581L202.707 81.1747L201.71 81.2466ZM200.773 80.3996L200.334 79.5008L199.005 80.1492L200.102 81.1413L200.773 80.3996ZM201.619 79.9869L202.616 79.9151L202.51 78.4396L201.18 79.0881L201.619 79.9869ZM202.38 80.5048L201.443 79.6578L200.102 81.1413L201.039 81.9883L202.38 80.5048ZM201.211 81.2984L202.057 80.8857L201.18 79.0881L200.334 79.5008L201.211 81.2984ZM200.621 80.0587L200.712 81.3184L202.707 81.1747L202.616 79.9151L200.621 80.0587Z" fill="#C5B58D" fill-opacity="0.47" mask="url(#path-18-inside-1_273_3614)"/>
<mask id="path-20-inside-2_273_3614" fill="white">
<path d="M205.695 72.0375L204.832 72.9594L204.434 72.1062L205.695 72.0375Z"/>
</mask>
<path d="M205.695 72.0375L206.425 72.721L208.127 70.9036L205.641 71.039L205.695 72.0375ZM204.832 72.9594L203.926 73.382L204.551 74.7227L205.562 73.6429L204.832 72.9594ZM204.434 72.1062L204.38 71.1077L202.903 71.1881L203.528 72.5288L204.434 72.1062ZM204.965 71.354L204.102 72.2759L205.562 73.6429L206.425 72.721L204.965 71.354ZM205.738 72.5367L205.341 71.6836L203.528 72.5288L203.926 73.382L205.738 72.5367ZM204.489 73.1047L205.75 73.036L205.641 71.039L204.38 71.1077L204.489 73.1047Z" fill="#C5B58D" fill-opacity="0.47" mask="url(#path-20-inside-2_273_3614)"/>
<mask id="path-22-inside-3_273_3614" fill="white">
<path d="M201.783 68.1478L201.583 69.3948L200.776 68.91L201.783 68.1478Z"/>
</mask>
<path d="M201.783 68.1478L202.77 68.3063L203.165 65.8479L201.179 67.3504L201.783 68.1478ZM201.583 69.3948L201.068 70.252L202.336 71.0139L202.57 69.5533L201.583 69.3948ZM200.776 68.91L200.172 68.1126L198.993 69.0052L200.261 69.7671L200.776 68.91ZM200.795 67.9894L200.595 69.2363L202.57 69.5533L202.77 68.3063L200.795 67.9894ZM202.098 68.5376L201.291 68.0528L200.261 69.7671L201.068 70.252L202.098 68.5376ZM201.379 69.7074L202.386 68.9452L201.179 67.3504L200.172 68.1126L201.379 69.7074Z" fill="#C5B58D" fill-opacity="0.47" mask="url(#path-22-inside-3_273_3614)"/>
<mask id="path-24-inside-4_273_3614" fill="white">
<path d="M205.689 77.5041L204.428 77.4354L204.826 76.5822L205.689 77.5041Z"/>
</mask>
<path d="M205.689 77.5041L205.635 78.5026L208.121 78.638L206.419 76.8206L205.689 77.5041ZM204.428 77.4354L203.522 77.0127L202.896 78.3534L204.374 78.4339L204.428 77.4354ZM204.826 76.5822L205.556 75.8987L204.545 74.8189L203.919 76.1596L204.826 76.5822ZM205.743 76.5055L204.482 76.4368L204.374 78.4339L205.635 78.5026L205.743 76.5055ZM205.334 77.858L205.732 77.0048L203.919 76.1596L203.522 77.0127L205.334 77.858ZM204.096 77.2657L204.959 78.1876L206.419 76.8206L205.556 75.8987L204.096 77.2657Z" fill="#C5B58D" fill-opacity="0.47" mask="url(#path-24-inside-4_273_3614)"/>
<mask id="path-26-inside-5_273_3614" fill="white">
<path d="M196.38 68.1509L197.316 68.9979L196.47 69.4106L196.38 68.1509Z"/>
</mask>
<path d="M196.38 68.1509L197.05 67.4091L195.203 65.7393L195.382 68.2227L196.38 68.1509ZM197.316 68.9979L197.755 69.8967L199.084 69.2482L197.987 68.2561L197.316 68.9979ZM196.47 69.4106L195.473 69.4824L195.579 70.9578L196.909 70.3094L196.47 69.4106ZM195.709 68.8927L196.646 69.7397L197.987 68.2561L197.05 67.4091L195.709 68.8927ZM196.878 68.0991L196.032 68.5118L196.909 70.3094L197.755 69.8967L196.878 68.0991ZM197.468 69.3388L197.377 68.0791L195.382 68.2227L195.473 69.4824L197.468 69.3388Z" fill="#C5B58D" fill-opacity="0.47" mask="url(#path-26-inside-5_273_3614)"/>
<mask id="path-28-inside-6_273_3614" fill="white">
<path d="M192.394 77.36L193.257 76.4381L193.655 77.2913L192.394 77.36Z"/>
</mask>
<path d="M192.394 77.36L191.664 76.6765L189.962 78.4939L192.448 78.3585L192.394 77.36ZM193.257 76.4381L194.163 76.0155L193.538 74.6748L192.527 75.7546L193.257 76.4381ZM193.655 77.2913L193.709 78.2898L195.186 78.2093L194.561 76.8687L193.655 77.2913ZM193.124 78.0435L193.987 77.1216L192.527 75.7546L191.664 76.6765L193.124 78.0435ZM192.351 76.8607L192.749 77.7139L194.561 76.8687L194.163 76.0155L192.351 76.8607ZM193.6 76.2927L192.339 76.3614L192.448 78.3585L193.709 78.2898L193.6 76.2927Z" fill="#C5B58D" fill-opacity="0.47" mask="url(#path-28-inside-6_273_3614)"/>
<mask id="path-30-inside-7_273_3614" fill="white">
<path d="M196.306 81.2496L196.506 80.0027L197.313 80.4875L196.306 81.2496Z"/>
</mask>
<path d="M196.306 81.2496L195.319 81.0912L194.924 83.5495L196.91 82.047L196.306 81.2496ZM196.506 80.0027L197.022 79.1455L195.754 78.3836L195.519 79.8442L196.506 80.0027ZM197.313 80.4875L197.917 81.2849L199.096 80.3922L197.828 79.6303L197.313 80.4875ZM197.294 81.4081L197.494 80.1611L195.519 79.8442L195.319 81.0912L197.294 81.4081ZM195.991 80.8598L196.798 81.3447L197.828 79.6303L197.022 79.1455L195.991 80.8598ZM196.71 79.6901L195.703 80.4522L196.91 82.047L197.917 81.2849L196.71 79.6901Z" fill="#C5B58D" fill-opacity="0.47" mask="url(#path-30-inside-7_273_3614)"/>
<mask id="path-32-inside-8_273_3614" fill="white">
<path d="M192.4 71.8934L193.661 71.9621L193.263 72.8153L192.4 71.8934Z"/>
</mask>
<path d="M192.4 71.8934L192.454 70.8949L189.968 70.7595L191.67 72.5769L192.4 71.8934ZM193.661 71.9621L194.567 72.3847L195.193 71.044L193.716 70.9636L193.661 71.9621ZM193.263 72.8153L192.533 73.4988L193.544 74.5786L194.17 73.2379L193.263 72.8153ZM192.346 72.8919L193.607 72.9606L193.716 70.9636L192.454 70.8949L192.346 72.8919ZM192.755 71.5395L192.357 72.3927L194.17 73.2379L194.567 72.3847L192.755 71.5395ZM193.993 72.1318L193.13 71.2099L191.67 72.5769L192.533 73.4988L193.993 72.1318Z" fill="#C5B58D" fill-opacity="0.47" mask="url(#path-32-inside-8_273_3614)"/>
<path d="M25.2369 12.9278L25.2114 12.886L25.1783 12.8501C25.0366 12.696 24.9155 12.5754 24.8015 12.4622L24.7996 12.4602L24.7996 12.4602L24.7956 12.4563C24.5995 12.2656 24.4029 12.0727 24.2053 11.8788C23.707 11.3898 23.2028 10.895 22.6875 10.4173C22.5893 10.3262 22.5395 10.2503 22.5109 10.1805C22.4817 10.1094 22.4627 10.0158 22.465 9.87352C22.4737 9.35249 22.4775 8.83767 22.4812 8.32328C22.4862 7.62164 22.4913 6.92079 22.509 6.20601C23.1892 6.18051 23.8457 6.17566 24.5026 6.1866C24.6604 6.18923 24.951 6.17774 25.1668 5.96668C25.3093 5.8273 25.3628 5.66169 25.3751 5.50917C25.4105 5.4736 25.4441 5.43946 25.4764 5.40663C25.6248 5.25594 25.7459 5.13283 25.8937 5.02506C25.8978 5.0249 25.9022 5.02486 25.9068 5.02495C25.9144 5.02511 25.9216 5.02564 25.928 5.02641C26.087 5.14559 26.222 5.29434 26.4066 5.49773C26.4326 5.52634 26.4595 5.55603 26.4876 5.58687C26.5267 5.76519 26.6189 5.94417 26.8112 6.06429C27.0088 6.18771 27.2349 6.18489 27.3176 6.18386C27.3224 6.1838 27.3268 6.18374 27.3306 6.18372C27.8793 6.18045 28.4213 6.18145 28.9612 6.20084C28.9602 7.65093 28.9578 9.07321 28.9554 10.4945C28.0388 11.421 27.1203 12.3496 26.1683 13.3147C26.0919 13.3294 26.0197 13.343 25.953 13.3531C25.7859 13.1758 25.5898 13.0915 25.4645 13.04C25.4372 13.0287 25.4141 13.0194 25.3941 13.0114C25.3393 12.9893 25.3077 12.9765 25.2746 12.9589C25.2575 12.9499 25.249 12.9438 25.2454 12.941C25.2429 12.9373 25.2398 12.9326 25.2369 12.9278Z" stroke="#C5B58D" stroke-opacity="0.47"/>
<path d="M17.4235 16.6564L17.3765 16.6433L17.3277 16.6395C17.119 16.6234 16.9482 16.6179 16.7876 16.6127L16.7848 16.6127L16.7848 16.6126L16.7792 16.6125C16.5059 16.6068 16.2304 16.5998 15.9537 16.5927C15.2558 16.5749 14.5496 16.557 13.8469 16.559C13.713 16.5594 13.6248 16.5377 13.5563 16.5063C13.4865 16.4742 13.4087 16.4187 13.3134 16.313C12.9644 15.926 12.616 15.547 12.2679 15.1683C11.7931 14.6517 11.3188 14.1356 10.8443 13.6008C11.3244 13.1183 11.8012 12.667 12.2891 12.227C12.4063 12.1213 12.611 11.9147 12.6249 11.6131C12.634 11.414 12.5602 11.2564 12.4652 11.1365C12.4668 11.0863 12.4681 11.0384 12.4694 10.9924C12.4751 10.781 12.4797 10.6084 12.5143 10.4287C12.5172 10.4258 12.5204 10.4228 12.5238 10.4197C12.5295 10.4147 12.5351 10.4102 12.5403 10.4063C12.7379 10.3851 12.9381 10.4018 13.2118 10.4246C13.2503 10.4279 13.2902 10.4312 13.3318 10.4346C13.482 10.5384 13.6715 10.6064 13.894 10.5631C14.1227 10.5186 14.2862 10.3623 14.346 10.3051C14.3495 10.3018 14.3526 10.2988 14.3554 10.2962C14.7544 9.91959 15.1515 9.55067 15.5596 9.19666C16.5478 10.2578 17.5161 11.2997 18.4836 12.3408C18.4452 13.6435 18.4067 14.949 18.3687 16.3042C18.3228 16.367 18.2792 16.4262 18.2374 16.4791C17.9943 16.4634 17.7933 16.5354 17.6666 16.5832C17.6389 16.5936 17.6157 16.6026 17.5956 16.6103C17.5405 16.6315 17.5086 16.6437 17.4724 16.6535C17.4537 16.6585 17.4434 16.6599 17.4389 16.6603C17.4345 16.6592 17.429 16.6579 17.4235 16.6564Z" stroke="#C5B58D" stroke-opacity="0.47"/>
<path d="M14.8073 24.0814L14.7652 24.1062L14.7286 24.1386C14.5721 24.2776 14.4494 24.3966 14.3342 24.5086L14.3322 24.5105L14.3322 24.5105L14.3282 24.5144C14.1342 24.7071 13.9378 24.9004 13.7405 25.0945C13.2429 25.5842 12.7394 26.0797 12.2527 26.5866C12.1599 26.6832 12.0831 26.7316 12.0129 26.759C11.9413 26.7869 11.8474 26.8044 11.7052 26.7995C11.1844 26.7817 10.6697 26.769 10.1554 26.7563C9.454 26.739 8.75334 26.7218 8.03898 26.6916C8.02536 26.011 8.03196 25.3546 8.05437 24.6979C8.05975 24.5402 8.05333 24.2494 7.84607 24.03C7.7092 23.8851 7.54455 23.8287 7.39227 23.8137C7.35732 23.7777 7.32377 23.7435 7.29151 23.7106C7.14343 23.5597 7.02246 23.4364 6.91728 23.2867C6.9172 23.2826 6.91723 23.2782 6.91741 23.2736C6.9177 23.2661 6.91835 23.2589 6.91923 23.2525C7.04117 23.0956 7.19225 22.9632 7.39883 22.7822C7.42789 22.7567 7.45804 22.7303 7.48937 22.7027C7.66835 22.6668 7.84891 22.5778 7.97236 22.3876C8.09922 22.1922 8.10034 21.966 8.10076 21.8833C8.10078 21.8785 8.1008 21.8741 8.10084 21.8703C8.10715 21.3217 8.11761 20.7797 8.14642 20.2403C9.59627 20.2666 11.0183 20.2938 12.4393 20.321C13.3497 21.2536 14.2621 22.1882 15.2105 23.1569C15.2238 23.2335 15.2361 23.306 15.2451 23.3728C15.0649 23.5368 14.9772 23.7314 14.9235 23.8558C14.9118 23.8829 14.9021 23.9058 14.8937 23.9257C14.8706 23.98 14.8573 24.0114 14.8392 24.0443C14.8298 24.0612 14.8236 24.0696 14.8207 24.0731C14.817 24.0756 14.8122 24.0785 14.8073 24.0814Z" stroke="#C5B58D" stroke-opacity="0.47"/>
<path d="M18.3747 32.1016L18.3608 32.1484L18.3562 32.1971C18.3364 32.4055 18.328 32.5762 18.32 32.7366L18.3198 32.7394L18.3198 32.7394L18.3196 32.745C18.3091 33.0182 18.2973 33.2935 18.2854 33.5701C18.2555 34.2676 18.2251 34.9734 18.2149 35.6759C18.213 35.8099 18.1898 35.8977 18.1571 35.9656C18.1238 36.0349 18.067 36.1117 17.9597 36.2051C17.5667 36.5473 17.1816 36.889 16.7968 37.2305C16.272 37.6962 15.7478 38.1614 15.2048 38.6265C14.7307 38.1381 14.2878 37.6535 13.8564 37.1579C13.7528 37.0389 13.5497 36.8306 13.2485 36.8115C13.0495 36.7989 12.8907 36.8699 12.7691 36.9628C12.719 36.9603 12.6711 36.9582 12.6251 36.9561C12.4139 36.9468 12.2413 36.9391 12.0623 36.9014C12.0595 36.8984 12.0565 36.8952 12.0535 36.8917C12.0485 36.886 12.0441 36.8803 12.0404 36.875C12.0226 36.6771 12.0428 36.4772 12.0704 36.204C12.0743 36.1655 12.0783 36.1256 12.0824 36.0841C12.1889 35.9358 12.2602 35.7475 12.2207 35.5242C12.1803 35.2948 12.0268 35.1286 11.9707 35.0678C11.9674 35.0643 11.9645 35.0611 11.9619 35.0583C11.5924 34.6527 11.2304 34.2492 10.8836 33.8351C11.9619 32.8655 13.0204 31.9156 14.0783 30.9664C15.3801 31.0275 16.6848 31.0887 18.0391 31.1504C18.101 31.1974 18.1595 31.242 18.2116 31.2848C18.1917 31.5276 18.2602 31.7297 18.3058 31.8573C18.3157 31.8852 18.3243 31.9085 18.3316 31.9288C18.3519 31.9842 18.3635 32.0163 18.3727 32.0527C18.3774 32.0715 18.3786 32.0818 18.3788 32.0863C18.3778 32.0907 18.3763 32.0961 18.3747 32.1016Z" stroke="#C5B58D" stroke-opacity="0.47"/>
<path d="M26.0883 35.0663L26.1153 35.1071L26.1496 35.1419C26.2965 35.291 26.4218 35.4072 26.5396 35.5164L26.5417 35.5183L26.5417 35.5184L26.5458 35.5221C26.7484 35.7058 26.9516 35.8918 27.1559 36.0787C27.6709 36.5499 28.1921 37.0269 28.7237 37.4863C28.8251 37.5739 28.8774 37.648 28.9085 37.7167C28.9401 37.7868 28.9625 37.8796 28.9651 38.022C28.9745 38.543 28.9888 39.0576 29.003 39.5718C29.0225 40.2732 29.0419 40.9738 29.0491 41.6888C28.3702 41.738 27.7143 41.7657 27.0574 41.7777C26.8996 41.7806 26.6095 41.8022 26.4013 42.0207C26.2637 42.165 26.216 42.3323 26.2091 42.4852C26.1749 42.522 26.1425 42.5573 26.1114 42.5912C25.9684 42.747 25.8516 42.8743 25.7077 42.9871C25.7036 42.9874 25.6992 42.9876 25.6946 42.9877C25.687 42.9878 25.6798 42.9875 25.6734 42.987C25.5103 42.8734 25.3702 42.7295 25.1786 42.5326C25.1517 42.505 25.1237 42.4762 25.0945 42.4464C25.0493 42.2695 24.9509 42.0939 24.7545 41.9805C24.5527 41.8641 24.3268 41.8748 24.2442 41.8787C24.2394 41.8789 24.2351 41.8792 24.2313 41.8793C23.683 41.9017 23.1413 41.9196 22.6011 41.9191C22.5514 40.4699 22.5042 39.0484 22.457 37.6279C23.3407 36.6699 24.2262 35.7098 25.144 34.7121C25.2197 34.6947 25.2915 34.6787 25.3578 34.6662C25.531 34.8375 25.7299 34.915 25.8569 34.9621C25.8846 34.9724 25.908 34.9809 25.9283 34.9882C25.9838 35.0084 26.0158 35.02 26.0496 35.0365C26.067 35.0449 26.0757 35.0507 26.0793 35.0533C26.082 35.057 26.0852 35.0615 26.0883 35.0663Z" stroke="#C5B58D" stroke-opacity="0.47"/>
<path d="M38.9478 4.02066L36.3097 1.3525C36.0809 1.1809 35.8026 1.08813 35.5166 1.08813H31.046C29.9937 1.08813 28.9914 1.53691 28.2906 2.32184C28.9929 3.08032 29.9797 3.51148 31.0134 3.51148H31.1988C32.4477 3.51148 33.4679 4.50919 33.4956 5.75778L33.5338 7.47696L35.1347 6.07933C35.7961 5.50195 36.7917 5.53566 37.4125 6.15645C37.9759 6.71984 38.74 7.03635 39.5368 7.03635H40.187C40.187 5.9072 39.7417 4.82359 38.9478 4.02066Z" stroke="#C5B58D" stroke-opacity="0.47"/>
<path d="M49.0097 18.6516L49.1618 14.9024C49.1313 14.6181 49.0093 14.3513 48.8143 14.1421L45.7654 10.8725C45.0477 10.103 44.0359 9.67598 42.9839 9.69875C42.9081 10.7297 43.2658 11.7454 43.9708 12.5014L44.0973 12.637C44.949 13.5504 44.9151 14.977 44.0208 15.8488L42.7896 17.0492L44.9035 17.2669C45.7769 17.3568 46.4312 18.1079 46.4006 18.9853C46.3728 19.7816 46.6624 20.5563 47.2058 21.139L47.6493 21.6145C48.4751 20.8445 48.9639 19.7798 49.0097 18.6516Z" stroke="#C5B58D" stroke-opacity="0.47"/>
<path d="M46.1347 37.4447L48.8485 34.8535C49.0241 34.6277 49.1217 34.3511 49.1267 34.0651L49.2047 29.5952C49.2231 28.5431 48.7918 27.5331 48.0193 26.8187C47.2487 27.5077 46.8003 28.4868 46.7823 29.5204L46.7791 29.7058C46.7573 30.9545 45.7419 31.957 44.493 31.963L42.7734 31.9712L44.1429 33.5963C44.7087 34.2676 44.6576 35.2625 44.026 35.8723C43.4529 36.4258 43.1231 37.1843 43.1092 37.9809L43.0979 38.6311C44.2268 38.6508 45.318 38.2245 46.1347 37.4447Z" stroke="#C5B58D" stroke-opacity="0.47"/>
<path d="M31.692 47.2312L35.4439 47.1869C35.7263 47.1415 35.9864 47.0058 36.185 46.8L39.2906 43.5842C40.0215 42.8272 40.395 41.7945 40.3172 40.7451C39.2837 40.7234 38.288 41.1338 37.57 41.8773L37.4412 42.0107C36.5736 42.9091 35.1473 42.9499 34.2298 42.1025L32.9666 40.9357L32.8599 43.0582C32.8158 43.935 32.1 44.6278 31.2222 44.6431C30.4255 44.657 29.6671 44.9868 29.1136 45.5599L28.6619 46.0277C29.4741 46.8121 30.5629 47.2445 31.692 47.2312Z" stroke="#C5B58D" stroke-opacity="0.47"/>
<path d="M13.0517 3.93253L15.6899 1.26437C15.9187 1.09276 16.1969 1 16.483 1H20.9535C22.0058 1 23.0081 1.44878 23.7089 2.2337C23.0066 2.99218 22.0198 3.42335 20.9861 3.42335H20.8007C19.5518 3.42335 18.5316 4.42106 18.5039 5.66965L18.4657 7.38882L16.8648 5.9912C16.2034 5.41382 15.2078 5.44753 14.587 6.06832C14.0236 6.63171 13.2595 6.94822 12.4628 6.94822H11.8125C11.8125 5.81906 12.2578 4.73546 13.0517 3.93253Z" stroke="#C5B58D" stroke-opacity="0.47"/>
<path d="M2.98983 18.5632L2.83769 14.8141C2.86824 14.5297 2.99019 14.2629 3.18524 14.0537L6.23416 10.7842C6.9518 10.0146 7.9636 9.5876 9.01562 9.61037C9.09137 10.6413 8.73368 11.6571 8.02871 12.413L7.90224 12.5487C7.05049 13.4621 7.08445 14.8886 7.97868 15.7604L9.20995 16.9608L7.09597 17.1785C6.22265 17.2684 5.56831 18.0195 5.59895 18.8969C5.62675 19.6932 5.33711 20.4679 4.79372 21.0506L4.35025 21.5262C3.52444 20.7561 3.03561 19.6914 2.98983 18.5632Z" stroke="#C5B58D" stroke-opacity="0.47"/>
<path d="M5.8648 37.3566L3.151 34.7653C2.97543 34.5396 2.87783 34.2629 2.87284 33.977L2.79481 29.5071C2.77645 28.455 3.20766 27.445 3.98024 26.7306C4.75086 27.4195 5.19918 28.3987 5.21722 29.4322L5.22046 29.6176C5.24225 30.8663 6.25762 31.8689 7.5065 31.8749L9.22608 31.8831L7.85661 33.5081C7.29086 34.1795 7.34194 35.1743 7.97347 35.7842C8.54661 36.3377 8.8764 37.0961 8.89031 37.8928L8.90165 38.5429C7.77268 38.5626 6.68146 38.1363 5.8648 37.3566Z" stroke="#C5B58D" stroke-opacity="0.47"/>
<path d="M20.308 47.143L16.5561 47.0988C16.2737 47.0534 16.0136 46.9176 15.815 46.7119L12.7094 43.496C11.9785 42.7391 11.605 41.7063 11.6828 40.657C12.7163 40.6353 13.712 41.0456 14.43 41.7892L14.5588 41.9226C15.4264 42.821 16.8527 42.8617 17.7702 42.0143L19.0334 40.8476L19.1401 42.9701C19.1842 43.8469 19.9 44.5396 20.7778 44.555C21.5745 44.5689 22.3329 44.8987 22.8864 45.4718L23.3381 45.9396C22.5259 46.7239 21.4371 47.1564 20.308 47.143Z" stroke="#C5B58D" stroke-opacity="0.47"/>
<path d="M33.9979 16.8326L34.0449 16.8195L34.0937 16.8158C34.3024 16.7997 34.4732 16.7942 34.6338 16.789L34.6366 16.7889L34.6366 16.7889L34.6422 16.7888C34.9155 16.7831 35.191 16.776 35.4677 16.769C36.1656 16.7512 36.8718 16.7332 37.5744 16.7352C37.7084 16.7356 37.7966 16.714 37.8651 16.6825C37.9349 16.6504 38.0127 16.595 38.108 16.4893C38.457 16.1023 38.8054 15.7233 39.1535 15.3445C39.6283 14.8279 40.1026 14.3119 40.5771 13.7771C40.097 13.2945 39.6202 12.8433 39.1323 12.4032C39.0151 12.2976 38.8104 12.0909 38.7965 11.7894C38.7873 11.5903 38.8612 11.4327 38.9562 11.3128C38.9546 11.2626 38.9533 11.2147 38.952 11.1686C38.9463 10.9573 38.9417 10.7846 38.9071 10.605C38.9042 10.6021 38.901 10.5991 38.8975 10.596C38.8919 10.5909 38.8863 10.5864 38.8811 10.5826C38.6835 10.5613 38.4833 10.5781 38.2096 10.6009C38.1711 10.6041 38.1312 10.6075 38.0896 10.6108C37.9394 10.7146 37.7499 10.7827 37.5273 10.7394C37.2987 10.6949 37.1352 10.5386 37.0754 10.4814C37.0719 10.4781 37.0688 10.4751 37.066 10.4725C36.667 10.0959 36.2699 9.72693 35.8618 9.37293C34.8736 10.4341 33.9053 11.4759 32.9378 12.517C32.9762 13.8198 33.0147 15.1253 33.0527 16.4805C33.0985 16.5432 33.1422 16.6024 33.184 16.6554C33.4271 16.6396 33.6281 16.7117 33.7548 16.7595C33.7825 16.7699 33.8057 16.7788 33.8258 16.7866C33.8809 16.8077 33.9127 16.82 33.949 16.8297C33.9677 16.8348 33.978 16.8362 33.9825 16.8365C33.9869 16.8355 33.9923 16.8342 33.9979 16.8326Z" stroke="#C5B58D" stroke-opacity="0.47"/>
<path d="M36.6141 24.2575L36.6562 24.2822L36.6928 24.3146C36.8493 24.4536 36.9719 24.5727 37.0872 24.6846L37.0892 24.6865L37.0892 24.6865L37.0932 24.6905C37.2872 24.8831 37.4836 25.0764 37.6809 25.2706C38.1785 25.7602 38.682 26.2558 39.1687 26.7626C39.2614 26.8592 39.3382 26.9076 39.4085 26.935C39.4801 26.963 39.574 26.9804 39.7162 26.9755C40.237 26.9578 40.7517 26.9451 41.2659 26.9324C41.9674 26.9151 42.668 26.8978 43.3824 26.8676C43.396 26.1871 43.3894 25.5306 43.367 24.8739C43.3616 24.7163 43.3681 24.4254 43.5753 24.206C43.7122 24.0611 43.8768 24.0047 44.0291 23.9898C44.0641 23.9537 44.0976 23.9195 44.1299 23.8866C44.278 23.7357 44.3989 23.6124 44.5041 23.4628C44.5042 23.4587 44.5042 23.4543 44.504 23.4496C44.5037 23.4421 44.503 23.4349 44.5022 23.4285C44.3802 23.2716 44.2291 23.1392 44.0226 22.9582C43.9935 22.9328 43.9633 22.9063 43.932 22.8788C43.753 22.8429 43.5725 22.7538 43.449 22.5636C43.3222 22.3682 43.321 22.142 43.3206 22.0593C43.3206 22.0545 43.3206 22.0502 43.3205 22.0464C43.3142 21.4977 43.3038 20.9558 43.275 20.4163C41.8251 20.4426 40.4031 20.4698 38.9821 20.497C38.0717 21.4296 37.1592 22.3642 36.2109 23.3329C36.1975 23.4095 36.1853 23.482 36.1763 23.5489C36.3565 23.7128 36.4442 23.9074 36.4979 24.0318C36.5096 24.059 36.5193 24.0818 36.5277 24.1017C36.5508 24.1561 36.5641 24.1874 36.5822 24.2203C36.5916 24.2372 36.5978 24.2456 36.6006 24.2491C36.6044 24.2516 36.6091 24.2546 36.6141 24.2575Z" stroke="#C5B58D" stroke-opacity="0.47"/>
<path d="M33.0474 32.2776L33.0614 32.3244L33.066 32.3731C33.0857 32.5815 33.0942 32.7522 33.1021 32.9127L33.1023 32.9154L33.1023 32.9154L33.1025 32.921C33.113 33.1943 33.1248 33.4695 33.1367 33.7461C33.1667 34.4436 33.197 35.1494 33.2072 35.852C33.2092 35.9859 33.2323 36.0737 33.265 36.1416C33.2983 36.2109 33.3551 36.2877 33.4624 36.3811C33.8555 36.7233 34.2405 37.065 34.6253 37.4065C35.1501 37.8722 35.6743 38.3374 36.2173 38.8025C36.6914 38.3141 37.1343 37.8295 37.5658 37.334C37.6694 37.215 37.8724 37.0066 38.1736 36.9875C38.3726 36.9749 38.5314 37.0459 38.653 37.1389C38.7031 37.1363 38.751 37.1342 38.797 37.1322C39.0082 37.1228 39.1808 37.1151 39.3598 37.0774C39.3626 37.0745 39.3656 37.0712 39.3686 37.0677C39.3736 37.062 39.378 37.0563 39.3817 37.051C39.3995 36.8531 39.3793 36.6532 39.3517 36.38C39.3478 36.3415 39.3438 36.3016 39.3397 36.2601C39.2333 36.1118 39.162 35.9235 39.2014 35.7002C39.2419 35.4708 39.3953 35.3046 39.4514 35.2438C39.4547 35.2403 39.4576 35.2371 39.4602 35.2343C39.8297 34.8287 40.1917 34.4253 40.5385 34.0111C39.4603 33.0415 38.4017 32.0916 37.3439 31.1424C36.042 31.2035 34.7373 31.2648 33.3831 31.3265C33.3211 31.3734 33.2626 31.4181 33.2105 31.4608C33.2304 31.7036 33.1619 31.9057 33.1163 32.0333C33.1064 32.0612 33.0979 32.0845 33.0905 32.1048C33.0703 32.1603 33.0586 32.1923 33.0495 32.2287C33.0448 32.2475 33.0435 32.2578 33.0433 32.2623C33.0444 32.2667 33.0458 32.2721 33.0474 32.2776Z" stroke="#C5B58D" stroke-opacity="0.47"/>
<path d="M26.8817 20.4016L27.0046 20.5091L27.1672 20.5233L28.7041 20.658L28.8353 22.2652L28.8479 22.42L28.946 22.5403L29.9557 23.7796L28.946 25.019L28.8479 25.1393L28.8353 25.2941L28.7041 26.9013L27.1672 27.036L27.0046 27.0502L26.8817 27.1577L25.7098 28.1824L24.538 27.1577L24.4151 27.0502L24.2525 27.036L22.7156 26.9013L22.5844 25.2941L22.5717 25.1393L22.4737 25.019L21.464 23.7796L22.4737 22.5403L22.5717 22.42L22.5844 22.2652L22.7156 20.658L24.2525 20.5233L24.4151 20.5091L24.538 20.4016L25.7098 19.3769L26.8817 20.4016Z" stroke="#C5B58D" stroke-opacity="0.47"/>
<mask id="path-51-inside-9_273_3614" fill="white">
<path d="M29.0517 32.4528L27.8366 31.3542L28.934 30.8189L29.0517 32.4528Z"/>
</mask>
<path d="M29.0517 32.4528L28.381 33.1946L30.2279 34.8644L30.0491 32.381L29.0517 32.4528ZM27.8366 31.3542L27.3982 30.4554L26.0686 31.1039L27.1659 32.096L27.8366 31.3542ZM28.934 30.8189L29.9315 30.7471L29.8252 29.2717L28.4957 29.9202L28.934 30.8189ZM29.7223 31.7111L28.5072 30.6125L27.1659 32.096L28.381 33.1946L29.7223 31.7111ZM28.2749 32.253L29.3724 31.7177L28.4957 29.9202L27.3982 30.4554L28.2749 32.253ZM27.9366 30.8908L28.0543 32.5246L30.0491 32.381L29.9315 30.7471L27.9366 30.8908Z" fill="#C5B58D" fill-opacity="0.47" mask="url(#path-51-inside-9_273_3614)"/>
<mask id="path-53-inside-10_273_3614" fill="white">
<path d="M34.2213 20.5078L33.1016 21.7036L32.5856 20.5969L34.2213 20.5078Z"/>
</mask>
<path d="M34.2213 20.5078L34.9512 21.1913L36.653 19.3739L34.1669 19.5093L34.2213 20.5078ZM33.1016 21.7036L32.1953 22.1262L32.8205 23.4669L33.8316 22.3871L33.1016 21.7036ZM32.5856 20.5969L32.5312 19.5984L31.0541 19.6789L31.6793 21.0195L32.5856 20.5969ZM33.4913 19.8243L32.3717 21.0201L33.8316 22.3871L34.9512 21.1913L33.4913 19.8243ZM34.0079 21.2809L33.4919 20.1743L31.6793 21.0195L32.1953 22.1262L34.0079 21.2809ZM32.64 21.5954L34.2757 21.5063L34.1669 19.5093L32.5312 19.5984L32.64 21.5954Z" fill="#C5B58D" fill-opacity="0.47" mask="url(#path-53-inside-10_273_3614)"/>
<mask id="path-55-inside-11_273_3614" fill="white">
<path d="M29.1465 15.4627L28.8869 17.0801L27.8403 16.4512L29.1465 15.4627Z"/>
</mask>
<path d="M29.1465 15.4627L30.1339 15.6212L30.5284 13.1628L28.5431 14.6653L29.1465 15.4627ZM28.8869 17.0801L28.3719 17.9373L29.6399 18.6992L29.8743 17.2386L28.8869 17.0801ZM27.8403 16.4512L27.2368 15.6538L26.0573 16.5465L27.3252 17.3084L27.8403 16.4512ZM28.1592 15.3042L27.8996 16.9217L29.8743 17.2386L30.1339 15.6212L28.1592 15.3042ZM29.402 16.223L28.3553 15.5941L27.3252 17.3084L28.3719 17.9373L29.402 16.223ZM28.4437 17.2486L29.75 16.2601L28.5431 14.6653L27.2368 15.6538L28.4437 17.2486Z" fill="#C5B58D" fill-opacity="0.47" mask="url(#path-55-inside-11_273_3614)"/>
<mask id="path-57-inside-12_273_3614" fill="white">
<path d="M34.2131 27.5986L32.5774 27.5095L33.0934 26.4029L34.2131 27.5986Z"/>
</mask>
<path d="M34.2131 27.5986L34.1587 28.5972L36.6448 28.7326L34.943 26.9151L34.2131 27.5986ZM32.5774 27.5095L31.671 27.0869L31.0459 28.4276L32.523 28.5081L32.5774 27.5095ZM33.0934 26.4029L33.8233 25.7194L32.8123 24.6396L32.1871 25.9803L33.0934 26.4029ZM34.2674 26.6001L32.6317 26.511L32.523 28.5081L34.1587 28.5972L34.2674 26.6001ZM33.4837 27.9322L33.9997 26.8255L32.1871 25.9803L31.671 27.0869L33.4837 27.9322ZM32.3634 27.0864L33.4831 28.2821L34.943 26.9151L33.8233 25.7194L32.3634 27.0864Z" fill="#C5B58D" fill-opacity="0.47" mask="url(#path-57-inside-12_273_3614)"/>
<mask id="path-59-inside-13_273_3614" fill="white">
<path d="M22.1378 15.4666L23.3529 16.5652L22.2554 17.1005L22.1378 15.4666Z"/>
</mask>
<path d="M22.1378 15.4666L22.8084 14.7248L20.9616 13.055L21.1404 15.5384L22.1378 15.4666ZM23.3529 16.5652L23.7913 17.464L25.1208 16.8155L24.0235 15.8234L23.3529 16.5652ZM22.2554 17.1005L21.258 17.1723L21.3642 18.6478L22.6938 17.9993L22.2554 17.1005ZM21.4671 16.2084L22.6822 17.307L24.0235 15.8234L22.8084 14.7248L21.4671 16.2084ZM22.9145 15.6664L21.817 16.2017L22.6938 17.9993L23.7913 17.464L22.9145 15.6664ZM23.2528 17.0287L23.1352 15.3948L21.1404 15.5384L21.258 17.1723L23.2528 17.0287Z" fill="#C5B58D" fill-opacity="0.47" mask="url(#path-59-inside-13_273_3614)"/>
<mask id="path-61-inside-14_273_3614" fill="white">
<path d="M16.9682 27.4119L18.0878 26.2161L18.6039 27.3228L16.9682 27.4119Z"/>
</mask>
<path d="M16.9682 27.4119L16.2382 26.7284L14.5364 28.5458L17.0226 28.4104L16.9682 27.4119ZM18.0878 26.2161L18.9941 25.7935L18.369 24.4528L17.3579 25.5326L18.0878 26.2161ZM18.6039 27.3228L18.6583 28.3213L20.1354 28.2408L19.5102 26.9001L18.6039 27.3228ZM17.6981 28.0954L18.8178 26.8996L17.3579 25.5326L16.2382 26.7284L17.6981 28.0954ZM17.1815 26.6387L17.6976 27.7454L19.5102 26.9001L18.9941 25.7935L17.1815 26.6387ZM18.5495 26.3242L16.9138 26.4133L17.0226 28.4104L18.6583 28.3213L18.5495 26.3242Z" fill="#C5B58D" fill-opacity="0.47" mask="url(#path-61-inside-14_273_3614)"/>
<mask id="path-63-inside-15_273_3614" fill="white">
<path d="M22.0429 32.4567L22.3025 30.8393L23.3492 31.4682L22.0429 32.4567Z"/>
</mask>
<path d="M22.0429 32.4567L21.0556 32.2983L20.661 34.7566L22.6464 33.2541L22.0429 32.4567ZM22.3025 30.8393L22.8176 29.9821L21.5496 29.2203L21.3152 30.6808L22.3025 30.8393ZM23.3492 31.4682L23.9526 32.2656L25.1322 31.3729L23.8642 30.611L23.3492 31.4682ZM23.0303 32.6152L23.2899 30.9978L21.3152 30.6808L21.0556 32.2983L23.0303 32.6152ZM21.7875 31.6965L22.8341 32.3254L23.8642 30.611L22.8176 29.9821L21.7875 31.6965ZM22.7457 30.6708L21.4395 31.6593L22.6464 33.2541L23.9526 32.2656L22.7457 30.6708Z" fill="#C5B58D" fill-opacity="0.47" mask="url(#path-63-inside-15_273_3614)"/>
<mask id="path-65-inside-16_273_3614" fill="white">
<path d="M16.9764 20.3208L18.6121 20.4099L18.0961 21.5165L16.9764 20.3208Z"/>
</mask>
<path d="M16.9764 20.3208L17.0308 19.3223L14.5447 19.1869L16.2465 21.0043L16.9764 20.3208ZM18.6121 20.4099L19.5184 20.8325L20.1436 19.4918L18.6665 19.4114L18.6121 20.4099ZM18.0961 21.5165L17.3661 22.2L18.3772 23.2798L19.0024 21.9392L18.0961 21.5165ZM16.922 21.3193L18.5577 21.4084L18.6665 19.4114L17.0308 19.3223L16.922 21.3193ZM17.7058 19.9873L17.1898 21.0939L19.0024 21.9392L19.5184 20.8325L17.7058 19.9873ZM18.826 20.833L17.7064 19.6373L16.2465 21.0043L17.3661 22.2L18.826 20.833Z" fill="#C5B58D" fill-opacity="0.47" mask="url(#path-65-inside-16_273_3614)"/>
<path d="M74.2815 234.356L74.2568 234.329C74.1759 234.241 74.1066 234.172 74.0444 234.11L74.0426 234.109L74.0426 234.109L74.0386 234.105C73.9329 234.002 73.8262 233.897 73.7187 233.792C73.4451 233.523 73.1656 233.249 72.8812 232.985C72.8474 232.954 72.8412 232.939 72.8401 232.936L72.84 232.936C72.8386 232.932 72.8309 232.913 72.8319 232.857C72.8367 232.568 72.8387 232.284 72.8408 232.002C72.843 231.691 72.8452 231.381 72.8512 231.066C73.1439 231.059 73.4301 231.058 73.7167 231.063C73.8094 231.064 74.0535 231.062 74.2422 230.878C74.3399 230.782 74.3887 230.675 74.4105 230.573C74.4177 230.566 74.4247 230.559 74.4314 230.552C74.4516 230.531 74.4699 230.512 74.4873 230.495C74.5152 230.524 74.5461 230.558 74.5828 230.599C74.5892 230.606 74.5959 230.613 74.6027 230.621C74.6415 230.744 74.7183 230.871 74.8637 230.961C75.0323 231.067 75.2199 231.062 75.2629 231.061C75.2656 231.061 75.2677 231.061 75.2692 231.061C75.4938 231.06 75.7147 231.06 75.9335 231.064C75.933 231.75 75.9319 232.426 75.9307 233.1C75.4774 233.559 75.0225 234.018 74.5534 234.494C74.4656 234.432 74.3827 234.397 74.3328 234.377C74.3089 234.367 74.2928 234.361 74.2815 234.356Z" stroke="#C5B58D" stroke-opacity="0.47"/>
<path d="M69.8477 236.333L69.8113 236.33C69.6921 236.321 69.5944 236.318 69.5068 236.315L69.5041 236.315L69.5041 236.315L69.4985 236.315C69.3512 236.312 69.2018 236.308 69.0511 236.304C68.668 236.294 68.2765 236.284 67.8886 236.286C67.8426 236.286 67.8276 236.279 67.825 236.277L67.8248 236.277C67.8213 236.276 67.8027 236.267 67.7654 236.226C67.5713 236.011 67.3795 235.802 67.1886 235.594C66.9778 235.365 66.7682 235.137 66.558 234.903C66.7669 234.697 66.9756 234.502 67.1885 234.31C67.2573 234.248 67.4346 234.08 67.4467 233.816C67.453 233.68 67.4152 233.568 67.362 233.478C67.3622 233.468 67.3625 233.458 67.3627 233.448C67.3634 233.42 67.3641 233.394 67.365 233.369C67.4054 233.371 67.4511 233.375 67.5055 233.38C67.5151 233.38 67.5249 233.381 67.535 233.382C67.6472 233.446 67.79 233.486 67.9583 233.453C68.1534 233.415 68.2876 233.284 68.3183 233.254C68.3203 233.252 68.3218 233.251 68.3229 233.25C68.4862 233.096 68.6478 232.945 68.8109 232.799C69.2782 233.301 69.7381 233.796 70.1974 234.29C70.1784 234.934 70.1594 235.581 70.1405 236.248C70.034 236.263 69.9499 236.294 69.8995 236.313C69.8752 236.323 69.8591 236.329 69.8477 236.333Z" stroke="#C5B58D" stroke-opacity="0.47"/>
<path d="M68.2491 240.466L68.2218 240.49C68.1323 240.57 68.0622 240.638 67.9993 240.699L67.9974 240.701L67.9974 240.701L67.9934 240.705C67.8888 240.808 67.7823 240.913 67.6749 241.019C67.4018 241.288 67.1226 241.562 66.854 241.842C66.8221 241.875 66.8067 241.881 66.8039 241.882L66.8038 241.882C66.8002 241.884 66.7809 241.891 66.7254 241.889C66.4357 241.879 66.1523 241.872 65.8703 241.865C65.5589 241.858 65.2492 241.85 64.9349 241.839C64.9323 241.546 64.9365 241.26 64.9463 240.973C64.9494 240.881 64.9519 240.637 64.7706 240.445C64.6768 240.345 64.5699 240.295 64.4688 240.271C64.4616 240.264 64.4546 240.257 64.4478 240.25C64.4276 240.229 64.4092 240.211 64.3922 240.193C64.422 240.165 64.4565 240.135 64.4975 240.099C64.5047 240.093 64.5122 240.086 64.5198 240.08C64.6434 240.043 64.7717 239.968 64.865 239.825C64.9732 239.658 64.9721 239.47 64.9718 239.427C64.9718 239.425 64.9718 239.422 64.9718 239.421C64.9744 239.196 64.9782 238.975 64.9865 238.757C65.6723 238.769 66.3476 238.782 67.0222 238.795C67.4725 239.256 67.9244 239.719 68.3916 240.197C68.3281 240.283 68.2922 240.366 68.2708 240.415C68.2606 240.439 68.2538 240.455 68.2491 240.466Z" stroke="#C5B58D" stroke-opacity="0.47"/>
<path d="M70.1348 245.011L70.1313 245.048C70.1201 245.167 70.1152 245.264 70.1109 245.352L70.1107 245.354L70.1107 245.354L70.1105 245.36C70.1048 245.507 70.0984 245.657 70.092 245.807C70.0755 246.19 70.0587 246.581 70.0531 246.969C70.0524 247.015 70.0452 247.03 70.0439 247.033L70.0438 247.033C70.0421 247.036 70.033 247.055 69.9911 247.091C69.7725 247.282 69.5605 247.47 69.3495 247.657C69.1165 247.864 68.8848 248.069 68.6471 248.275C68.4455 248.063 68.2534 247.851 68.0652 247.635C68.0043 247.565 67.8397 247.385 67.5762 247.368C67.4399 247.359 67.3272 247.395 67.2371 247.447C67.2268 247.446 67.2169 247.446 67.2072 247.446C67.1785 247.444 67.1523 247.443 67.1278 247.442C67.1309 247.401 67.1355 247.356 67.1409 247.302C67.1419 247.292 67.1429 247.282 67.1439 247.272C67.2093 247.161 67.2522 247.019 67.2224 246.85C67.1879 246.654 67.0591 246.518 67.0295 246.487C67.0277 246.485 67.0262 246.483 67.0252 246.482C66.8739 246.316 66.7261 246.152 66.583 245.986C67.0931 245.528 67.5958 245.077 68.098 244.626C68.7419 244.656 69.388 244.686 70.0553 244.717C70.0679 244.824 70.0978 244.908 70.116 244.959C70.1247 244.984 70.1306 245 70.1348 245.011Z" stroke="#C5B58D" stroke-opacity="0.47"/>
<path d="M74.4342 246.814L74.4598 246.839C74.5438 246.925 74.6155 246.991 74.6797 247.051L74.6817 247.053L74.6817 247.053L74.6858 247.056C74.795 247.155 74.9052 247.256 75.0165 247.358C75.2992 247.617 75.5881 247.881 75.8816 248.135C75.9164 248.165 75.9231 248.18 75.9243 248.183L75.9244 248.183C75.926 248.186 75.9343 248.205 75.9353 248.261C75.9406 248.55 75.9484 248.834 75.9563 249.116C75.9649 249.427 75.9735 249.737 75.9785 250.051C75.6862 250.069 75.4003 250.08 75.1137 250.085C75.021 250.087 74.7771 250.097 74.5949 250.288C74.5007 250.387 74.4557 250.497 74.4374 250.599C74.4304 250.606 74.4237 250.614 74.4172 250.621C74.3978 250.642 74.3801 250.661 74.3633 250.679C74.3344 250.651 74.3024 250.618 74.2643 250.579C74.2576 250.572 74.2507 250.565 74.2436 250.558C74.2006 250.436 74.1194 250.312 73.9709 250.227C73.7987 250.127 73.6114 250.138 73.5684 250.141C73.5658 250.141 73.5636 250.141 73.5621 250.141C73.3377 250.15 73.117 250.158 72.8981 250.161C72.8747 249.476 72.8523 248.8 72.8299 248.126C73.2669 247.652 73.7055 247.177 74.1577 246.685C74.2476 246.744 74.3317 246.776 74.3822 246.794C74.4065 246.803 74.4228 246.809 74.4342 246.814Z" stroke="#C5B58D" stroke-opacity="0.47"/>
<path d="M81.6249 229.651L80.1813 228.191C80.0561 228.097 79.9038 228.046 79.7473 228.046H77.3011C76.7253 228.046 76.1768 228.292 75.7933 228.721C76.1776 229.136 76.7176 229.372 77.2833 229.372H77.3847C78.0681 229.372 78.6263 229.918 78.6415 230.602L78.6624 231.542L79.5384 230.778C79.9003 230.462 80.4451 230.48 80.7848 230.82C81.0931 231.128 81.5112 231.301 81.9472 231.301H82.303C82.303 230.683 82.0593 230.09 81.6249 229.651Z" stroke="#C5B58D" stroke-opacity="0.47"/>
<path d="M87.1306 237.657L87.2138 235.605C87.1971 235.45 87.1304 235.304 87.0237 235.189L85.3553 233.4C84.9626 232.979 84.409 232.745 83.8333 232.758C83.7919 233.322 83.9876 233.878 84.3734 234.292L84.4426 234.366C84.9086 234.866 84.8901 235.646 84.4007 236.123L83.727 236.78L84.8837 236.899C85.3616 236.948 85.7197 237.359 85.7029 237.839C85.6877 238.275 85.8462 238.699 86.1435 239.018L86.3862 239.278C86.8381 238.857 87.1055 238.274 87.1306 237.657Z" stroke="#C5B58D" stroke-opacity="0.47"/>
<path d="M85.5573 247.94L87.0423 246.522C87.1384 246.399 87.1918 246.247 87.1945 246.091L87.2372 243.645C87.2472 243.069 87.0113 242.517 86.5885 242.126C86.1669 242.503 85.9215 243.039 85.9117 243.604L85.9099 243.706C85.898 244.389 85.3424 244.937 84.659 244.941L83.7181 244.945L84.4674 245.834C84.777 246.202 84.749 246.746 84.4035 247.08C84.0899 247.383 83.9094 247.798 83.9018 248.234L83.8956 248.589C84.5134 248.6 85.1105 248.367 85.5573 247.94Z" stroke="#C5B58D" stroke-opacity="0.47"/>
<path d="M77.6544 253.296L79.7074 253.271C79.8619 253.246 80.0042 253.172 80.1129 253.06L81.8122 251.3C82.2122 250.886 82.4166 250.321 82.374 249.746C81.8085 249.734 81.2637 249.959 80.8708 250.366L80.8003 250.439C80.3256 250.931 79.5451 250.953 79.0431 250.489L78.3519 249.851L78.2935 251.012C78.2693 251.492 77.8776 251.871 77.3973 251.879C76.9614 251.887 76.5464 252.067 76.2435 252.381L75.9963 252.637C76.4408 253.066 77.0366 253.303 77.6544 253.296Z" stroke="#C5B58D" stroke-opacity="0.47"/>
<path d="M67.4542 229.603L68.8978 228.143C69.023 228.049 69.1753 227.998 69.3318 227.998H71.778C72.3538 227.998 72.9023 228.244 73.2858 228.673C72.9015 229.088 72.3615 229.324 71.7959 229.324H71.6944C71.011 229.324 70.4528 229.87 70.4376 230.553L70.4167 231.494L69.5407 230.729C69.1788 230.413 68.634 230.432 68.2943 230.772C67.986 231.08 67.5679 231.253 67.1319 231.253H66.7761C66.7761 230.635 67.0198 230.042 67.4542 229.603Z" stroke="#C5B58D" stroke-opacity="0.47"/>
<path d="M61.9485 237.609L61.8653 235.557C61.882 235.402 61.9487 235.256 62.0554 235.141L63.7238 233.352C64.1165 232.931 64.6701 232.697 65.2458 232.71C65.2872 233.274 65.0915 233.83 64.7057 234.243L64.6365 234.318C64.1705 234.817 64.1891 235.598 64.6784 236.075L65.3521 236.732L64.1954 236.851C63.7175 236.9 63.3594 237.311 63.3762 237.791C63.3914 238.227 63.2329 238.651 62.9356 238.97L62.6929 239.23C62.241 238.809 61.9736 238.226 61.9485 237.609Z" stroke="#C5B58D" stroke-opacity="0.47"/>
<path d="M63.5218 247.892L62.0368 246.474C61.9407 246.351 61.8873 246.199 61.8846 246.043L61.8419 243.597C61.8319 243.021 62.0678 242.469 62.4906 242.078C62.9122 242.455 63.1576 242.991 63.1674 243.556L63.1692 243.657C63.1811 244.341 63.7367 244.889 64.4201 244.893L65.361 244.897L64.6117 245.786C64.3021 246.154 64.3301 246.698 64.6756 247.032C64.9892 247.335 65.1697 247.75 65.1773 248.186L65.1835 248.541C64.5657 248.552 63.9686 248.319 63.5218 247.892Z" stroke="#C5B58D" stroke-opacity="0.47"/>
<path d="M71.4247 253.247L69.3717 253.223C69.2172 253.198 69.0749 253.124 68.9662 253.011L67.2669 251.252C66.8669 250.838 66.6625 250.272 66.7051 249.698C67.2706 249.686 67.8154 249.911 68.2083 250.318L68.2788 250.391C68.7535 250.882 69.534 250.905 70.036 250.441L70.7273 249.803L70.7856 250.964C70.8098 251.444 71.2015 251.823 71.6818 251.831C72.1177 251.839 72.5327 252.019 72.8356 252.333L73.0828 252.589C72.6383 253.018 72.0425 253.255 71.4247 253.247Z" stroke="#C5B58D" stroke-opacity="0.47"/>
<path d="M78.9145 236.43L78.9509 236.427C79.0701 236.418 79.1678 236.414 79.2554 236.412L79.2581 236.411L79.2581 236.411L79.2637 236.411C79.411 236.408 79.5604 236.404 79.7111 236.401C80.0942 236.391 80.4857 236.381 80.8736 236.382C80.9196 236.382 80.9346 236.375 80.9372 236.374L80.9374 236.374C80.9409 236.372 80.9595 236.363 80.9968 236.322C81.1909 236.107 81.3827 235.898 81.5736 235.691C81.7844 235.461 81.994 235.233 82.2042 234.999C81.9953 234.794 81.7866 234.598 81.5737 234.406C81.5049 234.344 81.3276 234.176 81.3155 233.912C81.3092 233.776 81.347 233.664 81.4002 233.575C81.4 233.565 81.3997 233.555 81.3995 233.545C81.3988 233.516 81.3981 233.49 81.3972 233.465C81.3568 233.468 81.3111 233.472 81.2567 233.476C81.2471 233.477 81.2373 233.478 81.2272 233.479C81.115 233.542 80.9722 233.582 80.8039 233.55C80.6088 233.512 80.4746 233.381 80.4439 233.351C80.442 233.349 80.4404 233.347 80.4393 233.346C80.276 233.192 80.1144 233.041 79.9513 232.895C79.484 233.397 79.0241 233.892 78.5648 234.386C78.5838 235.031 78.6028 235.677 78.6217 236.345C78.7282 236.359 78.8123 236.391 78.8627 236.41C78.887 236.419 78.9031 236.425 78.9145 236.43Z" stroke="#C5B58D" stroke-opacity="0.47"/>
<path d="M80.5134 240.562L80.5407 240.587C80.6301 240.666 80.7003 240.734 80.7631 240.795L80.765 240.797L80.765 240.797L80.769 240.801C80.8736 240.905 80.9801 241.01 81.0876 241.115C81.3607 241.384 81.6398 241.659 81.9085 241.939C81.9403 241.972 81.9558 241.978 81.9585 241.979L81.9587 241.979C81.9623 241.98 81.9815 241.988 82.0371 241.986C82.3267 241.976 82.6101 241.969 82.8921 241.962C83.2036 241.954 83.5132 241.947 83.8276 241.935C83.8302 241.642 83.826 241.356 83.8162 241.07C83.813 240.977 83.8106 240.733 83.9919 240.541C84.0857 240.442 84.1925 240.391 84.2936 240.367C84.3008 240.36 84.3078 240.353 84.3146 240.346C84.3348 240.326 84.3532 240.307 84.3702 240.289C84.3404 240.262 84.306 240.232 84.2649 240.196C84.2577 240.189 84.2503 240.183 84.2427 240.176C84.1191 240.139 83.9908 240.065 83.8974 239.921C83.7892 239.754 83.7904 239.567 83.7906 239.524C83.7906 239.521 83.7907 239.519 83.7906 239.517C83.7881 239.293 83.7842 239.072 83.7759 238.853C83.0902 238.866 82.4148 238.879 81.7402 238.892C81.29 239.353 80.838 239.816 80.3708 240.293C80.4344 240.38 80.4702 240.462 80.4916 240.511C80.5019 240.535 80.5086 240.551 80.5134 240.562Z" stroke="#C5B58D" stroke-opacity="0.47"/>
<path d="M78.6277 245.108L78.6311 245.144C78.6424 245.263 78.6472 245.361 78.6516 245.448L78.6517 245.451L78.6517 245.451L78.652 245.456C78.6576 245.604 78.664 245.753 78.6705 245.904C78.6869 246.287 78.7037 246.678 78.7094 247.066C78.7101 247.112 78.7173 247.127 78.7186 247.129L78.7187 247.129C78.7203 247.133 78.7294 247.151 78.7713 247.188C78.9899 247.378 79.202 247.566 79.4129 247.753C79.6459 247.96 79.8776 248.166 80.1154 248.372C80.3169 248.16 80.509 247.947 80.6972 247.731C80.7581 247.661 80.9228 247.481 81.1862 247.464C81.3226 247.456 81.4353 247.492 81.5253 247.543C81.5356 247.543 81.5456 247.542 81.5552 247.542C81.584 247.541 81.6102 247.54 81.6347 247.538C81.6316 247.498 81.627 247.452 81.6215 247.398C81.6206 247.388 81.6196 247.379 81.6186 247.368C81.5532 247.257 81.5102 247.115 81.54 246.947C81.5746 246.751 81.7034 246.614 81.7329 246.583C81.7348 246.581 81.7362 246.58 81.7372 246.578C81.8885 246.412 82.0363 246.248 82.1794 246.083C81.6693 245.624 81.1666 245.173 80.6644 244.722C80.0206 244.753 79.3744 244.783 78.7072 244.813C78.6945 244.92 78.6646 245.005 78.6465 245.056C78.6378 245.08 78.6319 245.096 78.6277 245.108Z" stroke="#C5B58D" stroke-opacity="0.47"/>
<path d="M74.8732 238.785L74.9961 238.893L75.1587 238.907L75.8093 238.964L75.8656 239.653L75.8782 239.808L75.9763 239.928L76.4123 240.463L75.9763 240.998L75.8782 241.119L75.8656 241.273L75.8093 241.962L75.1587 242.019L74.9961 242.034L74.8732 242.141L74.381 242.571L73.8888 242.141L73.7659 242.034L73.6033 242.019L72.9527 241.962L72.8964 241.273L72.8838 241.119L72.7857 240.998L72.3498 240.463L72.7857 239.928L72.8838 239.808L72.8964 239.653L72.9527 238.964L73.6033 238.907L73.7659 238.893L73.8888 238.785L74.381 238.355L74.8732 238.785Z" stroke="#C5B58D" stroke-opacity="0.47"/>
<mask id="path-84-inside-17_273_3614" fill="white">
<path d="M76.2092 245.209L75.5443 244.608L76.1448 244.315L76.2092 245.209Z"/>
</mask>
<path d="M76.2092 245.209L75.5385 245.951L77.3854 247.621L77.2066 245.137L76.2092 245.209ZM75.5443 244.608L75.1059 243.709L73.7764 244.358L74.8736 245.35L75.5443 244.608ZM76.1448 244.315L77.1422 244.243L77.036 242.768L75.7065 243.416L76.1448 244.315ZM76.8799 244.467L76.215 243.866L74.8736 245.35L75.5385 245.951L76.8799 244.467ZM75.9827 245.507L76.5832 245.214L75.7065 243.416L75.1059 243.709L75.9827 245.507ZM75.1474 244.387L75.2118 245.281L77.2066 245.137L77.1422 244.243L75.1474 244.387Z" fill="#C5B58D" fill-opacity="0.47" mask="url(#path-84-inside-17_273_3614)"/>
<mask id="path-86-inside-18_273_3614" fill="white">
<path d="M79.038 238.673L78.4254 239.327L78.143 238.722L79.038 238.673Z"/>
</mask>
<path d="M79.038 238.673L79.768 239.356L81.4698 237.539L78.9836 237.674L79.038 238.673ZM78.4254 239.327L77.5191 239.75L78.1442 241.09L79.1553 240.011L78.4254 239.327ZM78.143 238.722L78.0886 237.723L76.6115 237.804L77.2367 239.144L78.143 238.722ZM78.3081 237.989L77.6954 238.644L79.1553 240.011L79.768 239.356L78.3081 237.989ZM79.3317 238.905L79.0493 238.299L77.2367 239.144L77.5191 239.75L79.3317 238.905ZM78.1974 239.72L79.0924 239.671L78.9836 237.674L78.0886 237.723L78.1974 239.72Z" fill="#C5B58D" fill-opacity="0.47" mask="url(#path-86-inside-18_273_3614)"/>
<mask id="path-88-inside-19_273_3614" fill="white">
<path d="M76.2611 235.912L76.119 236.797L75.5463 236.453L76.2611 235.912Z"/>
</mask>
<path d="M76.2611 235.912L77.2484 236.071L77.643 233.612L75.6576 235.115L76.2611 235.912ZM76.119 236.797L75.604 237.654L76.872 238.416L77.1064 236.956L76.119 236.797ZM75.5463 236.453L74.9429 235.656L73.7633 236.548L75.0313 237.31L75.5463 236.453ZM75.2737 235.754L75.1317 236.639L77.1064 236.956L77.2484 236.071L75.2737 235.754ZM76.6341 235.94L76.0614 235.596L75.0313 237.31L75.604 237.654L76.6341 235.94ZM76.1498 237.25L76.8645 236.709L75.6576 235.115L74.9429 235.656L76.1498 237.25Z" fill="#C5B58D" fill-opacity="0.47" mask="url(#path-88-inside-19_273_3614)"/>
<mask id="path-90-inside-20_273_3614" fill="white">
<path d="M79.0337 242.553L78.1387 242.504L78.4211 241.898L79.0337 242.553Z"/>
</mask>
<path d="M79.0337 242.553L78.9794 243.551L81.4655 243.687L79.7637 241.869L79.0337 242.553ZM78.1387 242.504L77.2324 242.081L76.6072 243.422L78.0843 243.503L78.1387 242.504ZM78.4211 241.898L79.151 241.215L78.1399 240.135L77.5148 241.476L78.4211 241.898ZM79.0881 241.554L78.1931 241.505L78.0843 243.503L78.9794 243.551L79.0881 241.554ZM79.045 242.927L79.3274 242.321L77.5148 241.476L77.2324 242.081L79.045 242.927ZM77.6911 242.582L78.3038 243.236L79.7637 241.869L79.151 241.215L77.6911 242.582Z" fill="#C5B58D" fill-opacity="0.47" mask="url(#path-90-inside-20_273_3614)"/>
<mask id="path-92-inside-21_273_3614" fill="white">
<path d="M72.4263 235.914L73.0912 236.515L72.4907 236.808L72.4263 235.914Z"/>
</mask>
<path d="M72.4263 235.914L73.097 235.172L71.2501 233.503L71.4289 235.986L72.4263 235.914ZM73.0912 236.515L73.5296 237.414L74.8591 236.766L73.7619 235.774L73.0912 236.515ZM72.4907 236.808L71.4933 236.88L71.5995 238.355L72.929 237.707L72.4907 236.808ZM71.7556 236.656L72.4205 237.257L73.7619 235.774L73.097 235.172L71.7556 236.656ZM72.6528 235.617L72.0523 235.909L72.929 237.707L73.5296 237.414L72.6528 235.617ZM73.4881 236.736L73.4237 235.842L71.4289 235.986L71.4933 236.88L73.4881 236.736Z" fill="#C5B58D" fill-opacity="0.47" mask="url(#path-92-inside-21_273_3614)"/>
<mask id="path-94-inside-22_273_3614" fill="white">
<path d="M69.5972 242.45L70.2099 241.796L70.4923 242.402L69.5972 242.45Z"/>
</mask>
<path d="M69.5972 242.45L68.8673 241.767L67.1655 243.584L69.6516 243.449L69.5972 242.45ZM70.2099 241.796L71.1162 241.374L70.491 240.033L69.4799 241.113L70.2099 241.796ZM70.4923 242.402L70.5467 243.4L72.0237 243.32L71.3986 241.979L70.4923 242.402ZM70.3272 243.134L70.9398 242.48L69.4799 241.113L68.8673 241.767L70.3272 243.134ZM69.3036 242.219L69.586 242.824L71.3986 241.979L71.1162 241.374L69.3036 242.219ZM70.4379 241.403L69.5428 241.452L69.6516 243.449L70.5467 243.4L70.4379 241.403Z" fill="#C5B58D" fill-opacity="0.47" mask="url(#path-94-inside-22_273_3614)"/>
<mask id="path-96-inside-23_273_3614" fill="white">
<path d="M72.3742 245.211L72.5162 244.326L73.0889 244.67L72.3742 245.211Z"/>
</mask>
<path d="M72.3742 245.211L71.3868 245.053L70.9923 247.511L72.9776 246.009L72.3742 245.211ZM72.5162 244.326L73.0313 243.469L71.7633 242.707L71.5289 244.168L72.5162 244.326ZM73.0889 244.67L73.6924 245.468L74.872 244.575L73.604 243.813L73.0889 244.67ZM73.3615 245.37L73.5036 244.485L71.5289 244.168L71.3868 245.053L73.3615 245.37ZM72.0012 245.183L72.5739 245.527L73.604 243.813L73.0313 243.469L72.0012 245.183ZM72.4855 243.873L71.7707 244.414L72.9776 246.009L73.6924 245.468L72.4855 243.873Z" fill="#C5B58D" fill-opacity="0.47" mask="url(#path-96-inside-23_273_3614)"/>
<mask id="path-98-inside-24_273_3614" fill="white">
<path d="M69.6015 238.571L70.4965 238.619L70.2142 239.225L69.6015 238.571Z"/>
</mask>
<path d="M69.6015 238.571L69.6559 237.572L67.1698 237.437L68.8716 239.254L69.6015 238.571ZM70.4965 238.619L71.4029 239.042L72.028 237.701L70.5509 237.621L70.4965 238.619ZM70.2142 239.225L69.4842 239.908L70.4953 240.988L71.1205 239.647L70.2142 239.225ZM69.5471 239.569L70.4422 239.618L70.5509 237.621L69.6559 237.572L69.5471 239.569ZM69.5902 238.197L69.3079 238.802L71.1205 239.647L71.4029 239.042L69.5902 238.197ZM70.9441 238.541L70.3315 237.887L68.8716 239.254L69.4842 239.908L70.9441 238.541Z" fill="#C5B58D" fill-opacity="0.47" mask="url(#path-98-inside-24_273_3614)"/>
</svg>
