<svg width="998" height="998" viewBox="0 0 998 998" fill="none" xmlns="http://www.w3.org/2000/svg">
<circle cx="499.647" cy="500.942" r="140.592" stroke="#ccc"/>
<circle cx="502.236" cy="500.942" r="224.73" stroke="#ccc"/>
<circle cx="500.294" cy="499" r="318.575" stroke="#ccc"/>
<circle cx="499" cy="501.589" r="420.835" stroke="#ccc"/>
<circle cx="499" cy="499" r="498.5" stroke="#ccc"/>
<g filter="url(#filter0_dd_235_464)">
<circle cx="649" cy="526" r="27" fill="url(#paint0_linear_235_464)"/>
</g>
<circle cx="648" cy="527" r="15" stroke="#FFCF59" stroke-width="4"/>
<line x1="640.59" y1="527.036" x2="655.409" y2="527.036" stroke="#FFCF59" stroke-width="4"/>
<g filter="url(#filter1_dd_235_464)">
<circle cx="82" cy="454" r="45" fill="url(#paint1_linear_235_464)"/>
</g>
<path d="M57.8565 472.742C58.1307 468.187 60.5123 463.906 64.5017 460.797C68.4912 457.688 73.7784 455.993 79.2544 456.067C84.7304 456.142 89.9697 457.98 93.8732 461.196C97.7767 464.412 100.041 468.756 100.192 473.317" fill="#9848FF"/>
<path d="M64.7117 473.829C64.8711 470.544 66.4827 467.442 69.2083 465.176C71.934 462.91 75.5619 461.654 79.3311 461.673C83.1003 461.691 86.718 462.983 89.4252 465.276C92.1324 467.569 93.7188 470.686 93.8517 473.973" fill="#FAFDFD"/>
<path d="M97.3114 428.674C97.0916 432.831 94.9562 436.75 91.3531 439.609C87.75 442.468 82.9592 444.045 77.9855 444.009C73.0119 443.973 68.242 442.327 64.6762 439.416C61.1105 436.505 59.0261 432.556 58.8601 428.396" fill="#9848FF"/>
<path d="M91.8139 428.099C91.6445 430.764 90.1405 433.293 87.6174 435.155C85.0943 437.017 81.7482 438.068 78.2808 438.086C74.8135 438.104 71.4944 437.089 69.0198 435.254C66.5452 433.419 65.1073 430.905 65.0078 428.241" fill="#FBFAFB"/>
<path d="M81.865 428.094H75.03V473.772H81.865V428.094Z" fill="#9848FF"/>
<path d="M72.3271 449.191H75.2415H72.3271Z" stroke="#9848FF" stroke-width="0.602362" stroke-miterlimit="3.9"/>
<g opacity="0.73" filter="url(#filter2_dd_235_464)">
<circle cx="877" cy="654" r="33" fill="url(#paint2_linear_235_464)"/>
</g>
<path d="M877 639.667C873.8 639.667 871.167 642.3 871.167 645.5C871.167 647.05 871.8 648.467 872.833 649.517C870.283 651.183 868.667 654.033 868.667 657.167C868.667 662.217 872.783 666.333 877.833 666.333C880.767 666.333 883.667 665.567 886.167 664.1L884.5 661.217C882.467 662.383 880.167 663 877.833 663C874.6 663 872 660.417 872 657.167C871.997 655.883 872.419 654.634 873.2 653.615C873.981 652.596 875.076 651.864 876.317 651.533L885 649.2L884.133 645.983L876.717 648C875.467 647.833 874.5 646.8 874.5 645.5C874.5 644.1 875.6 643 877 643C877.433 643 877.833 643.117 878.25 643.333L879.917 640.45C879.033 639.933 878.017 639.667 877 639.667Z" fill="#A7CE4A"/>
<g opacity="0.5" filter="url(#filter3_dd_235_464)">
<circle cx="238" cy="656" r="33" fill="url(#paint3_linear_235_464)"/>
</g>
<path d="M236.605 667.52C235.218 667.52 233.858 667.493 232.525 667.44C231.192 667.413 229.898 667.373 228.645 667.32C227.392 667.267 226.205 667.187 225.085 667.08C223.965 666.973 222.912 666.867 221.925 666.76L222.565 661.24C223.898 661.373 225.138 661.493 226.285 661.6C227.458 661.68 228.578 661.747 229.645 661.8C230.712 661.853 231.778 661.893 232.845 661.92C233.912 661.92 235.005 661.92 236.125 661.92C238.312 661.92 240.152 661.827 241.645 661.64C243.138 661.453 244.325 661.187 245.205 660.84C246.112 660.493 246.752 660.08 247.125 659.6C247.525 659.12 247.725 658.6 247.725 658.04C247.725 657.533 247.592 657.053 247.325 656.6C247.085 656.147 246.712 655.773 246.205 655.48C245.725 655.187 245.112 655.04 244.365 655.04C243.352 655.04 242.352 655.28 241.365 655.76C240.378 656.24 239.418 656.88 238.485 657.68C237.578 658.453 236.725 659.307 235.925 660.24C235.125 661.147 234.405 662.027 233.765 662.88L227.645 662.2C228.738 660.493 229.925 658.88 231.205 657.36C232.512 655.813 233.898 654.453 235.365 653.28C236.858 652.08 238.405 651.147 240.005 650.48C241.605 649.787 243.232 649.44 244.885 649.44C246.592 649.44 248.072 649.787 249.325 650.48C250.578 651.173 251.552 652.133 252.245 653.36C252.965 654.587 253.325 656 253.325 657.6C253.325 659.52 252.778 661.227 251.685 662.72C250.592 664.213 248.818 665.387 246.365 666.24C243.938 667.093 240.685 667.52 236.605 667.52ZM229.645 663.04L228.805 637.72H234.405L235.125 656.84L229.645 663.04ZM244.125 645.72C243.298 645.72 242.592 645.44 242.005 644.88C241.445 644.32 241.165 643.627 241.165 642.8C241.165 641.973 241.445 641.267 242.005 640.68C242.592 640.093 243.298 639.8 244.125 639.8C244.925 639.8 245.605 640.093 246.165 640.68C246.752 641.267 247.045 641.973 247.045 642.8C247.045 643.627 246.752 644.32 246.165 644.88C245.605 645.44 244.925 645.72 244.125 645.72Z" fill="#F66742"/>
<defs>
<filter id="filter0_dd_235_464" x="604" y="475" width="90" height="97" filterUnits="userSpaceOnUse" color-interpolation-filters="sRGB">
<feFlood flood-opacity="0" result="BackgroundImageFix"/>
<feColorMatrix in="SourceAlpha" type="matrix" values="0 0 0 0 0 0 0 0 0 0 0 0 0 0 0 0 0 0 127 0" result="hardAlpha"/>
<feMorphology radius="3" operator="dilate" in="SourceAlpha" result="effect1_dropShadow_235_464"/>
<feOffset dy="-6"/>
<feGaussianBlur stdDeviation="7.5"/>
<feComposite in2="hardAlpha" operator="out"/>
<feColorMatrix type="matrix" values="0 0 0 0 0 0 0 0 0 0 0 0 0 0 0 0 0 0 0.02 0"/>
<feBlend mode="normal" in2="BackgroundImageFix" result="effect1_dropShadow_235_464"/>
<feColorMatrix in="SourceAlpha" type="matrix" values="0 0 0 0 0 0 0 0 0 0 0 0 0 0 0 0 0 0 127 0" result="hardAlpha"/>
<feOffset dy="4"/>
<feGaussianBlur stdDeviation="7.5"/>
<feComposite in2="hardAlpha" operator="out"/>
<feColorMatrix type="matrix" values="0 0 0 0 0 0 0 0 0 0 0 0 0 0 0 0 0 0 0.05 0"/>
<feBlend mode="normal" in2="effect1_dropShadow_235_464" result="effect2_dropShadow_235_464"/>
<feBlend mode="normal" in="SourceGraphic" in2="effect2_dropShadow_235_464" result="shape"/>
</filter>
<filter id="filter1_dd_235_464" x="19" y="385" width="126" height="133" filterUnits="userSpaceOnUse" color-interpolation-filters="sRGB">
<feFlood flood-opacity="0" result="BackgroundImageFix"/>
<feColorMatrix in="SourceAlpha" type="matrix" values="0 0 0 0 0 0 0 0 0 0 0 0 0 0 0 0 0 0 127 0" result="hardAlpha"/>
<feMorphology radius="3" operator="dilate" in="SourceAlpha" result="effect1_dropShadow_235_464"/>
<feOffset dy="-6"/>
<feGaussianBlur stdDeviation="7.5"/>
<feComposite in2="hardAlpha" operator="out"/>
<feColorMatrix type="matrix" values="0 0 0 0 0 0 0 0 0 0 0 0 0 0 0 0 0 0 0.02 0"/>
<feBlend mode="normal" in2="BackgroundImageFix" result="effect1_dropShadow_235_464"/>
<feColorMatrix in="SourceAlpha" type="matrix" values="0 0 0 0 0 0 0 0 0 0 0 0 0 0 0 0 0 0 127 0" result="hardAlpha"/>
<feOffset dy="4"/>
<feGaussianBlur stdDeviation="7.5"/>
<feComposite in2="hardAlpha" operator="out"/>
<feColorMatrix type="matrix" values="0 0 0 0 0 0 0 0 0 0 0 0 0 0 0 0 0 0 0.05 0"/>
<feBlend mode="normal" in2="effect1_dropShadow_235_464" result="effect2_dropShadow_235_464"/>
<feBlend mode="normal" in="SourceGraphic" in2="effect2_dropShadow_235_464" result="shape"/>
</filter>
<filter id="filter2_dd_235_464" x="826" y="597" width="102" height="109" filterUnits="userSpaceOnUse" color-interpolation-filters="sRGB">
<feFlood flood-opacity="0" result="BackgroundImageFix"/>
<feColorMatrix in="SourceAlpha" type="matrix" values="0 0 0 0 0 0 0 0 0 0 0 0 0 0 0 0 0 0 127 0" result="hardAlpha"/>
<feMorphology radius="3" operator="dilate" in="SourceAlpha" result="effect1_dropShadow_235_464"/>
<feOffset dy="-6"/>
<feGaussianBlur stdDeviation="7.5"/>
<feComposite in2="hardAlpha" operator="out"/>
<feColorMatrix type="matrix" values="0 0 0 0 0 0 0 0 0 0 0 0 0 0 0 0 0 0 0.02 0"/>
<feBlend mode="normal" in2="BackgroundImageFix" result="effect1_dropShadow_235_464"/>
<feColorMatrix in="SourceAlpha" type="matrix" values="0 0 0 0 0 0 0 0 0 0 0 0 0 0 0 0 0 0 127 0" result="hardAlpha"/>
<feOffset dy="4"/>
<feGaussianBlur stdDeviation="7.5"/>
<feComposite in2="hardAlpha" operator="out"/>
<feColorMatrix type="matrix" values="0 0 0 0 0 0 0 0 0 0 0 0 0 0 0 0 0 0 0.05 0"/>
<feBlend mode="normal" in2="effect1_dropShadow_235_464" result="effect2_dropShadow_235_464"/>
<feBlend mode="normal" in="SourceGraphic" in2="effect2_dropShadow_235_464" result="shape"/>
</filter>
<filter id="filter3_dd_235_464" x="187" y="599" width="102" height="109" filterUnits="userSpaceOnUse" color-interpolation-filters="sRGB">
<feFlood flood-opacity="0" result="BackgroundImageFix"/>
<feColorMatrix in="SourceAlpha" type="matrix" values="0 0 0 0 0 0 0 0 0 0 0 0 0 0 0 0 0 0 127 0" result="hardAlpha"/>
<feMorphology radius="3" operator="dilate" in="SourceAlpha" result="effect1_dropShadow_235_464"/>
<feOffset dy="-6"/>
<feGaussianBlur stdDeviation="7.5"/>
<feComposite in2="hardAlpha" operator="out"/>
<feColorMatrix type="matrix" values="0 0 0 0 0 0 0 0 0 0 0 0 0 0 0 0 0 0 0.02 0"/>
<feBlend mode="normal" in2="BackgroundImageFix" result="effect1_dropShadow_235_464"/>
<feColorMatrix in="SourceAlpha" type="matrix" values="0 0 0 0 0 0 0 0 0 0 0 0 0 0 0 0 0 0 127 0" result="hardAlpha"/>
<feOffset dy="4"/>
<feGaussianBlur stdDeviation="7.5"/>
<feComposite in2="hardAlpha" operator="out"/>
<feColorMatrix type="matrix" values="0 0 0 0 0 0 0 0 0 0 0 0 0 0 0 0 0 0 0.05 0"/>
<feBlend mode="normal" in2="effect1_dropShadow_235_464" result="effect2_dropShadow_235_464"/>
<feBlend mode="normal" in="SourceGraphic" in2="effect2_dropShadow_235_464" result="shape"/>
</filter>
<linearGradient id="paint0_linear_235_464" x1="624.7" y1="520.3" x2="676" y2="529.3" gradientUnits="userSpaceOnUse">
<stop stop-color="white"/>
<stop offset="1" stop-color="#E6E8FF"/>
</linearGradient>
<linearGradient id="paint1_linear_235_464" x1="41.5" y1="444.5" x2="127" y2="459.5" gradientUnits="userSpaceOnUse">
<stop stop-color="white"/>
<stop offset="1" stop-color="#E6E8FF"/>
</linearGradient>
<linearGradient id="paint2_linear_235_464" x1="847.3" y1="647.033" x2="910" y2="658.033" gradientUnits="userSpaceOnUse">
<stop stop-color="white"/>
<stop offset="1" stop-color="#E6E8FF"/>
</linearGradient>
<linearGradient id="paint3_linear_235_464" x1="208.3" y1="649.033" x2="271" y2="660.033" gradientUnits="userSpaceOnUse">
<stop stop-color="white"/>
<stop offset="1" stop-color="#E6E8FF"/>
</linearGradient>
</defs>
</svg>
