<svg width="206" height="208" viewBox="0 0 206 208" fill="none" xmlns="http://www.w3.org/2000/svg">
<g opacity="0.16">
<path d="M122.708 190.896L102.607 205.983L82.5055 190.896V159.969L102.607 144.882L122.708 159.969V190.896Z" stroke="#9848FF" stroke-width="3"/>
<path d="M122.708 47.8891L102.607 62.9762L82.5055 47.8891V16.9625L102.607 1.8754L122.708 16.9625V47.8891Z" stroke="#9848FF" stroke-width="3"/>
<path d="M55.5602 179.016L30.7439 175.037L27.6332 150.097L49.8799 128.614L74.6962 132.593L77.8069 157.533L55.5602 179.016Z" stroke="#9848FF" stroke-width="3"/>
<path d="M17.1928 123.466L3.17835 102.603L19.2968 83.3186L50.181 84.9371L64.1954 105.8L48.0769 125.085L17.1928 123.466Z" stroke="#9848FF" stroke-width="3"/>
<path d="M26.9911 60.2915L28.3545 35.1953L52.8328 29.4946L76.5239 49.3738L75.1604 74.4701L50.6822 80.1708L26.9911 60.2915Z" stroke="#9848FF" stroke-width="3"/>
<path d="M82.996 16.9626L103.097 1.8755L123.199 16.9626V47.8892L103.097 62.9763L82.996 47.8892V16.9626Z" stroke="#9848FF" stroke-width="3"/>
<path d="M82.996 159.969L103.097 144.882L123.199 159.969V190.896L103.097 205.983L82.996 190.896V159.969Z" stroke="#9848FF" stroke-width="3"/>
<path d="M150.143 28.8418L174.959 32.821L178.07 57.761L155.823 79.2444L131.007 75.2652L127.896 50.3251L150.143 28.8418Z" stroke="#9848FF" stroke-width="3"/>
<path d="M188.511 84.3922L202.526 105.255L186.407 124.54L155.523 122.921L141.509 102.058L157.627 82.7736L188.511 84.3922Z" stroke="#9848FF" stroke-width="3"/>
<path d="M178.713 147.567L177.35 172.663L152.871 178.364L129.18 158.484L130.544 133.388L155.022 127.687L178.713 147.567Z" stroke="#9848FF" stroke-width="3"/>
<path d="M111.032 81.7583L111.349 82.0009L111.745 82.0537L122.683 83.5117L124.141 94.4503L124.194 94.8462L124.437 95.1634L131.141 103.929L124.437 112.695L124.194 113.012L124.141 113.408L122.683 124.347L111.745 125.805L111.349 125.857L111.032 126.1L102.266 132.804L93.5002 126.1L93.183 125.857L92.7871 125.805L81.8485 124.347L80.3905 113.408L80.3377 113.012L80.0951 112.695L73.3913 103.929L80.0951 95.1634L80.3377 94.8462L80.3905 94.4503L81.8485 83.5117L92.7871 82.0537L93.183 82.0009L93.5002 81.7583L102.266 75.0545L111.032 81.7583Z" stroke="#FF60A8" stroke-width="3"/>
</g>
<g opacity="0.16">
<path d="M117.695 44.1366L102.814 55.3061L87.9319 44.1366V21.0453L102.814 9.87578L117.695 21.0453V44.1366Z" stroke="#9848FF" stroke-width="3"/>
<path d="M54.8616 172.414L36.4893 169.468L34.1863 151.004L50.7968 134.964L69.1692 137.91L71.4722 156.374L54.8616 172.414Z" stroke="#9848FF" stroke-width="3"/>
<path d="M21.2383 118.434L10.8629 102.988L22.796 88.7115L45.8557 89.92L56.231 105.366L44.298 119.643L21.2383 118.434Z" stroke="#9848FF" stroke-width="3"/>
<path d="M33.5862 59.2757L34.5956 40.6961L52.7177 36.4757L70.4067 51.3185L69.3973 69.8981L51.2752 74.1185L33.5862 59.2757Z" stroke="#9848FF" stroke-width="3"/>
<path d="M88.0343 163.045L102.916 151.876L117.798 163.045V186.136L102.916 197.306L88.0343 186.136V163.045Z" stroke="#9848FF" stroke-width="3"/>
<path d="M150.797 34.9639L169.169 37.9099L171.472 56.3739L154.861 72.4145L136.489 69.4685L134.186 51.0045L150.797 34.9639Z" stroke="#9848FF" stroke-width="3"/>
<path d="M183.855 89.9201L194.231 105.366L182.298 119.643L159.238 118.434L148.863 102.988L160.796 88.7116L183.855 89.9201Z" stroke="#9848FF" stroke-width="3"/>
<path d="M172.407 149.319L171.398 167.898L153.275 172.119L135.586 157.276L136.596 138.696L154.718 134.476L172.407 149.319Z" stroke="#9848FF" stroke-width="3"/>
<path d="M108.757 87.8039L109.074 88.0465L109.47 88.0993L117.491 89.1684L118.56 97.1891L118.613 97.5849L118.855 97.9021L123.771 104.33L118.855 110.757L118.613 111.074L118.56 111.47L117.491 119.491L109.47 120.56L109.074 120.613L108.757 120.855L102.33 125.771L95.9021 120.855L95.5849 120.613L95.1891 120.56L87.1684 119.491L86.0993 111.47L86.0465 111.074L85.8039 110.757L80.8884 104.33L85.8039 97.9021L86.0465 97.5849L86.0993 97.1891L87.1684 89.1684L95.1891 88.0993L95.5849 88.0465L95.9021 87.8039L102.33 82.8884L108.757 87.8039Z" stroke="#FF60A8" stroke-width="3"/>
</g>
<g opacity="0.16">
<path d="M112.98 39.8318L103.119 47.2331L93.2575 39.8318V24.2769L103.119 16.8755L112.98 24.2769V39.8318Z" stroke="#9848FF" stroke-width="3"/>
<path d="M53.6368 166.78L41.4627 164.828L39.9366 152.593L51.1259 141.787L63.3001 143.74L64.8262 155.974L53.6368 166.78Z" stroke="#9848FF" stroke-width="3"/>
<path d="M25.4346 113.434L18.5595 103.199L26.4668 93.7386L42.0004 94.5527L48.8755 104.788L40.9682 114.248L25.4346 113.434Z" stroke="#9848FF" stroke-width="3"/>
<path d="M40.2004 57.5667L40.8692 45.2552L52.8776 42.4586L64.7934 52.4571L64.1245 64.7687L52.1162 67.5652L40.2004 57.5667Z" stroke="#9848FF" stroke-width="3"/>
<path d="M93.2576 167.277L103.119 159.875L112.98 167.277V182.832L103.119 190.233L93.2576 182.832V167.277Z" stroke="#9848FF" stroke-width="3"/>
<path d="M151.187 41.19L163.362 43.1421L164.888 55.377L153.698 66.1824L141.524 64.2303L139.998 51.9954L151.187 41.19Z" stroke="#9848FF" stroke-width="3"/>
<path d="M180.001 94.5528L186.876 104.788L178.969 114.248L163.435 113.434L156.56 103.199L164.467 93.7387L180.001 94.5528Z" stroke="#9848FF" stroke-width="3"/>
<path d="M165.794 150.457L165.125 162.769L153.117 165.565L141.201 155.567L141.87 143.255L153.878 140.458L165.794 150.457Z" stroke="#9848FF" stroke-width="3"/>
<path d="M106.358 93.0839L106.675 93.3265L107.071 93.3792L112.285 94.0742L112.98 99.2883L113.033 99.6842L113.276 100.001L116.471 104.18L113.276 108.358L113.033 108.675L112.98 109.071L112.285 114.285L107.071 114.98L106.675 115.033L106.358 115.276L102.18 118.471L98.0014 115.276L97.6842 115.033L97.2883 114.98L92.0742 114.285L91.3792 109.071L91.3265 108.675L91.0839 108.358L87.8884 104.18L91.0839 100.001L91.3265 99.6842L91.3792 99.2883L92.0742 94.0742L97.2883 93.3792L97.6842 93.3265L98.0014 93.0839L102.18 89.8884L106.358 93.0839Z" stroke="#FF60A8" stroke-width="3"/>
</g>
</svg>
