<svg width="139" height="149" viewBox="0 0 139 149" fill="none" xmlns="http://www.w3.org/2000/svg">
<g opacity="0.16">
<path d="M122.709 131.896L102.607 146.983L82.506 131.896V100.969L102.607 85.8821L122.709 100.969V131.896Z" stroke="#525FE1" stroke-width="3"/>
<path d="M122.709 -11.1108L102.607 3.97631L82.506 -11.1108V-42.0374L102.607 -57.1245L122.709 -42.0374V-11.1108Z" stroke="#525FE1" stroke-width="3"/>
<path d="M55.5612 120.016L30.7449 116.037L27.6342 91.0971L49.8809 69.6137L74.6971 73.593L77.8079 98.533L55.5612 120.016Z" stroke="#525FE1" stroke-width="3"/>
<path d="M17.1928 64.4662L3.17835 43.6029L19.2968 24.3188L50.181 25.9374L64.1954 46.8007L48.0769 66.0848L17.1928 64.4662Z" stroke="#525FE1" stroke-width="3"/>
<path d="M26.9911 1.29154L28.3545 -23.8047L52.8328 -29.5054L76.5239 -9.62617L75.1604 15.4701L50.6822 21.1708L26.9911 1.29154Z" stroke="#525FE1" stroke-width="3"/>
<path d="M82.9965 -42.0374L103.098 -57.1245L123.199 -42.0374V-11.1108L103.098 3.97628L82.9965 -11.1108V-42.0374Z" stroke="#525FE1" stroke-width="3"/>
<path d="M82.9965 100.969L103.098 85.8821L123.199 100.969V131.896L103.098 146.983L82.9965 131.896V100.969Z" stroke="#525FE1" stroke-width="3"/>
<path d="M150.144 -30.1582L174.96 -26.179L178.071 -1.23897L155.824 20.2444L131.008 16.2652L127.897 -8.67486L150.144 -30.1582Z" stroke="#525FE1" stroke-width="3"/>
<path d="M188.512 25.3922L202.527 46.2555L186.408 65.5396L155.524 63.921L141.51 43.0577L157.628 23.7736L188.512 25.3922Z" stroke="#525FE1" stroke-width="3"/>
<path d="M178.714 88.5666L177.35 113.663L152.872 119.364L129.181 99.4843L130.544 74.3881L155.022 68.6874L178.714 88.5666Z" stroke="#525FE1" stroke-width="3"/>
<path d="M111.032 22.7582L111.349 23.0008L111.745 23.0536L122.684 24.5116L124.142 35.4502L124.195 35.8461L124.437 36.1633L131.141 44.929L124.437 53.6948L124.195 54.012L124.142 54.4079L122.684 65.3465L111.745 66.8045L111.349 66.8573L111.032 67.0999L102.266 73.8037L93.5007 67.0999L93.1835 66.8573L92.7876 66.8045L81.849 65.3465L80.391 54.4079L80.3382 54.012L80.0956 53.6948L73.3918 44.929L80.0956 36.1633L80.3382 35.8461L80.391 35.4502L81.849 24.5116L92.7876 23.0536L93.1835 23.0008L93.5007 22.7582L102.266 16.0544L111.032 22.7582Z" stroke="#FFCF59" stroke-width="3"/>
</g>
<g opacity="0.16">
<path d="M54.8616 113.414L36.4893 110.468L34.1863 92.0044L50.7968 75.9638L69.1692 78.9098L71.4722 97.3738L54.8616 113.414Z" stroke="#525FE1" stroke-width="3"/>
<path d="M21.2383 59.434L10.8629 43.9882L22.796 29.7115L45.8557 30.92L56.231 46.3658L44.298 60.6425L21.2383 59.434Z" stroke="#525FE1" stroke-width="3"/>
<path d="M33.5862 0.27571L34.5956 -18.3039L52.7177 -22.5243L70.4067 -7.68148L69.3973 10.8981L51.2752 15.1185L33.5862 0.27571Z" stroke="#525FE1" stroke-width="3"/>
<path d="M88.0343 104.045L102.916 92.8755L117.798 104.045V127.136L102.916 138.306L88.0343 127.136V104.045Z" stroke="#525FE1" stroke-width="3"/>
<path d="M150.797 -24.0362L169.169 -21.0902L171.472 -2.62625L154.862 13.4143L136.49 10.4684L134.187 -7.99559L150.797 -24.0362Z" stroke="#525FE1" stroke-width="3"/>
<path d="M172.407 90.3185L171.398 108.898L153.276 113.119L135.587 98.2757L136.596 79.6961L154.718 75.4757L172.407 90.3185Z" stroke="#525FE1" stroke-width="3"/>
<path d="M108.757 28.8039L109.074 29.0465L109.47 29.0993L117.491 30.1684L118.56 38.1891L118.613 38.5849L118.855 38.9021L123.771 45.3296L118.855 51.7571L118.613 52.0743L118.56 52.4701L117.491 60.4909L109.47 61.56L109.074 61.6127L108.757 61.8553L102.33 66.7709L95.9021 61.8553L95.5849 61.6127L95.1891 61.56L87.1684 60.4909L86.0993 52.4701L86.0465 52.0743L85.8039 51.7571L80.8884 45.3296L85.8039 38.9021L86.0465 38.5849L86.0993 38.1891L87.1684 30.1684L95.1891 29.0993L95.5849 29.0465L95.9021 28.8039L102.33 23.8884L108.757 28.8039Z" stroke="#FFCF59" stroke-width="3"/>
</g>
<g opacity="0.16">
<path d="M53.6364 107.78L41.4622 105.828L39.9361 93.5929L51.1254 82.7875L63.2996 84.7396L64.8257 96.9745L53.6364 107.78Z" stroke="#525FE1" stroke-width="3"/>
<path d="M25.4346 54.4338L18.5595 44.1989L26.4668 34.7386L42.0004 35.5527L48.8755 45.7877L40.9682 55.2479L25.4346 54.4338Z" stroke="#525FE1" stroke-width="3"/>
<path d="M40.2004 -1.4333L40.8692 -13.7448L52.8776 -16.5414L64.7934 -6.54288L64.1245 5.76866L52.1162 8.56524L40.2004 -1.4333Z" stroke="#525FE1" stroke-width="3"/>
<path d="M93.2576 108.277L103.119 100.875L112.98 108.277V123.832L103.119 131.233L93.2576 123.832V108.277Z" stroke="#525FE1" stroke-width="3"/>
<path d="M151.187 -17.8099L163.362 -15.8578L164.888 -3.6229L153.698 7.18249L141.524 5.23038L139.998 -7.0045L151.187 -17.8099Z" stroke="#525FE1" stroke-width="3"/>
<path d="M165.793 91.4572L165.124 103.769L153.116 106.565L141.2 96.5668L141.869 84.2553L153.877 81.4587L165.793 91.4572Z" stroke="#525FE1" stroke-width="3"/>
<path d="M106.358 34.0839L106.675 34.3265L107.071 34.3792L112.285 35.0742L112.98 40.2883L113.033 40.6842L113.276 41.0014L116.471 45.1797L113.276 49.3581L113.033 49.6753L112.98 50.0711L112.285 55.2852L107.071 55.9802L106.675 56.033L106.358 56.2756L102.18 59.4711L98.0014 56.2756L97.6842 56.033L97.2883 55.9802L92.0742 55.2852L91.3792 50.0711L91.3265 49.6753L91.0839 49.3581L87.8884 45.1797L91.0839 41.0014L91.3265 40.6842L91.3792 40.2883L92.0742 35.0742L97.2883 34.3792L97.6842 34.3265L98.0014 34.0839L102.18 30.8884L106.358 34.0839Z" stroke="#FFCF59" stroke-width="3"/>
</g>
</svg>
