<svg width="249" height="169" viewBox="0 0 249 169" fill="none" xmlns="http://www.w3.org/2000/svg">
<g clip-path="url(#clip0_81_1545)">
<path d="M-11.7001 99.7187C14.2007 115.228 51.3604 100.89 51.3604 100.89C51.3604 100.89 46.5013 61.4118 20.5851 45.9194C-5.31576 30.409 -42.46 44.7298 -42.46 44.7298C-42.46 44.7298 -37.6009 84.2083 -11.7001 99.7187Z" fill="url(#paint0_linear_81_1545)"/>
<path d="M101.037 106.57C97.6743 106.57 94.9485 103.847 94.9485 100.487C94.9485 97.1277 97.6743 94.4043 101.037 94.4043C104.399 94.4043 107.125 97.1277 107.125 100.487C107.125 103.847 104.399 106.57 101.037 106.57Z" fill="#F5F0E4"/>
<path d="M177.209 125.166C173.433 125.166 170.371 122.719 170.371 119.701C170.371 116.682 173.433 114.235 177.209 114.235C180.986 114.235 184.048 116.682 184.048 119.701C184.048 122.719 180.986 125.166 177.209 125.166Z" fill="#F5F0E4"/>
<path d="M236.576 0.00878906H236.754C237.814 15.0052 248.976 15.2355 248.976 15.2355C248.976 15.2355 236.667 15.4762 236.667 32.8037C236.667 15.4762 224.359 15.2355 224.359 15.2355C224.359 15.2355 235.516 15.0052 236.576 0.00878906ZM87.5281 23.8063H87.6867C88.6269 37.3782 98.5313 37.5874 98.5313 37.5874C98.5313 37.5874 87.6096 37.8049 87.6096 53.4872C87.6096 37.8049 76.688 37.5874 76.688 37.5874C76.688 37.5874 86.5885 37.3782 87.5281 23.8063Z" fill="#F5F0E4"/>
</g>
<defs>
<linearGradient id="paint0_linear_81_1545" x1="88.5296" y1="149.644" x2="-119.711" y2="-44.0064" gradientUnits="userSpaceOnUse">
<stop stop-color="white"/>
<stop offset="1" stop-color="#EDDEB9"/>
</linearGradient>
<clipPath id="clip0_81_1545">
<rect width="291" height="169" fill="white" transform="translate(-42)"/>
</clipPath>
</defs>
</svg>
