<svg width="71" height="72" viewBox="0 0 71 72" fill="none" xmlns="http://www.w3.org/2000/svg">
<g opacity="0.6">
<path d="M34.5011 15.2685L34.4501 15.1851L34.384 15.1131C34.1244 14.8308 33.9024 14.6099 33.6948 14.4036L33.6909 14.3997L33.691 14.3996L33.6829 14.3918C33.3263 14.045 32.9683 13.6937 32.6083 13.3405C31.6999 12.449 30.7794 11.5458 29.8394 10.6742C29.6679 10.5152 29.5856 10.3871 29.5392 10.274C29.4917 10.1583 29.4581 10.0003 29.4623 9.74969C29.4781 8.79824 29.4849 7.85925 29.4917 6.92151C29.5007 5.67084 29.5097 4.42239 29.5403 3.14954C30.7486 3.10582 31.9166 3.09781 33.0857 3.11729C33.3757 3.12212 33.9388 3.10293 34.3598 2.69118C34.6283 2.42852 34.7342 2.11927 34.7627 1.83402C34.8218 1.77459 34.8779 1.7176 34.9318 1.66282C35.1905 1.39982 35.3992 1.1877 35.6516 1.00033C35.6518 1.00034 35.6519 1.00034 35.6521 1.00035C35.9253 1.20902 36.1607 1.46831 36.4873 1.8281C36.531 1.87627 36.5764 1.92625 36.6237 1.97815C36.7016 2.31269 36.8801 2.65131 37.2476 2.8809C37.631 3.12037 38.0676 3.11438 38.2179 3.11232C38.2269 3.1122 38.2349 3.11209 38.2418 3.11205C39.2125 3.10626 40.1707 3.10783 41.1244 3.14021C41.1226 5.74099 41.1183 8.2932 41.1139 10.8434C39.4581 12.5172 37.7986 14.1951 36.0791 15.9381C35.9675 15.9595 35.8616 15.9792 35.7623 15.9952C35.4514 15.6805 35.0965 15.5287 34.874 15.4372C34.5959 15.3229 34.5231 15.287 34.5091 15.2812C34.5065 15.2772 34.5038 15.2729 34.5011 15.2685Z" stroke="#C5B58D" stroke-width="2"/>
<path d="M20.2078 22.0249L20.1136 21.9987L20.0161 21.9911C19.6338 21.9617 19.3208 21.9516 19.0282 21.9422L19.0227 21.942L19.0227 21.942L19.0115 21.9417C18.5141 21.9313 18.0127 21.9185 17.5086 21.9057C16.2362 21.8733 14.947 21.8404 13.6651 21.8441C13.4312 21.8448 13.2837 21.8072 13.1727 21.7562C13.059 21.7039 12.9267 21.6113 12.7588 21.4252C12.1215 20.7185 11.4861 20.0271 10.8515 19.3367C10.0051 18.4159 9.16027 17.4967 8.31456 16.5449C9.16845 15.6889 10.0172 14.8864 10.8855 14.1034C11.1009 13.9091 11.4996 13.5111 11.5267 12.9228C11.544 12.5476 11.4105 12.2492 11.2368 12.0211C11.2395 11.9374 11.2416 11.8574 11.2437 11.7806C11.2536 11.4118 11.2616 11.1143 11.3183 10.8052C11.3185 10.8051 11.3186 10.805 11.3187 10.8049C11.6609 10.7711 12.0098 10.8002 12.4941 10.8406C12.5589 10.846 12.6262 10.8516 12.6962 10.8573C12.9813 11.0489 13.3427 11.1748 13.7681 11.0921C14.2118 11.0057 14.5271 10.7036 14.6356 10.5996C14.6421 10.5933 14.6479 10.5878 14.6529 10.5831C15.3589 9.9168 16.0607 9.26449 16.7803 8.63777C18.5527 10.5411 20.2902 12.4105 22.0262 14.2787C21.9568 16.6321 21.8873 18.991 21.8186 21.4384C21.7515 21.5302 21.6875 21.6168 21.6258 21.6962C21.1837 21.6781 20.8207 21.8091 20.5955 21.894C20.3142 22.0001 20.2365 22.0234 20.2223 22.0287C20.2177 22.0276 20.2127 22.0263 20.2078 22.0249Z" stroke="#C5B58D" stroke-width="2"/>
<path d="M15.3715 35.5664L15.2872 35.6159L15.2141 35.6808C14.9273 35.9353 14.7026 36.1535 14.4927 36.3574L14.4887 36.3612L14.4887 36.3612L14.4807 36.3691C14.1277 36.7196 13.7702 37.0715 13.4108 37.4252C12.5036 38.318 11.5844 39.2225 10.6966 40.1472C10.5346 40.3159 10.4051 40.3959 10.2913 40.4403C10.1747 40.4858 10.0162 40.5166 9.76563 40.5081C8.81461 40.4756 7.87588 40.4525 6.9384 40.4293C5.68808 40.3985 4.43997 40.3677 3.16785 40.3149C3.14522 39.106 3.1576 37.938 3.19748 36.7695C3.20737 36.4796 3.19801 35.9162 2.79367 35.4882C2.53574 35.2151 2.22838 35.1038 1.94367 35.0703C1.88528 35.0102 1.82928 34.9531 1.77545 34.8983C1.51701 34.635 1.30857 34.4226 1.12562 34.167C1.12563 34.1668 1.12564 34.1667 1.12565 34.1665C1.33906 33.8969 1.60241 33.6661 1.96785 33.3459C2.01678 33.303 2.06755 33.2585 2.12027 33.2121C2.45611 33.1401 2.7978 32.9675 3.03377 32.604C3.27989 32.2249 3.28152 31.7883 3.28208 31.638C3.28212 31.6289 3.28215 31.6209 3.28223 31.614C3.29338 30.6434 3.31167 29.6854 3.36069 28.7324C5.96105 28.7796 8.51279 28.8284 11.0625 28.8773C12.7072 30.562 14.3559 32.2506 16.0686 34.0002C16.088 34.1122 16.1059 34.2185 16.1202 34.318C15.8 34.6234 15.6421 34.9756 15.5467 35.1965C15.4276 35.4725 15.3904 35.5446 15.3844 35.5585C15.3803 35.5611 15.376 35.5638 15.3715 35.5664Z" stroke="#C5B58D" stroke-width="2"/>
<path d="M21.8321 50.2348L21.8042 50.3285L21.795 50.4258C21.7588 50.8076 21.7433 51.1204 21.7288 51.4127L21.7285 51.4182L21.7284 51.4182L21.728 51.4294C21.7089 51.9265 21.6874 52.4276 21.6658 52.9314C21.6111 54.2031 21.5558 55.4915 21.5371 56.7733C21.5337 57.0071 21.4935 57.154 21.4406 57.2641C21.3863 57.3768 21.2915 57.5075 21.1024 57.6721C20.3847 58.297 19.6824 58.9202 18.981 59.5427C18.0455 60.3729 17.1117 61.2015 16.1453 62.0305C15.3043 61.1618 14.5168 60.2991 13.749 59.4174C13.5586 59.1986 13.1675 58.793 12.5799 58.7556C12.205 58.7318 11.9043 58.8601 11.6732 59.0297C11.5895 59.0256 11.5097 59.0221 11.4329 59.0187C11.0643 59.0024 10.767 58.9892 10.4589 58.927C10.4588 58.9269 10.4587 58.9268 10.4586 58.9267C10.4308 58.5839 10.466 58.2355 10.5148 57.7521C10.5214 57.6873 10.5282 57.6202 10.5351 57.5503C10.7316 57.2686 10.8638 56.9094 10.7885 56.4826C10.7099 56.0375 10.4133 55.717 10.3112 55.6067C10.3051 55.6001 10.2997 55.5942 10.295 55.5891C9.64117 54.8716 9.00121 54.1585 8.38714 53.4281C10.3211 51.6892 12.2206 49.9846 14.1187 48.2814C16.4706 48.3919 18.8279 48.5025 21.2738 48.614C21.3643 48.6826 21.4499 48.7481 21.5282 48.8112C21.5023 49.2529 21.627 49.6182 21.7079 49.8447C21.8091 50.1279 21.8311 50.206 21.8361 50.2203C21.8349 50.2249 21.8335 50.2298 21.8321 50.2348Z" stroke="#C5B58D" stroke-width="2"/>
<path d="M35.9019 55.7125L35.9557 55.7941L36.0243 55.8637C36.2936 56.1368 36.5232 56.3498 36.7378 56.5488L36.7419 56.5525L36.7418 56.5526L36.7501 56.5601C37.1186 56.8942 37.4887 57.2329 37.8607 57.5733C38.7998 58.4325 39.7512 59.3031 40.7211 60.1413C40.898 60.2942 40.9847 60.4194 41.035 60.5307C41.0865 60.6448 41.1256 60.8014 41.1302 61.0521C41.1475 62.0035 41.1736 62.9422 41.1995 63.8796C41.2342 65.1298 41.2687 66.3778 41.2826 67.6509C40.0765 67.7368 38.9095 67.7856 37.7405 67.8069C37.4505 67.8122 36.8884 67.851 36.482 68.2772C36.2228 68.5491 36.1278 68.8618 36.1092 69.1479C36.0523 69.2094 35.9982 69.2683 35.9463 69.3249C35.6968 69.5968 35.4957 69.8161 35.25 70.0121C35.2498 70.0121 35.2497 70.0121 35.2495 70.0121C34.9691 69.8131 34.7249 69.5622 34.3859 69.214C34.3405 69.1674 34.2934 69.119 34.2443 69.0688C34.1549 68.7372 33.9647 68.405 33.5893 68.1884C33.1978 67.9625 32.7617 67.9837 32.6116 67.991C32.6025 67.9914 32.5945 67.9918 32.5876 67.9921C31.6177 68.0318 30.6601 68.0636 29.7059 68.0645C29.6169 65.4653 29.5321 62.9145 29.4475 60.3657C31.0439 58.6351 32.6438 56.9003 34.3014 55.0983C34.4122 55.0731 34.5174 55.0497 34.616 55.0302C34.9377 55.334 35.2977 55.4733 35.5233 55.5569C35.8052 55.6614 35.8792 55.6948 35.8934 55.7001C35.8961 55.704 35.899 55.7082 35.9019 55.7125Z" stroke="#C5B58D" stroke-width="2"/>
<path d="M50.3684 22.346L50.4626 22.3198L50.56 22.3123C50.9424 22.2828 51.2554 22.2727 51.5479 22.2633L51.5535 22.2631L51.5535 22.2631L51.5647 22.2629C52.062 22.2524 52.5635 22.2397 53.0676 22.2268C54.34 22.1944 55.6292 22.1616 56.9111 22.1653C57.145 22.1659 57.2925 22.1283 57.4035 22.0773C57.5172 22.025 57.6495 21.9325 57.8174 21.7463C58.4547 21.0396 59.0901 20.3483 59.7247 19.6578C60.571 18.737 61.4159 17.8178 62.2616 16.8661C61.4077 16.01 60.5589 15.2075 59.6907 14.4245C59.4753 14.2303 59.0765 13.8322 59.0495 13.244C59.0322 12.8687 59.1657 12.5703 59.3393 12.3422C59.3367 12.2585 59.3345 12.1786 59.3325 12.1018C59.3226 11.7329 59.3146 11.4355 59.2578 11.1263C59.2577 11.1262 59.2576 11.1261 59.2575 11.126C58.9153 11.0922 58.5663 11.1214 58.0821 11.1618C58.0173 11.1672 57.95 11.1728 57.88 11.1785C57.5949 11.37 57.2334 11.496 56.808 11.4132C56.3643 11.3269 56.0491 11.0247 55.9406 10.9207C55.9341 10.9145 55.9283 10.9089 55.9233 10.9042C55.2173 10.2379 54.5155 9.58563 53.7959 8.95891C52.0235 10.8622 50.286 12.7317 48.55 14.5998C48.6194 16.9532 48.6888 19.3121 48.7576 21.7595C48.8247 21.8513 48.8887 21.938 48.9503 22.0174C49.3924 21.9992 49.7555 22.1303 49.9806 22.2151C50.262 22.3212 50.3397 22.3446 50.3539 22.3499C50.3585 22.3487 50.3635 22.3474 50.3684 22.346Z" stroke="#C5B58D" stroke-width="2"/>
<path d="M55.2046 35.8875L55.2889 35.937L55.362 36.0019C55.6489 36.2565 55.8735 36.4747 56.0835 36.6786L56.0875 36.6824L56.0875 36.6824L56.0955 36.6903C56.4484 37.0408 56.806 37.3926 57.1654 37.7463C58.0726 38.6391 58.9918 39.5436 59.8796 40.4683C60.0416 40.6371 60.1711 40.717 60.2849 40.7614C60.4015 40.8069 60.56 40.8378 60.8105 40.8293C61.7616 40.7968 62.7003 40.7736 63.6378 40.7505C64.8881 40.7196 66.1362 40.6889 67.4083 40.6361C67.4309 39.4272 67.4186 38.2592 67.3787 37.0906C67.3688 36.8008 67.3782 36.2374 67.7825 35.8093C68.0404 35.5362 68.3478 35.425 68.6325 35.3915C68.6909 35.3313 68.7469 35.2743 68.8007 35.2194C69.0592 34.9561 69.2676 34.7438 69.4505 34.4882C69.4505 34.488 69.4505 34.4879 69.4505 34.4877C69.2371 34.2181 68.9738 33.9873 68.6083 33.667C68.5594 33.6241 68.5086 33.5797 68.4559 33.5333C68.1201 33.4612 67.7784 33.2887 67.5424 32.9252C67.2963 32.5461 67.2947 32.1094 67.2941 31.9591C67.2941 31.9501 67.294 31.9421 67.2939 31.9352C67.2828 30.9645 67.2645 30.0065 67.2155 29.0536C64.6151 29.1008 62.0634 29.1496 59.5136 29.1984C57.869 30.8832 56.2203 32.5718 54.5076 34.3214C54.4881 34.4334 54.4703 34.5396 54.456 34.6391C54.7762 34.9445 54.9341 35.2967 55.0294 35.5176C55.1486 35.7937 55.1857 35.8658 55.1918 35.8797C55.1958 35.8823 55.2002 35.8849 55.2046 35.8875Z" stroke="#C5B58D" stroke-width="2"/>
<path d="M48.7441 50.556L48.772 50.6497L48.7812 50.747C48.8174 51.1288 48.8329 51.4416 48.8474 51.7339L48.8477 51.7394L48.8477 51.7394L48.8482 51.7506C48.8673 52.2477 48.8888 52.7489 48.9104 53.2527C48.965 54.5243 49.0204 55.8127 49.039 57.0945C49.0425 57.3284 49.0826 57.4752 49.1356 57.5853C49.1898 57.698 49.2847 57.8287 49.4738 57.9934C50.1915 58.6182 50.8938 59.2415 51.5952 59.8639C52.5307 60.6941 53.4645 61.5228 54.4308 62.3517C55.2719 61.483 56.0594 60.6204 56.8271 59.7386C57.0176 59.5198 57.4086 59.1142 57.9963 59.0769C58.3712 59.0531 58.6719 59.1813 58.9029 59.351C58.9867 59.3468 59.0665 59.3433 59.1433 59.3399C59.5119 59.3236 59.8092 59.3104 60.1173 59.2482C60.1174 59.2481 60.1175 59.248 60.1176 59.2479C60.1454 58.9052 60.1102 58.5568 60.0613 58.0733C60.0548 58.0086 60.048 57.9414 60.0411 57.8715C59.8446 57.5898 59.7124 57.2306 59.7877 56.8038C59.8663 56.3587 60.1628 56.0382 60.2649 55.9279C60.2711 55.9213 60.2765 55.9154 60.2812 55.9103C60.935 55.1928 61.575 54.4797 62.189 53.7493C60.2551 52.0104 58.3556 50.3058 56.4574 48.6026C54.1056 48.7131 51.7483 48.8237 49.3024 48.9352C49.2118 49.0038 49.1263 49.0694 49.048 49.1324C49.0739 49.5741 48.9492 49.9394 48.8682 50.166C48.7671 50.4491 48.7451 50.5272 48.74 50.5415C48.7413 50.5461 48.7426 50.5511 48.7441 50.556Z" stroke="#C5B58D" stroke-width="2"/>
<path d="M37.3652 29.0028L37.6109 29.2177L37.9362 29.2462L40.6626 29.4851L40.8957 32.3397L40.9209 32.6492L41.1171 32.89L42.9116 35.0927L41.1171 37.2954L40.9209 37.5361L40.8957 37.8456L40.6626 40.7002L37.9362 40.9391L37.6109 40.9676L37.3652 41.1825L35.2877 42.9992L33.2103 41.1825L32.9645 40.9676L32.6393 40.9391L29.9128 40.7002L29.6798 37.8456L29.6545 37.5361L29.4584 37.2954L27.6639 35.0927L29.4584 32.89L29.6545 32.6492L29.6798 32.3397L29.9128 29.4851L32.6393 29.2462L32.9645 29.2177L33.2103 29.0028L35.2877 27.1862L37.3652 29.0028Z" stroke="#C5B58D" stroke-width="2"/>
<mask id="path-10-inside-1_246_529" fill="white">
<path d="M41.3764 50.9004L39.1618 48.8981L41.162 47.9226L41.3764 50.9004Z"/>
</mask>
<path d="M41.3764 50.9004L40.0351 52.384L43.7288 55.7236L43.3713 50.7568L41.3764 50.9004ZM39.1618 48.8981L38.2851 47.1005L35.626 48.3975L37.8205 50.3817L39.1618 48.8981ZM41.162 47.9226L43.1569 47.7789L42.9444 44.828L40.2853 46.125L41.162 47.9226ZM42.7177 49.4169L40.5031 47.4146L37.8205 50.3817L40.0351 52.384L42.7177 49.4169ZM40.0386 50.6957L42.0388 49.7202L40.2853 46.125L38.2851 47.1005L40.0386 50.6957ZM39.1672 48.0662L39.3816 51.0441L43.3713 50.7568L43.1569 47.7789L39.1672 48.0662Z" fill="#C5B58D" mask="url(#path-10-inside-1_246_529)"/>
<mask id="path-12-inside-2_246_529" fill="white">
<path d="M50.7994 29.1294L48.7587 31.3088L47.8182 29.2918L50.7994 29.1294Z"/>
</mask>
<path d="M50.7994 29.1294L52.2592 30.4964L55.6628 26.8616L50.6906 27.1324L50.7994 29.1294ZM48.7587 31.3088L46.9461 32.154L48.1964 34.8354L50.2186 32.6758L48.7587 31.3088ZM47.8182 29.2918L47.7094 27.2948L44.7552 27.4557L46.0056 30.1371L47.8182 29.2918ZM49.3395 27.7624L47.2988 29.9418L50.2186 32.6758L52.2592 30.4964L49.3395 27.7624ZM50.5713 30.4635L49.6308 28.4466L46.0056 30.1371L46.9461 32.154L50.5713 30.4635ZM47.927 31.2889L50.9081 31.1265L50.6906 27.1324L47.7094 27.2948L47.927 31.2889Z" fill="#C5B58D" mask="url(#path-12-inside-2_246_529)"/>
<mask id="path-14-inside-3_246_529" fill="white">
<path d="M41.5496 19.9346L41.0765 22.8824L39.1689 21.7362L41.5496 19.9346Z"/>
</mask>
<path d="M41.5496 19.9346L43.5243 20.2515L44.3134 15.3348L40.3427 18.3398L41.5496 19.9346ZM41.0765 22.8824L40.0464 24.5968L42.5824 26.1205L43.0512 23.1994L41.0765 22.8824ZM39.1689 21.7362L37.962 20.1415L35.6028 21.9268L38.1388 23.4506L39.1689 21.7362ZM39.5749 19.6176L39.1017 22.5655L43.0512 23.1994L43.5243 20.2515L39.5749 19.6176ZM42.1065 21.1681L40.199 20.0219L38.1388 23.4506L40.0464 24.5968L42.1065 21.1681ZM40.3758 23.331L42.7565 21.5294L40.3427 18.3398L37.962 20.1415L40.3758 23.331Z" fill="#C5B58D" mask="url(#path-14-inside-3_246_529)"/>
<mask id="path-16-inside-4_246_529" fill="white">
<path d="M50.7846 42.0531L47.8035 41.8907L48.744 39.8737L50.7846 42.0531Z"/>
</mask>
<path d="M50.7846 42.0531L50.6759 44.0501L55.6481 44.3209L52.2445 40.6861L50.7846 42.0531ZM47.8035 41.8907L45.9909 41.0454L44.7405 43.7268L47.6947 43.8877L47.8035 41.8907ZM48.744 39.8737L50.2039 38.5067L48.1817 36.3471L46.9314 39.0285L48.744 39.8737ZM50.8934 40.056L47.9123 39.8936L47.6947 43.8877L50.6759 44.0501L50.8934 40.056ZM49.6161 42.7359L50.5566 40.719L46.9314 39.0285L45.9909 41.0454L49.6161 42.7359ZM47.2841 41.2407L49.3247 43.4201L52.2445 40.6861L50.2039 38.5067L47.2841 41.2407Z" fill="#C5B58D" mask="url(#path-16-inside-4_246_529)"/>
<mask id="path-18-inside-5_246_529" fill="white">
<path d="M28.7764 19.9416L30.991 21.9439L28.9908 22.9194L28.7764 19.9416Z"/>
</mask>
<path d="M28.7764 19.9416L30.1177 18.458L26.424 15.1184L26.7816 20.0852L28.7764 19.9416ZM30.991 21.9439L31.8677 23.7415L34.5269 22.4445L32.3323 20.4603L30.991 21.9439ZM28.9908 22.9194L26.996 23.0631L27.2084 26.014L29.8675 24.717L28.9908 22.9194ZM27.4351 21.4251L29.6497 23.4274L32.3323 20.4603L30.1177 18.458L27.4351 21.4251ZM30.1143 20.1463L28.1141 21.1219L29.8675 24.717L31.8677 23.7415L30.1143 20.1463ZM30.9856 22.7758L30.7712 19.798L26.7816 20.0852L26.996 23.0631L30.9856 22.7758Z" fill="#C5B58D" mask="url(#path-18-inside-5_246_529)"/>
<mask id="path-20-inside-6_246_529" fill="white">
<path d="M19.3535 41.7125L21.3941 39.5332L22.3346 41.5501L19.3535 41.7125Z"/>
</mask>
<path d="M19.3535 41.7125L17.8936 40.3455L14.49 43.9804L19.4623 43.7095L19.3535 41.7125ZM21.3941 39.5332L23.2067 38.6879L21.9564 36.0066L19.9342 38.1662L21.3941 39.5332ZM22.3346 41.5501L22.4434 43.5471L25.3976 43.3862L24.1473 40.7049L22.3346 41.5501ZM20.8134 43.0795L22.854 40.9002L19.9342 38.1662L17.8936 40.3455L20.8134 43.0795ZM19.5815 40.3784L20.522 42.3953L24.1473 40.7049L23.2067 38.6879L19.5815 40.3784ZM22.2259 39.5531L19.2447 39.7154L19.4623 43.7095L22.4434 43.5471L22.2259 39.5531Z" fill="#C5B58D" mask="url(#path-20-inside-6_246_529)"/>
<mask id="path-22-inside-7_246_529" fill="white">
<path d="M28.6033 50.9074L29.0764 47.9595L30.9839 49.1057L28.6033 50.9074Z"/>
</mask>
<path d="M28.6033 50.9074L26.6285 50.5905L25.8394 55.5072L29.8102 52.5022L28.6033 50.9074ZM29.0764 47.9595L30.1064 46.2452L27.5705 44.7214L27.1016 47.6426L29.0764 47.9595ZM30.9839 49.1057L32.1909 50.7005L34.55 48.9152L32.014 47.3914L30.9839 49.1057ZM30.578 51.2243L31.0511 48.2765L27.1016 47.6426L26.6285 50.5905L30.578 51.2243ZM28.0463 49.6739L29.9539 50.8201L32.014 47.3914L30.1064 46.2452L28.0463 49.6739ZM29.777 47.5109L27.3963 49.3126L29.8102 52.5022L32.1909 50.7005L29.777 47.5109Z" fill="#C5B58D" mask="url(#path-22-inside-7_246_529)"/>
<mask id="path-24-inside-8_246_529" fill="white">
<path d="M19.3682 28.7889L22.3494 28.9513L21.4088 30.9682L19.3682 28.7889Z"/>
</mask>
<path d="M19.3682 28.7889L19.477 26.7919L14.5047 26.521L17.9083 30.1559L19.3682 28.7889ZM22.3494 28.9513L24.162 29.7965L25.4123 27.1152L22.4581 26.9542L22.3494 28.9513ZM21.4088 30.9682L19.9489 32.3352L21.9711 34.4948L23.2215 31.8134L21.4088 30.9682ZM19.2594 30.7859L22.2406 30.9483L22.4581 26.9542L19.477 26.7919L19.2594 30.7859ZM20.5367 28.106L19.5962 30.123L23.2215 31.8134L24.162 29.7965L20.5367 28.106ZM22.8687 29.6012L20.8281 27.4219L17.9083 30.1559L19.9489 32.3352L22.8687 29.6012Z" fill="#C5B58D" mask="url(#path-24-inside-8_246_529)"/>
</g>
</svg>
