<svg width="102" height="109" viewBox="0 0 102 109" fill="none" xmlns="http://www.w3.org/2000/svg">
<g opacity="0.73" filter="url(#filter0_dd_16_8256)">
<circle cx="51" cy="57" r="33" fill="url(#paint0_linear_16_8256)"/>
</g>
<path d="M51.0001 42.6666C47.8001 42.6666 45.1667 45.3 45.1667 48.5C45.1667 50.05 45.8001 51.4666 46.8334 52.5166C44.2834 54.1833 42.6667 57.0333 42.6667 60.1666C42.6667 65.2166 46.7834 69.3333 51.8334 69.3333C54.7667 69.3333 57.6667 68.5666 60.1667 67.0999L58.5001 64.2166C56.4667 65.3833 54.1667 66 51.8334 66C48.6001 66 46.0001 63.4166 46.0001 60.1666C45.9971 58.8829 46.4189 57.6343 47.1997 56.6153C47.9805 55.5964 49.0765 54.8643 50.3167 54.5333L59.0001 52.2L58.1334 48.9833L50.7167 51C49.4667 50.8333 48.5001 49.8 48.5001 48.5C48.5001 47.1 49.6001 46 51.0001 46C51.4334 46 51.8334 46.1166 52.2501 46.3333L53.9167 43.45C53.0334 42.9333 52.0167 42.6666 51.0001 42.6666Z" fill="#A7CE4A"/>
<defs>
<filter id="filter0_dd_16_8256" x="0" y="0" width="102" height="109" filterUnits="userSpaceOnUse" color-interpolation-filters="sRGB">
<feFlood flood-opacity="0" result="BackgroundImageFix"/>
<feColorMatrix in="SourceAlpha" type="matrix" values="0 0 0 0 0 0 0 0 0 0 0 0 0 0 0 0 0 0 127 0" result="hardAlpha"/>
<feMorphology radius="3" operator="dilate" in="SourceAlpha" result="effect1_dropShadow_16_8256"/>
<feOffset dy="-6"/>
<feGaussianBlur stdDeviation="7.5"/>
<feComposite in2="hardAlpha" operator="out"/>
<feColorMatrix type="matrix" values="0 0 0 0 0 0 0 0 0 0 0 0 0 0 0 0 0 0 0.02 0"/>
<feBlend mode="normal" in2="BackgroundImageFix" result="effect1_dropShadow_16_8256"/>
<feColorMatrix in="SourceAlpha" type="matrix" values="0 0 0 0 0 0 0 0 0 0 0 0 0 0 0 0 0 0 127 0" result="hardAlpha"/>
<feOffset dy="4"/>
<feGaussianBlur stdDeviation="7.5"/>
<feComposite in2="hardAlpha" operator="out"/>
<feColorMatrix type="matrix" values="0 0 0 0 0 0 0 0 0 0 0 0 0 0 0 0 0 0 0.05 0"/>
<feBlend mode="normal" in2="effect1_dropShadow_16_8256" result="effect2_dropShadow_16_8256"/>
<feBlend mode="normal" in="SourceGraphic" in2="effect2_dropShadow_16_8256" result="shape"/>
</filter>
<linearGradient id="paint0_linear_16_8256" x1="21.3" y1="50.0333" x2="84" y2="61.0333" gradientUnits="userSpaceOnUse">
<stop stop-color="white"/>
<stop offset="1" stop-color="#E6E8FF"/>
</linearGradient>
</defs>
</svg>
