<svg width="114" height="109" viewBox="0 0 114 109" fill="none" xmlns="http://www.w3.org/2000/svg">
<g opacity="0.5" filter="url(#filter0_dd_16_8259)">
<circle cx="57" cy="57" r="33" fill="url(#paint0_linear_16_8259)"/>
</g>
<path d="M55.605 68.52C54.2183 68.52 52.8583 68.4933 51.525 68.44C50.1917 68.4133 48.8983 68.3733 47.645 68.32C46.3917 68.2667 45.205 68.1867 44.085 68.08C42.965 67.9733 41.9117 67.8667 40.925 67.76L41.565 62.24C42.8983 62.3733 44.1383 62.4933 45.285 62.6C46.4583 62.68 47.5783 62.7467 48.645 62.8C49.7117 62.8533 50.7783 62.8933 51.845 62.92C52.9117 62.92 54.005 62.92 55.125 62.92C57.3117 62.92 59.1517 62.8267 60.645 62.64C62.1383 62.4533 63.325 62.1867 64.205 61.84C65.1117 61.4933 65.7517 61.08 66.125 60.6C66.525 60.12 66.725 59.6 66.725 59.04C66.725 58.5333 66.5917 58.0533 66.325 57.6C66.085 57.1467 65.7117 56.7733 65.205 56.48C64.725 56.1867 64.1117 56.04 63.365 56.04C62.3517 56.04 61.3517 56.28 60.365 56.76C59.3783 57.24 58.4183 57.88 57.485 58.68C56.5783 59.4533 55.725 60.3067 54.925 61.24C54.125 62.1467 53.405 63.0267 52.765 63.88L46.645 63.2C47.7383 61.4933 48.925 59.88 50.205 58.36C51.5117 56.8133 52.8983 55.4533 54.365 54.28C55.8583 53.08 57.405 52.1467 59.005 51.48C60.605 50.7867 62.2317 50.44 63.885 50.44C65.5917 50.44 67.0717 50.7867 68.325 51.48C69.5783 52.1733 70.5517 53.1333 71.245 54.36C71.965 55.5867 72.325 57 72.325 58.6C72.325 60.52 71.7783 62.2267 70.685 63.72C69.5917 65.2133 67.8183 66.3867 65.365 67.24C62.9383 68.0933 59.685 68.52 55.605 68.52ZM48.645 64.04L47.805 38.72H53.405L54.125 57.84L48.645 64.04ZM63.125 46.72C62.2983 46.72 61.5917 46.44 61.005 45.88C60.445 45.32 60.165 44.6267 60.165 43.8C60.165 42.9733 60.445 42.2667 61.005 41.68C61.5917 41.0933 62.2983 40.8 63.125 40.8C63.925 40.8 64.605 41.0933 65.165 41.68C65.7517 42.2667 66.045 42.9733 66.045 43.8C66.045 44.6267 65.7517 45.32 65.165 45.88C64.605 46.44 63.925 46.72 63.125 46.72Z" fill="#F66742"/>
<defs>
<filter id="filter0_dd_16_8259" x="6" y="0" width="102" height="109" filterUnits="userSpaceOnUse" color-interpolation-filters="sRGB">
<feFlood flood-opacity="0" result="BackgroundImageFix"/>
<feColorMatrix in="SourceAlpha" type="matrix" values="0 0 0 0 0 0 0 0 0 0 0 0 0 0 0 0 0 0 127 0" result="hardAlpha"/>
<feMorphology radius="3" operator="dilate" in="SourceAlpha" result="effect1_dropShadow_16_8259"/>
<feOffset dy="-6"/>
<feGaussianBlur stdDeviation="7.5"/>
<feComposite in2="hardAlpha" operator="out"/>
<feColorMatrix type="matrix" values="0 0 0 0 0 0 0 0 0 0 0 0 0 0 0 0 0 0 0.02 0"/>
<feBlend mode="normal" in2="BackgroundImageFix" result="effect1_dropShadow_16_8259"/>
<feColorMatrix in="SourceAlpha" type="matrix" values="0 0 0 0 0 0 0 0 0 0 0 0 0 0 0 0 0 0 127 0" result="hardAlpha"/>
<feOffset dy="4"/>
<feGaussianBlur stdDeviation="7.5"/>
<feComposite in2="hardAlpha" operator="out"/>
<feColorMatrix type="matrix" values="0 0 0 0 0 0 0 0 0 0 0 0 0 0 0 0 0 0 0.05 0"/>
<feBlend mode="normal" in2="effect1_dropShadow_16_8259" result="effect2_dropShadow_16_8259"/>
<feBlend mode="normal" in="SourceGraphic" in2="effect2_dropShadow_16_8259" result="shape"/>
</filter>
<linearGradient id="paint0_linear_16_8259" x1="27.3" y1="50.0333" x2="90" y2="61.0333" gradientUnits="userSpaceOnUse">
<stop stop-color="white"/>
<stop offset="1" stop-color="#E6E8FF"/>
</linearGradient>
</defs>
</svg>
