<svg width="124" height="125" viewBox="0 0 124 125" fill="none" xmlns="http://www.w3.org/2000/svg">
<path d="M61.7051 125L48.7147 115.25V95.75L61.7051 86L74.6955 95.75V115.25L61.7051 125Z" fill="#525FE1"/>
<path d="M61.7051 39L48.7147 29.25V9.75L61.7051 0L74.6955 9.75V29.25L61.7051 39Z" fill="#525FE1"/>
<path d="M17.678 106.046L15.6677 89.9284L29.6948 76.3826L45.7323 78.9542L47.7426 95.0716L33.7155 108.617L17.678 106.046Z" fill="#525FE1"/>
<path d="M0.785039 61.6435L11.2015 49.1811L30.6748 50.2017L39.7316 63.6846L29.3151 76.1469L9.84181 75.1263L0.785039 61.6435Z" fill="#525FE1"/>
<path d="M16.1875 20.4406L32.0065 16.7566L46.9443 29.2909L46.0632 45.5093L30.2442 49.1934L15.3063 36.659L16.1875 20.4406Z" fill="#525FE1"/>
<path d="M62 0L74.9904 9.75V29.25L62 39L49.0096 29.25V9.75L62 0Z" fill="#525FE1"/>
<path d="M62 86L74.9904 95.75V115.25L62 125L49.0096 115.25V95.75L62 86Z" fill="#525FE1"/>
<path d="M106.027 18.9542L108.037 35.0716L94.0102 48.6174L77.9728 46.0458L75.9625 29.9284L89.9896 16.3826L106.027 18.9542Z" fill="#525FE1"/>
<path d="M122.92 63.3565L112.504 75.8189L93.0303 74.7983L83.9735 61.3154L94.39 48.8531L113.863 49.8737L122.92 63.3565Z" fill="#525FE1"/>
<path d="M107.518 104.559L91.6986 108.243L76.7608 95.7091L77.6419 79.4907L93.4609 75.8066L108.399 88.341L107.518 104.559Z" fill="#525FE1"/>
<path d="M61.5 44L67.3195 48.4506L74.5815 49.4185L75.5494 56.6805L80 62.5L75.5494 68.3195L74.5815 75.5815L67.3195 76.5494L61.5 81L55.6805 76.5494L48.4185 75.5815L47.4506 68.3195L43 62.5L47.4506 56.6805L48.4185 49.4185L55.6805 48.4506L61.5 44Z" fill="#FFCF59"/>
</svg>
